<svg xmlns="http://www.w3.org/2000/svg" width="800" height="800" viewBox="-16.7 0 381.7 381.7"><defs><style>.a{fill:#fff}.b{fill:#211715}.f{fill:#7a7473}</style></defs><path d="M73.7 138.3a45.6 45.6 0 0 1-7.6 2.5.8.8 0 0 1-.2 0 34.6 34.6 0 0 0 2 7.2 15.4 15.4 0 0 0 3 4.5l.1-.3c2-5.9 3.8-9.7 4.6-14.6l-2 .7ZM84.4 52.8a28 28 0 0 1-.4-.4 32 32 0 0 1-7.3-16.7 29.9 29.9 0 0 1-.1-5.6A29.4 29.4 0 0 1 81.9 15 29 29 0 0 1 103.5 2a32.1 32.1 0 0 1 14.3 2.4 22.7 22.7 0 0 1 12.6 12 21.4 21.4 0 0 1 2.2 9.7 30.3 30.3 0 0 1 0 5.2c0 4-.1 9.5 3.4 11.6a3.7 3.7 0 0 1 1.6 1.7c.8 2-1 2.9-2 4A6 6 0 0 0 134 51a38 38 0 0 1-1 5.7 16 16 0 0 1-1.6 3.8 7.6 7.6 0 0 1-4.3 3.6 18.3 18.3 0 0 1-9.8.4 1.3 1.3 0 0 0-1.6.7 27 27 0 0 0-2 3.9l-1 3-2.1 5.5a60.3 60.3 0 0 0-11.2-7.5c-3.5-1.8-6.4-3-9.6-4.5a19.2 19.2 0 0 0 .6-3.7c-.2-3.3-3.9-6.6-6.1-9.2ZM170 103.7l-.7.7a29.8 29.8 0 0 0-3.4 3s-1.6 1.7-3.8 4.2c-4.3-3-10.7-7.5-13-8.8l.8-2.2.5-1.7a6.2 6.2 0 0 0 .2-3.3l-1-4.7c-.5-1.7.3-5.4 1.4-7.4 1.5-3 3.6-5 7.7-1l3.2-7a3.3 3.3 0 0 1 4.5-1.6 4 4 0 0 1 2.4 4 5.9 5.9 0 0 1 4.7 4.3 4 4 0 0 0 1.3 2.3c4.2 4 5.2 8 1.5 12.5a60.2 60.2 0 0 1-6.3 6.7ZM91.2 333.6H2v46.1h344.3V244.4H232v45.1H117v44.1Z" class="a"/><path d="M119 379.7v-46c0-2.6-4-2.7-4 0v46c0 2.6 4 2.6 4 0Z" class="b"/><path d="M346.3 377.7H2c-2.6 0-2.6 4 0 4h344.3c2.6 0 2.6-4 0-4Z" class="b"/><path d="M234 379.7v-90.2c0-2.6-4-2.6-4 0v90.2c0 2.6 4 2.6 4 0Z" class="b"/><path d="M4 379.7v-46l-2 2h115a2 2 0 0 0 2-2v-44.2l-2 2h115a2 2 0 0 0 2-2v-45l-2 2h114.3l-2-2v135.2c0 2.6 4 2.6 4 0V244.4a2 2 0 0 0-2-2H232a2 2 0 0 0-2 2v45.1l2-2H117a2 2 0 0 0-2 2v44.1l2-2H2a2 2 0 0 0-2 2v46.1c0 2.6 4 2.6 4 0Z" class="b"/><path d="M281.4 115.7c-19.3 8.9-40 18.2-62.7 24a1.5 1.5 0 0 0 0 2.8l20.9 6.9a1.5 1.5 0 0 1 .6 2.3c-32.8 36.9-120.5 78.1-174.3 96a1.5 1.5 0 0 0 .7 2.9c36-6.1 104.5-26 126.1-36.3 22.5-10.8 45-25.3 60.8-41.2a1.4 1.4 0 0 1 2.4.3c2.7 5.3 6.2 12.5 9.5 20a1.5 1.5 0 0 0 2.8-.3c6-21.6 11.5-51.2 15.2-75.9a1.4 1.4 0 0 0-2-1.5Z" style="fill:#64a4d6"/><path d="M93.1 5a26 26 0 0 1 10.4-3 32.1 32.1 0 0 1 14.3 2.4 22.7 22.7 0 0 1 12.6 12 31.8 31.8 0 0 1 1.2 3.1l-.7.8a65.2 65.2 0 0 1-11.6 9.3 60.5 60.5 0 0 1-13.4 6.3l-1.8.3a4.3 4.3 0 0 0-1-.5 3.8 3.8 0 0 0-3.3.4 5.5 5.5 0 0 0-2 4.5 9.7 9.7 0 0 0 2.1 6.3 43 43 0 0 1-10.4 9.9l-1 .7c-1.4-1.9-3.2-3.7-4.5-5.1a30 30 0 0 1-1-1.2 8.8 8.8 0 0 1-.8 2.4 15.2 15.2 0 0 1-6.3 6 16.5 16.5 0 0 1-8.2 2.3c-2.4 0-9.1-1.1-10.3-4.8 5.8-2.1 6.4-11.2 7.4-17.4a9 9 0 0 1 11.7-6.6 30 30 0 0 1 0-3A29.4 29.4 0 0 1 82 15a27 27 0 0 1 7.6-7.8 40.8 40.8 0 0 1 3.6-2Z" style="fill:#957f6e"/><path d="M77 31.2a11.5 11.5 0 0 0-9.9 1.6 10.7 10.7 0 0 0-4.3 7.1 70.2 70.2 0 0 1-1.7 9.2c-.7 2.3-1.8 5.1-4.2 6a2 2 0 0 0-1.4 2.5c1.7 4.8 8.2 6.4 12.8 6.3a20 20 0 0 0 10.2-3.6 14.4 14.4 0 0 0 6.5-8.6c.6-2.5-3.3-3.6-3.9-1a10.4 10.4 0 0 1-4.8 6.3 16.3 16.3 0 0 1-8 3 15.6 15.6 0 0 1-5-.8c-1.4-.5-3.5-1.2-4-2.7L58 59c6-2.3 7.4-9.3 8.2-15 .4-2.4.4-4.9 2-6.8A7.4 7.4 0 0 1 76 35c2.5.7 3.6-3.2 1.1-3.8ZM106.8 36a6.6 6.6 0 0 0-6.1-2.3 6 6 0 0 0-4.5 4.3c-1.1 3.5 0 7.7 2.4 10.4a13.8 13.8 0 0 0 4.8 3.5 2 2 0 0 0 2.7-.7 2 2 0 0 0-.7-2.8 15.1 15.1 0 0 1-2.3-1.3q-.2 0-.3-.2c.1.1.1.1 0 0l-.5-.4a9.9 9.9 0 0 1-.8-.8l-.2-.3q.2.3 0 0l-.3-.4-.5-1q-.2-.3 0 0a8.2 8.2 0 0 1-.3-.8 11 11 0 0 1-.3-1.2c0-.2 0-.2 0 0v-1.6a4 4 0 0 1 0-.4 5.5 5.5 0 0 1 .3-1.3l.2-.3a4.8 4.8 0 0 1 .2-.3s.5-.4.2-.3l.4-.2a1.7 1.7 0 0 1 1 0 2.1 2.1 0 0 1 1 .4l.2.2.6.6a2 2 0 0 0 2.8 0 2 2 0 0 0 0-2.8ZM128.5 36.7c.4 1.2.3 4.1-2 4.5-3 .1-3.3-3.4-2.3-5.1.7-1.4 3.1-2 4.3.6Z" class="b"/><path d="M130.5 24.8c.6 4.6-.4 9.1.6 13.7a9.6 9.6 0 0 0 2.8 5.3c.6.5 1.5.9 1.9 1.6 0 .2 0 .5 0 0a.8.8 0 0 1-.1.4l-1.1 1a7.8 7.8 0 0 0-2 2.6 12.4 12.4 0 0 0-.7 3.3c-.5 2.5-1 5.3-2.4 7.4-2.6 3.7-8.1 3.2-11.9 2.5-2.4-.4-3.5 1.6-4.5 3.4a31.8 31.8 0 0 0-2.3 5.7c-.8 2.5 3 3.5 3.8 1a26.3 26.3 0 0 1 1.9-4.6c0-.2 1-1.5 1-1.7q.2-.4-.6.1a5.3 5.3 0 0 0 .6.2 15.7 15.7 0 0 0 2 .3c4.6.5 10.1-.4 13-4.3a18.2 18.2 0 0 0 2.9-7.2c.2-1.3.3-2.6.6-3.8a4.2 4.2 0 0 1 1.5-2.2c1.8-1.6 3-3.5 1.9-5.9-1-1.8-3-2.4-3.8-4.1a14.7 14.7 0 0 1-1-6.4 70.8 70.8 0 0 0 0-8.3 2 2 0 0 0-2-2 2 2 0 0 0-2 2Z" class="b"/><path d="M134.6 26.2a26.3 26.3 0 0 0-7.2-17.7c-6.1-6.4-15.6-9-24.2-8.4a31 31 0 0 0-14.5 5.1 32.4 32.4 0 0 0-9 9.3 32.2 32.2 0 0 0-3 29.2 35.9 35.9 0 0 0 6.8 11c1.6 1.9 3.5 3.6 4.5 5.8.8 1.7.3 3.6-.2 5.4-.7 2.5 3.1 3.5 3.8 1a15.5 15.5 0 0 0 .8-5.2 10.7 10.7 0 0 0-2.3-5.4c-2.2-3-5-5.4-7-8.5a29.1 29.1 0 0 1-2.7-26A28.2 28.2 0 0 1 98.6 4.9a27.8 27.8 0 0 1 23.8 4.4 22 22 0 0 1 8.2 16.9c0 2.6 4 2.6 4 0ZM133.6 51.5l-1.6-.1h.5a11.6 11.6 0 0 1-3-.7 2 2 0 0 0-1.5.2 2 2 0 0 0-.7 2.7l.3.4a2 2 0 0 0 1 .5 16.6 16.6 0 0 0 5 1 2 2 0 0 0 1.4-.6 2 2 0 0 0 0-2.8 2.2 2.2 0 0 0-1.4-.6Z" class="b"/><path d="M97.7 46.4a61.8 61.8 0 0 1-4.2 4.7L91 53.3l-.3.3c-.2.1.3-.2 0 0l-.7.5-1.5 1a2 2 0 0 0 2 3.4 41 41 0 0 0 10-9.2 2 2 0 0 0 0-2.9 2 2 0 0 0-2.8 0ZM129.5 18.9a57 57 0 0 1-12.2 9.5c-3.7 2.2-7.7 4.6-12 5.5-2.5.5-1.4 4.4 1.1 3.9 4.6-1 9-3.6 13-6a61 61 0 0 0 13-10.1c1.7-1.9-1.1-4.7-2.9-2.8Z" class="b"/><path d="M71 85.7c4.3-4 8.8-8.1 12.7-14.2A22.1 22.1 0 0 0 86 67a2.4 2.4 0 0 1 3.4-1.4c3.5 1.6 6.5 2.7 10.3 4.5 4.6 2.3 12 7.8 15.1 11.9l1 1.3a12.4 12.4 0 0 1 2.5 2 35 35 0 0 1 5.5 7.4c2.7 4.8 3.6 8.1 6.4 12.6 2.1 3.3 4.8 7.5 7.9 7.7 3.7.2 5.3-3.3 7-6.2 1-1.4 1.6-2.7 2.2-3.7a1.2 1.2 0 0 1 1.6-.3c2.9 1.5 13.2 8.8 16.3 11a2 2 0 0 1 .5 2.4c-3 7.3-5.4 11-12.8 18.5-4.2 4.2-11.7 7.9-17.8 7a28.9 28.9 0 0 1-9-2.5c-1.6 7.3-2 10.7-3.3 20a83.1 83.1 0 0 1-1.2 9c-.7 3.2-1.5 4.7-5.9 6.8-8 3.9-20 2-29.4-.9-7.3-2.2-14-4.2-17.6-6a3.6 3.6 0 0 1-2-2 4.1 4.1 0 0 1 .4-2.5l4-11.3c2-5.9 3.8-9.7 4.6-14.6-2 .6-5 2.2-9.5 3.2a2.4 2.4 0 0 1-2.7-1.5A180.2 180.2 0 0 1 57 116c-1-5-1.2-8.5.9-13.3a51 51 0 0 1 13-17Z" style="fill:#bdbdbd"/><path d="m179.8 288 1.2-.4a8 8 0 0 0 4.7-4.8c1-3.5-1.2-7.2-4.2-9.1s-6.6-2.7-10-3.8a18.2 18.2 0 0 1-6.7-3.6 107 107 0 0 1-21.4-.5c-5.5 2.5-6 7.6-6.2 12.8a9.8 9.8 0 0 0 1.4 5 8.7 8.7 0 0 0 7.7 4c10.2.3 19 .6 27.8 1.2a14.5 14.5 0 0 0 5.7-.8ZM70.6 332.1a8 8 0 0 0 6-1.8c2.6-2.5 2.5-6.3.9-9.6s-4.5-5.8-6.9-8.5-4.6-6-4.5-9.7l.1-3.8A72.7 72.7 0 0 1 51 293l-3-1.3a20.8 20.8 0 0 1-3 2.7c-4.3 1-7.1 4.6-9 8.6a9.7 9.7 0 0 0-1.1 4.4c-.1 3.2.4 5.7 3.2 7.3C47 320 54.8 325 63.2 330.3c2 1.3 4.3 1.5 6.7 1.8h.7Z" class="f"/><path d="M161.2 264.8c3.2 5.8 9.9 6.8 15.5 8.8 2.8 1 5.5 2.5 6.8 5.2a4.8 4.8 0 0 1-2 6.3 14.5 14.5 0 0 1-9 1.6l-10-.5q-5.2-.3-10.5-.4l-5.2-.1a8.8 8.8 0 0 1-4-.9 6 6 0 0 1-2.7-2.6 9 9 0 0 1-.8-5.1c.2-3.1.7-6.3 3.1-8.4 2-1.7-.9-4.5-2.8-2.8a13.6 13.6 0 0 0-4 8.9c-.6 3.6-.5 7.3 1.7 10.4a11 11 0 0 0 8.3 4.4c4 .3 8.2.2 12.2.4l11.4.5c4 .2 7.7.7 11.5-.7 3.2-1.1 6.3-3.4 7-6.9.9-3.4-.6-6.8-3-9.2-3-3-7.1-4-11-5.3-3.4-1-7.2-2.3-9-5.6-1.3-2.2-4.8-.2-3.5 2ZM64.1 302.5c0 7 5.6 11.2 9.6 16.1 1.7 2.1 3.4 4.9 2.9 7.7-.6 2.8-3.3 4-6 3.8a21.2 21.2 0 0 1-4.2-.6 17.5 17.5 0 0 1-4.6-2.5l-9.2-5.7q-4.6-3-9.3-5.8l-4.5-2.7a4.2 4.2 0 0 1-1.7-2.6c-.8-3 .2-5.9 1.8-8.4 1.6-2.6 3.7-4.8 6.7-5.5 2.5-.6 1.4-4.5-1-3.9a14.3 14.3 0 0 0-8 5.7 16.5 16.5 0 0 0-3.7 9c-.1 3.1.4 6.4 3 8.5a41.4 41.4 0 0 0 5 3.1l5.5 3.4 10.4 6.5c3.4 2.1 6.5 4.5 10.5 5.1 3.5.6 7.1.8 10-1.5a9.2 9.2 0 0 0 3-9.3c-.8-4.1-3.8-7.3-6.6-10.2-2.6-2.9-5.6-6-5.6-10.2 0-2.6-4-2.6-4 0Z" class="b"/><path d="m84.8 173.6 1.4.4c9.4 2.9 21.4 4.8 29.4.9a23 23 0 0 0 2.3-1.3c11.4 4.4 23 8.8 33.7 13.6a40.6 40.6 0 0 1 8.5 5.6 21.1 21.1 0 0 1 6.2 10 59.1 59.1 0 0 1 2.3 17.2c0 13.7-.5 30.5-1 44.1a2.2 2.2 0 0 1-2.2 2.1 104 104 0 0 1-23.5-.6 2.3 2.3 0 0 1-2-2.3c.1-14.6.4-30.6.4-41.3a11 11 0 0 0-2.5-7.2c-1.6-2-4-3.2-7.7-3.8-6.2-1.2-18-3.5-25-5.3l-1.2 3.7c-5.3 15.2-15.7 43.6-33.2 86.8-.5 1.3-1 2.8-2.3 3a4.3 4.3 0 0 1-1.5-.3 75.5 75.5 0 0 1-20-8 2.5 2.5 0 0 1-1.4-3C54 263.8 63 238 67.2 209.7a111.2 111.2 0 0 0 1.4-16.4c.9-8.8.5-16.6 2.4-24.2 3.5 1.5 8.4 3 13.8 4.6Z" class="a"/><path d="M118.5 176c8.2 3.1 16.3 6.2 24.4 9.6 6.4 2.7 13.6 5.4 18.1 11.1 2.3 3 3.4 6.4 4.2 10a55.2 55.2 0 0 1 1.3 10.4c.3 7.7 0 15.5-.1 23.2l-.4 12c0 3.8 0 7.7-.3 11.4-.1.6-.1.5-.8.6l-2.7.1-5.8.2a89.6 89.6 0 0 1-12-.7c-.6 0-2 0-2.4-.4-.4-.3-.2-1-.2-1.5l.1-6.2.2-12.4.2-21.4a12.8 12.8 0 0 0-4.1-9.7c-2.6-2.1-5.8-2.9-9-3.5-6.4-1.2-12.8-2.5-19.2-4q-2.2-.4-4.3-1c-2.5-.6-3.6 3.2-1.1 3.9 6.6 1.6 13.4 3 20.1 4.3 3 .6 6.4.8 9.1 2.2 3.1 1.6 4.4 4.8 4.4 8.1 0 7.7 0 15.3-.2 23L138 258v3a13.2 13.2 0 0 0 0 3.2 4.4 4.4 0 0 0 3.7 3.2 77.3 77.3 0 0 0 12.5 1h6.2a40 40 0 0 0 5.8-.4c4.5-.8 3.6-6.2 3.7-9.5l.4-12.3c.2-8.2.4-16.4.4-24.7 0-7.5-.5-15.6-3.6-22.5-3-6.9-9.4-11.5-16-14.4-8.3-3.6-16.7-6.9-25-10l-6.4-2.5a2 2 0 0 0-2.5 1.4 2 2 0 0 0 1.4 2.4ZM73.2 81c-3.6 3.4-7.4 6.8-10.6 10.7a34 34 0 0 0-7.9 15c-.9 5.2.6 10.7 1.8 15.8 1.2 5.4 2.7 10.7 4.5 16 .4 1.3.9 2.7 2.2 3.6 1.5 1 3.1.8 4.8.3 2.6-.7 5-1.8 7.6-2.7 2.4-.8 1.3-4.7-1-3.8l-6 2.2c-.7.2-2.6 1-3 .8a176.4 176.4 0 0 1-5-17c-1.2-4.5-2.7-9.4-2-14 .6-4.7 3.6-9.4 6.6-13.1 3.2-4 7.1-7.4 10.8-11 1.8-1.8-1-4.7-2.8-2.9Z" class="b"/><path d="M64.2 142.4a35 35 0 0 0 1.5 5.4 18.3 18.3 0 0 0 3.1 5.4 2 2 0 0 0 2.9 0 2 2 0 0 0 0-2.8l-.2-.3c-.4-.4.1.2 0 0l-.5-.6-.7-1.1-.6-1.2s-.1-.3 0 0 0 0 0-.1l-.3-.6a36 36 0 0 1-1.4-5.2 2 2 0 0 0-2.5-1.4 2 2 0 0 0-1.4 2.4ZM86.3 70.8c.4-.9.9-1.7 1.2-2.6.3-.6.2-1 .8-1a7.4 7.4 0 0 1 2.1 1l2.9 1.3a75 75 0 0 1 9.3 4.8 53.2 53.2 0 0 1 8 6.1 29.6 29.6 0 0 1 2.8 3c1.2 1.5 2.8 2.5 4 3.8 5.5 5.9 7.4 13.8 11.8 20.3 1.8 2.7 4 6 7.2 7 3.4 1.2 6.3-.8 8.2-3.4 1-1.2 1.8-2.6 2.6-4l1.2-2.2a5.1 5.1 0 0 0 .4-.6l-.8.2.4.2 5.8 3.8 7 4.9 2.5 1.8c.4.2 0 0 .1 0l-.2.5-.9 2.1a49.9 49.9 0 0 1-11.7 15.7 24.1 24.1 0 0 1-8.8 5.3 17.7 17.7 0 0 1-10.3.3c-6-1.5-10.9-5-15-9.6a92.3 92.3 0 0 1-11-15c-.7-1.1-1.3-2.3-1.8-3.5a2 2 0 0 0-2.8-.7 2 2 0 0 0-.7 2.8c2.8 6 7 11.4 11 16.4a39 39 0 0 0 15.1 12 25 25 0 0 0 11.4 2.2 26 26 0 0 0 11-3.8 41.6 41.6 0 0 0 9-8 46.7 46.7 0 0 0 6.2-8.2 46.2 46.2 0 0 0 2-4.3c.8-1.7 1.9-3.6 1.3-5.5-.5-1.4-1.7-2-2.8-2.9l-3.1-2.1a386 386 0 0 0-7.6-5.3c-1.8-1.2-4.5-3.6-6.8-3-2 .6-2.6 2.9-3.5 4.4a36 36 0 0 1-2.7 4.2 3.5 3.5 0 0 1-3.2 1.7c-1.3-.2-2.5-1.7-3.3-2.7-5.3-6.5-7.3-14.8-12.3-21.4a24.8 24.8 0 0 0-4.3-4.5 31.7 31.7 0 0 1-3.3-3.5 50.9 50.9 0 0 0-8.6-7 68 68 0 0 0-9.8-5.3l-5.6-2.6c-1.8-.9-3.9-1-5.5.5a6.4 6.4 0 0 0-1.4 2.5c-.4 1-1 1.9-1.3 2.9a2 2 0 0 0 1.4 2.4 2 2 0 0 0 2.4-1.4Z" class="b"/><path d="M123.7 140c-1 5.1-1.7 10.4-2.5 15.6l-1 8.4c-.2 1.9-.4 4.4-1.4 6-1 1.8-3.4 3-5.3 3.7a25 25 0 0 1-8.3 1.4 59.1 59.1 0 0 1-18.1-2.9l-10-3a49.3 49.3 0 0 1-7.3-2.9c-.3-.1-1-.4-1.2-.8-.2-.6.3-1.4.5-2l1.7-4.7 3.3-9.3c2-5.6 3.8-11 4-17 .2-6.7-1-13.3-2.2-19.8-1.6-7.7-3.2-15.6-1.2-23.5a20.6 20.6 0 0 1 3.5-7.3c1.5-2.1 3.3-4 4.8-6.1a2 2 0 0 0-.7-2.8 2 2 0 0 0-2.8.7c-1.4 2-3.1 4-4.6 6a22.7 22.7 0 0 0-3.5 6.5 43.8 43.8 0 0 0-.4 22.2c1.2 6.7 2.9 13.5 3 20.4a40.9 40.9 0 0 1-.7 10.1 64.5 64.5 0 0 1-2.6 8.3l-3.5 9.7-1.7 4.7c-.6 1.9-1.4 3.8-.4 5.7 1.2 2.4 4.5 3.4 6.9 4.3l9.5 3.1c6.6 2 13.2 3.9 20.1 4.3 6.1.4 12.8-.4 17.9-4a10 10 0 0 0 4-6.3 67.1 67.1 0 0 0 1.2-8.9 178 178 0 0 1 2.9-18.8c.5-2.5-3.4-3.6-3.9-1Z" class="b"/><path d="M68.6 170.5a110.7 110.7 0 0 0-1.5 15.5l-.5 8.4c0 2.8-.2 5.5-.5 8.3a229.6 229.6 0 0 1-5.8 31.2 410.2 410.2 0 0 1-13.8 45l-2.4 7a6.8 6.8 0 0 0-.7 3.4 4.7 4.7 0 0 0 2 3 44 44 0 0 0 7.4 3.8 83 83 0 0 0 14 4.8c2.5.7 4.3-.6 5.3-3 4.1-9.6 7.9-19.5 11.7-29.2 5.8-14.6 11.4-29.2 16.7-44 5.1-14 9.8-28 14.6-42.2l1.8-5.2c.9-2.5-3-3.5-3.8-1.1-5 14.1-9.6 28.4-14.6 42.5-4.7 13-9.6 26-14.6 38.8l-10.6 27-3 7.3-1.6 4a8.7 8.7 0 0 1-.5 1 2.7 2.7 0 0 1-.2.4s.4 0 0 0a25.2 25.2 0 0 0-3-.8l-3.5-1.1a71.2 71.2 0 0 1-6.7-2.7l-3.6-1.7a16.5 16.5 0 0 1-3.6-2c-.5-.4.1-1.3.4-2l1.3-3.7 4.8-14c3.2-9.5 6.2-19.1 8.7-28.8a304.8 304.8 0 0 0 6.4-31c1.6-10.2 1.6-20.4 2.3-30.6a62 62 0 0 1 1-7.3c.4-2.5-3.4-3.6-3.9-1ZM157.5 79.1a5.4 5.4 0 0 0-4.5-.4 6.8 6.8 0 0 0-3.2 2.8 16 16 0 0 0-2.4 8 20.1 20.1 0 0 0 .9 4.7c0 .6.3 1.2.4 1.9a7.7 7.7 0 0 1-.8 4c-.8 2.4 3 3.4 3.9 1a12 12 0 0 0 1-4.5 13.3 13.3 0 0 0-.4-2.2l-1-4v-.3a6.5 6.5 0 0 1 0-1.4 14.9 14.9 0 0 1 1-3.3 7.8 7.8 0 0 1 1.4-2.5c.5-.6.8-.7 1.7-.3a2 2 0 0 0 2.7-.7 2 2 0 0 0-.7-2.8Z" class="b"/><path d="M159 86.2c1.6-2.8 3-5.8 4.3-8.8.5-1.1 1-2.3 2.5-1.6a2 2 0 0 1 1 2 2 2 0 0 0 1.5 2 4.1 4.1 0 0 1 3 2l.5 1.9a5.9 5.9 0 0 0 1.2 1.9c1.8 1.9 4 3.8 3.5 6.7-.5 2.9-3.3 5.4-5.2 7.4-2.2 2.2-4.7 4-6.8 6.3-1.8 1.9 1 4.7 2.8 2.8l4.2-3.8c1.3-1.1 2.5-2.3 3.6-3.6 2.5-2.7 5.2-5.7 5.4-9.6.2-3.8-2.2-6.3-4.5-9a4.8 4.8 0 0 1-.8-1.8 7.6 7.6 0 0 0-1.4-2.4 8 8 0 0 0-4.5-2.7l1.5 2c0-4.3-4.5-8-8.5-5.6-2 1.2-2.7 3.6-3.6 5.6l-3.1 6.3c-1.3 2.3 2.2 4.3 3.4 2ZM106 84a13.7 13.7 0 0 0-3.7 1.2 15.3 15.3 0 0 0-3.8 2.6 21.6 21.6 0 0 0-5 7.3 2 2 0 0 0 .7 2.7 2 2 0 0 0 2.7-.7 25.5 25.5 0 0 1 2-3.6l.5-.8c0-.1.2-.3 0 0l.4-.5a16.5 16.5 0 0 1 1.4-1.5 12.4 12.4 0 0 1 3-2c.3-.2-.2 0 0 0l.4-.2.7-.2a16 16 0 0 1 1.7-.4 2 2 0 0 0 1.4-2.4A2 2 0 0 0 106 84ZM84 72.4c4.8 2 9.5 3.9 14.3 6.1a2 2 0 0 0 2.7-.7 2 2 0 0 0-.7-2.7c-5-2.3-10.1-4.5-15.3-6.6a2 2 0 0 0-2.5 1.4 2 2 0 0 0 1.4 2.5Z" class="b"/></svg>