<svg xmlns="http://www.w3.org/2000/svg" width="800" height="800" viewBox="0 -6.4 359.2 359.2"><defs><style>.a{fill:#fff}.b{fill:#211715}.c{fill:#b3b3b3}.d{fill:#3d8dcc}.e{fill:#85807f}.g{fill:#ffda71}</style></defs><path d="M87.4 131.6a4.7 4.7 0 0 0-5.4-2.2s3.6-16.8-19.5-16.8c-22 0-19.4 17-19.4 17a4.7 4.7 0 0 0-5.5 2 6.5 6.5 0 0 0 .3 6.2 10.2 10.2 0 0 0 5.4 4.4 22.3 22.3 0 0 0 4.4 7.6 19 19 0 0 0 4 3.4v1.4l10 7.2h2.1l10-7.2V153a19.7 19.7 0 0 0 3.6-3.2 22.2 22.2 0 0 0 4.3-7.7h.2a10.3 10.3 0 0 0 5-4 6.5 6.5 0 0 0 .5-6.4ZM105.1 261.8c.9-.3 1.7-1 2.3-2.6.4-5.6-2.5-14.8-4.6-21.4H89.2v6.3l1.2 3.9c-.7 4 .8 9.9 5.9 6l1.2-.8c1.5 3.5 4.8 9.4 7.6 8.6Z" class="a"/><path d="M100.7 237.8c1.2 3.7 2.4 7.4 3.3 11.2a35.2 35.2 0 0 1 1.4 10.2l.3-1a7.8 7.8 0 0 1-.6 1.2l-.3.3c0 .1-.3 0-.1.1.2.1-.2 0-.2 0 .7.4 0-.2 0 0 0 0 .5.3 0 0-.1 0-.2 0 0 0a3.7 3.7 0 0 1-.4-.2l-.3-.2c-.2-.1.2.2 0 0l-.8-.8-.4-.4-.2-.2a25 25 0 0 1-2.3-4l-.5-1-.2-.4-.1-.2-.5-1.5c-.8-2.4-4.7-1.4-3.9 1a29 29 0 0 0 2.8 6.2c1.2 2 2.8 4.3 5 5.3 2.7 1.2 5.1-.4 6.4-3 .7-1.4.4-3.5.2-5a55.3 55.3 0 0 0-1-5.8c-1-4.3-2.4-8.6-3.7-12.8-.8-2.5-4.7-1.4-3.9 1Z" class="b"/><path d="M88.4 247.5a13.8 13.8 0 0 0-.2 3 11 11 0 0 0 .6 3 6.2 6.2 0 0 0 1.5 2.6 4.4 4.4 0 0 0 3.1 1.2 7 7 0 0 0 4-1.5 2.2 2.2 0 0 0 .8-1.2 2 2 0 0 0-.2-1.6 2 2 0 0 0-1.2-.9 2 2 0 0 0-1.5.2 7.8 7.8 0 0 1-1.6 1l.5-.2a4.1 4.1 0 0 1-1 .2h.5a2.8 2.8 0 0 1-.7 0h.5a2.5 2.5 0 0 1-.6-.1l.5.2a2.6 2.6 0 0 1-.5-.3l.4.3a3.1 3.1 0 0 1-.5-.5l.3.4a4.6 4.6 0 0 1-.5-1l.2.5a7.8 7.8 0 0 1-.6-2l.1.5a11.5 11.5 0 0 1 0-3v.5-.3a2.2 2.2 0 0 0-.2-1.5 2 2 0 0 0-2.7-.7 2 2 0 0 0-1 1.2Z" class="b"/><path d="M20.2 261.8c-.8-.3-1.6-1-2.3-2.6a74.4 74.4 0 0 1 4.7-21.4h13.6l-.1 6.3L35 248c.7 4-.8 9.9-6 6l-1.1-.8c-1.5 3.5-4.8 9.4-7.7 8.6Z" class="a"/><path d="M20.8 236.8c-1.2 3.7-2.4 7.5-3.3 11.3-.9 3.5-1.8 7.3-1.6 10.9.2 2.8 3 5.4 6 4.7 2.3-.6 4-2.9 5.2-4.8a28.7 28.7 0 0 0 3.4-7c.7-2.4-3.1-3.4-3.9-1l-.5 1.5c-.2.3 0-.1 0 0l-.3.5-.4 1a25 25 0 0 1-2.5 4l-.4.6-.8.8s-.3.2 0 0a4.6 4.6 0 0 1-.5.3l-.3.2c-.2.1.3 0 0 0-.4 0-.1.2 0 0H20.6q.3.1.1 0a1.7 1.7 0 0 1-.2-.1c.4.4-.4-.5-.1-.2a7 7 0 0 1-.8-1.3l.3 1a35.2 35.2 0 0 1 1.5-10.2c1-3.8 2-7.5 3.2-11.2.8-2.4-3-3.5-3.8-1Z" class="b"/><path d="m33 248.5.1.3v-.5a11.5 11.5 0 0 1 0 3v-.5a8 8 0 0 1-.5 2l.2-.5a4.6 4.6 0 0 1-.5 1l.3-.4a3 3 0 0 1-.6.5l.4-.3a2.5 2.5 0 0 1-.5.3l.5-.2a2.5 2.5 0 0 1-.6.1h.6a2.8 2.8 0 0 1-.7 0h.5a4.2 4.2 0 0 1-1-.2l.5.2a7.7 7.7 0 0 1-1.6-1 2 2 0 0 0-1.6-.2 2 2 0 0 0-1.2 1 2 2 0 0 0-.2 1.5 2.3 2.3 0 0 0 1 1.2c1.7 1.3 4.4 2.2 6.4.7 1.8-1.3 2.4-3.5 2.6-5.6a13.5 13.5 0 0 0-.2-3.4 2 2 0 0 0-.9-1.2 2 2 0 0 0-2.7.7 2.3 2.3 0 0 0-.2 1.5Z" class="b"/><path d="M54.2 176.4a252 252 0 0 1-5.3-14.2c-1.3-.6-1-2.6-.2-3.6 1-1.1 2.1-2.8 3-4l10 7.2H64l10-7.2c.9 1.2 2 2.9 3 4a3.5 3.5 0 0 1 .6 1.6c-2.4 7.4-5.4 15.3-8.5 22.4-2.4 5.3-3.2 7.2-6.1 12.6-3-5.4-3.7-7.3-6-12.6-1-2-1.8-4-2.7-6.2ZM78.7 341.7l-1.2-.9a27.7 27.7 0 0 0-7-4c-1.6-.5-4-1-5.2-1.9-1.8-1.4-1.7-4-1.7-5.8v-6.4l18.5-.3 1.4 1.3a84.4 84.4 0 0 1 11.8 9.9 6.4 6.4 0 0 1 1.7 6.3 4.3 4.3 0 0 1-2 3 11.4 11.4 0 0 1-4.5 1.3 19.9 19.9 0 0 1-10.5-1.7 11.1 11.1 0 0 1-1.3-.8ZM29.9 342.3a5 5 0 0 1-1.2-2.4 6.4 6.4 0 0 1 1.7-6.3 84.4 84.4 0 0 1 11.8-10s.4-.3 1-.7l18.8-.2v6.4c0 1.9.2 4.4-1.6 5.8-1.2 1-3.6 1.4-5.1 2a27.7 27.7 0 0 0-7 3.9 13.8 13.8 0 0 1-2.6 1.6 19.9 19.9 0 0 1-10.5 1.8 11.4 11.4 0 0 1-4.5-1.3 4 4 0 0 1-.8-.6ZM313.8 34.7a4.7 4.7 0 0 0-5.4-2.2s1.8-17-19.5-17-19.4 17.1-19.4 17.1a4.7 4.7 0 0 0-5.4 2 6.5 6.5 0 0 0 .2 6.3 10.2 10.2 0 0 0 5.4 4.4 22.3 22.3 0 0 0 4.5 7.6 19 19 0 0 0 4 3.4v1.4l10 7.2h2l10-7.2V56a19.7 19.7 0 0 0 3.6-3.2 22.2 22.2 0 0 0 4.4-7.7h.2a10.3 10.3 0 0 0 5-4 6.5 6.5 0 0 0 .4-6.4Z" class="a"/><path d="M280.6 79.5c-1.9-4.7-3.7-9.5-5.3-14.2-1.3-.7-1-2.6-.2-3.6 1-1.1 2.1-2.8 3-4l10 7.2h2.2l10-7.2c1 1.2 2 2.9 3 4a3.5 3.5 0 0 1 .6 1.6c-2.4 7.4-5.4 15.3-8.5 22.4-2.4 5.3-3.2 7.1-6 12.6a232.7 232.7 0 0 1-8.7-18.8ZM350 247.4H228.4v97H350Z" class="a"/><path d="m305.1 244.8-1.2-1a27.7 27.7 0 0 0-7-3.8c-1.6-.6-4-1-5.2-2-1.7-1.4-1.6-4-1.6-5.8v-6.4l18.5-.3 1.3 1.3a84.3 84.3 0 0 1 11.8 9.9 6.4 6.4 0 0 1 1.8 6.3 4.3 4.3 0 0 1-2 3 11.4 11.4 0 0 1-4.5 1.3 19.9 19.9 0 0 1-10.5-1.8 11.1 11.1 0 0 1-1.4-.7ZM256.3 245.4a5 5 0 0 1-1.2-2.4 6.4 6.4 0 0 1 1.8-6.3 84.4 84.4 0 0 1 11.8-10l.9-.7 18.9-.2v6.4c0 1.9.2 4.4-1.6 5.8-1.3 1-3.6 1.3-5.2 2a27.7 27.7 0 0 0-7 3.9 13.8 13.8 0 0 1-2.6 1.6 19.9 19.9 0 0 1-10.5 1.8 11.4 11.4 0 0 1-4.4-1.3 4 4 0 0 1-.9-.6ZM331.6 164.9c.8-.3 1.6-1 2.3-2.6.3-5.6-2.5-14.8-4.6-21.4h-13.7l.1 6.3 1.1 3.9c-.6 4 .8 9.9 6 6l1.1-.8c1.5 3.5 4.8 9.4 7.7 8.6Z" class="a"/><path d="M301.9 148.5h-1a16.9 16.9 0 0 1-6.6-2.4 9.4 9.4 0 0 1-3.7-5 49.3 49.3 0 0 1-1.5-8.4 49.3 49.3 0 0 1-1.4 8.4 9.4 9.4 0 0 1-3.7 5 16.9 16.9 0 0 1-6.7 2.3 89.2 89.2 0 0 1-12.6.3c.5 21.1 1.5 49.6 2 76.7v.6c4.8 0 39.1-.4 45.3-.6.5-27.4 1.5-55.7 2-76.8a111.5 111.5 0 0 1-12.1 0Z" class="c"/><path d="M327.2 141c1.2 3.6 2.3 7.3 3.3 11a35.2 35.2 0 0 1 1.4 10.3l.3-1a7.8 7.8 0 0 1-.7 1.2l-.2.3c-.1.1-.4 0-.2.1.3.1-.1 0-.1 0 .7.4 0-.2 0 0 0 0 .4.3 0 0-.2 0-.2 0 0 0a4 4 0 0 1-.4-.2 5 5 0 0 1-.3-.2c-.2-.1.2.2-.1 0l-.8-.8a15 15 0 0 1-.3-.4l-.2-.2a25 25 0 0 1-2.4-4l-.5-1c0-.1 0-.3-.2-.4-.2-.6.2.3 0-.2l-.6-1.5c-.7-2.4-4.6-1.4-3.8 1a29 29 0 0 0 2.8 6.2c1.2 2 2.7 4.3 5 5.3 2.7 1.2 5.1-.4 6.3-3 .8-1.4.4-3.5.2-5a55.3 55.3 0 0 0-1-5.8c-1-4.3-2.3-8.6-3.7-12.8-.7-2.5-4.6-1.4-3.8 1Z" class="b"/><path d="M314.9 150.6a13.8 13.8 0 0 0-.2 3 11 11 0 0 0 .5 3 6.2 6.2 0 0 0 1.6 2.6 4.4 4.4 0 0 0 3 1.2 7 7 0 0 0 4-1.5 2.2 2.2 0 0 0 .9-1.2 2 2 0 0 0-.2-1.6 2 2 0 0 0-1.2-.9 2 2 0 0 0-1.5.2 7.8 7.8 0 0 1-1.6 1l.4-.2a4.1 4.1 0 0 1-1 .2h.6a2.8 2.8 0 0 1-.7 0h.5a2.5 2.5 0 0 1-.6-.1l.5.2a2.6 2.6 0 0 1-.5-.3l.4.3a3.1 3.1 0 0 1-.5-.5l.3.4a4.6 4.6 0 0 1-.6-1l.2.5a7.9 7.9 0 0 1-.5-2v.5a11.5 11.5 0 0 1 0-3v.5-.3a2.2 2.2 0 0 0-.1-1.5 2 2 0 0 0-2.8-.7 2 2 0 0 0-.9 1.2Z" class="b"/><path d="M264.8 68.2a59.1 59.1 0 0 1 9.8-5c2.4 7.4 5.5 15.3 8.7 22.5 2.3 5.3 3 7.1 6 12.6 3-5.5 3.7-7.3 6-12.6 3.2-7.2 6.2-15 8.7-22.4 7 3 13.8 7 18 13.2a47.4 47.4 0 0 1 6.3 22c1.3 12.7 2.2 27.7 3 41a1.3 1.3 0 0 1-1.4 1.4h-14.3l.1 6.3a1.3 1.3 0 0 1-1.3 1.4c-3 .1-10 .3-13.4-.2a16.9 16.9 0 0 1-6.7-2.3 9.4 9.4 0 0 1-3.7-5 49.3 49.3 0 0 1-1.5-8.4 49.3 49.3 0 0 1-1.4 8.4 9.4 9.4 0 0 1-3.7 5 16.9 16.9 0 0 1-6.7 2.3c-3.4.5-10 .4-13.1.2a1.6 1.6 0 0 1-1.5-1.6l.5-34.6a13.9 13.9 0 0 1-8 1.2c-4.3-.4-8-4-9.2-8a27.7 27.7 0 0 1-1-6c-.7-7.6-.7-11.3-1-16.6l10-2.3a28 28 0 0 1 2.2-4.2 30.5 30.5 0 0 1 8.6-8.3Z" class="c"/><path d="M301.2 64.3a47 47 0 0 1 16.2 9.7 31.5 31.5 0 0 1 8 17c1.2 6.8 1.6 13.8 2.2 20.7q1 10.7 1.7 21.5l.2 3.2c0 .3 0 3 .2 3l.6-.5h-.2a5.8 5.8 0 0 0-1.2 0h-11.2c-2.5 0-2.5 4 0 4h8.4c2.8 0 7.5.7 7.6-3.4 0-2-.3-4-.4-5.8l-.4-6-1-11.7c-.6-7.6-1.2-15.3-2.2-22.9-1-7.2-3-14.4-7.8-20-5-6.2-12.4-9.8-19.7-12.7a2 2 0 0 0-2.4 1.4 2 2 0 0 0 1.4 2.5Z" class="b"/><path d="M313 92.7c0 13.2.2 26.3.4 39.5l.2 10.2v2.4a15 15 0 0 0 .1 2.4l.5-.6h-.2a2 2 0 0 0-.5 0l-1.7.1c-5 .1-10.2.5-14.8-1.4a7.8 7.8 0 0 1-4.6-5.2 36.6 36.6 0 0 1-1.3-7.4c-.1-2.5-4.1-2.5-4 0a46.2 46.2 0 0 0 1.3 7.8 11.9 11.9 0 0 0 4.1 6.7c4.6 3.7 11 3.6 16.6 3.5h3.6c1.4 0 2.9 0 4-1 1.2-1.2 1-2.9 1-4.4l-.1-5.8-.4-21.7-.2-25c0-2.7-4-2.7-4 0ZM276 60.4c-9.7 4-19.2 9.3-23.8 19.3a2 2 0 0 0 .7 2.7 2 2 0 0 0 2.8-.7 27.2 27.2 0 0 1 9-10.9 57.9 57.9 0 0 1 12.4-6.5 2 2 0 0 0 1.4-2.5 2 2 0 0 0-2.4-1.4Z" class="b"/><path d="M289.3 98.3c2.7-5 3.6-7 5.5-11.4L293 75.4a22.4 22.4 0 0 1 .9-4l.3-1.2-3.8-5.3H288c-1 1.2-2.5 3.4-3.7 5.3l.3 1.2a23.6 23.6 0 0 1 .8 4c0 .2-1.6 7-2.2 10.3 2.3 5.3 3 7.1 6 12.6" class="d"/><path d="M302 62.6a216.5 216.5 0 0 1-14.4 34.7c-1.2 2.3 2.2 4.3 3.4 2a222.7 222.7 0 0 0 15-35.7c.7-2.4-3.1-3.5-4-1ZM301.7 98.3c3-4.2 5.8-8.5 8.6-12.9a56.6 56.6 0 0 0 3-4.9c.8-1.5 0-2.8-1-4l-2.8-3.5v2.8c1.5-1.8 3-3.8 4.6-5.5 1.8-2-1-4.8-2.8-2.9-1.7 1.8-3.1 3.7-4.7 5.6a2 2 0 0 0 0 2.8q1 1 1.8 2.1c.4.5 1.2 1.2 1.3 1.9v-1.1a6.3 6.3 0 0 1-1 1.7l-1.2 2-2.5 3.8q-3.2 5.2-6.8 10.1a2 2 0 0 0 .8 2.8 2 2 0 0 0 2.7-.7Z" class="b"/><path d="M272.7 63.6a222.7 222.7 0 0 0 14.9 35.7c1.2 2.3 4.6.3 3.4-2a216.5 216.5 0 0 1-14.5-34.7c-.8-2.5-4.6-1.4-3.8 1ZM280.5 98.1q-3.7-5.2-7.1-10.7l-2.7-4.2-1.2-2a6.8 6.8 0 0 1-1.1-1.8v1c0-.7 1-1.4 1.4-2l1.8-2.2a2 2 0 0 0 0-2.8c-1.6-2-3.1-4-4.9-5.9-1.7-1.9-4.5 1-2.8 2.8s3.3 4 5 6v-3l-3 3.8c-1.1 1.3-2 2.6-1 4.3.9 1.8 2.1 3.5 3.2 5.2 2.9 4.6 5.8 9.1 9 13.5a2 2 0 0 0 2.7.8 2 2 0 0 0 .7-2.8ZM262.7 148.7c.4 19.5 1.1 39 1.6 58.6l.3 18.1c0 2.6 4 2.6 4 0-.3-20.6-1-41.2-1.5-61.7l-.4-15c0-2.6-4-2.6-4 0ZM312 148.6c-.5 19.6-1.2 39.1-1.6 58.6l-.4 18.2c0 2.6 4 2.6 4 0 .3-20.6 1-41.2 1.6-61.8l.4-15c0-2.5-4-2.5-4 0ZM287.3 159v67c0 2.6 4 2.6 4 0v-67c0-2.6-4-2.6-4 0Z" class="b"/><path d="M266.6 228c12.6 0 25.2-.3 37.7-.4l7.7-.2c2.6 0 2.6-4 0-4-12.8.4-25.6.4-38.4.5h-7c-2.5 0-2.5 4 0 4ZM291.8 70.8a15.5 15.5 0 0 0-.9 4.6 29 29 0 0 0 .5 3l1.5 9a2 2 0 0 0 2.4 1.5 2 2 0 0 0 1.4-2.5l-1.4-8.8-.3-1.7v-.8c-.1-.3 0 .3 0 .4V75c0 .3 0 .2 0 0a29 29 0 0 1 .7-3c.7-2.6-3.2-3.6-3.9-1.1Z" class="b"/><path d="M292.3 73.5h-6.1a2 2 0 0 0 0 4h6a2 2 0 0 0 0-4Z" class="b"/><path d="m282.7 71.9.6 2.2.2 1c-.1-.4 0 0 0 .1v.2-.5a15 15 0 0 0-.4 2.2l-1.8 8a2 2 0 0 0 1.4 2.5 2 2 0 0 0 2.5-1.4c.5-2.8 1.2-5.5 1.8-8.3a13.1 13.1 0 0 0 .5-2.5 17.2 17.2 0 0 0-.9-4.6c-.7-2.5-4.5-1.4-3.8 1Z" class="b"/><path d="M300.3 57.7c1 1.2 2 2.9 3 4a3 3 0 0 1 .5 2.8 36 36 0 0 1-7.6 8.8c-.9-1.2-4.3-6.4-6-8.4l10-7.2ZM278.2 57.7l-3 4a3 3 0 0 0-.6 2.8c.4.7 4.8 7.2 7.7 8.8.8-1.2 4.2-6.4 5.9-8.4l-10-7.2Z" class="a"/><path d="m298.9 59.2 1.8 2.4 1 1.4a2.4 2.4 0 0 1 .3.7c0-.1-.1.3 0 0s0-.1 0 0l-.3.4-.9 1.3-.6.9-.4.4a1.8 1.8 0 0 1-.1.2 45.4 45.4 0 0 1-3.2 3.7l-.8.6c-.3.3.3-.1 0 .1l-.5.3 2.7.7c-2-3-4-6-6.2-8.8l-.4 3.1c3.4-2.2 6.7-4.7 10-7.1a2 2 0 0 0 .7-2.8 2 2 0 0 0-2.7-.7c-3.3 2.4-6.6 5-10 7.2a2 2 0 0 0-.4 3.1l.1.2.4.5.8 1 1.7 2.5 2.6 3.8a2 2 0 0 0 2.7.7 17 17 0 0 0 4-3.6 59 59 0 0 0 3.3-4.3c1-1.4 1.8-2.7 1.4-4.5a7.8 7.8 0 0 0-1.8-3l-2.4-3.3a2 2 0 0 0-2.8 0 2 2 0 0 0 0 2.9Z" class="b"/><path d="m276.7 56.3-2.4 3.3a7.7 7.7 0 0 0-1.7 3c-.4 1.9.3 3 1.3 4.5s2.2 3 3.4 4.3a17 17 0 0 0 4 3.7 2 2 0 0 0 2.7-.8l2.6-3.8 1.7-2.4.7-1 .4-.6.2-.2a2 2 0 0 0-.4-3.1c-3.5-2.3-6.7-4.8-10-7.2a2 2 0 0 0-2.8.7 2 2 0 0 0 .8 2.8c3.2 2.4 6.5 4.9 10 7.1l-.5-3.1c-2.2 2.8-4.1 5.9-6.2 8.8l2.8-.7c-.2 0-.3-.2-.4-.3-.4-.2 0 0-.1 0a15.5 15.5 0 0 1-2.4-2.4l-1.7-2a1.4 1.4 0 0 1-.1-.2l-.3-.4-.7-.9-1-1.3c0-.2 0-.3-.2-.4v-.2c.2 0 0 .8 0 .2l.1-.4c0 .2.4-.6.2-.3l1-1.4 1.9-2.4a2 2 0 0 0 0-2.9 2 2 0 0 0-2.9 0ZM286.5 225.8v5.3c0 1.4.2 3.1-.3 4.5-.5 1.6-3 1.8-4.4 2.2a27.3 27.3 0 0 0-6.4 3.1c-2 1.4-3.8 2.9-6.2 3.6a18.3 18.3 0 0 1-7 .9c-1.6-.2-4.2-.4-5-2.3a4.6 4.6 0 0 1 1-4.9 74.9 74.9 0 0 1 11.5-9.7c2.1-1.5.1-5-2-3.5a81 81 0 0 0-12.3 10.4c-3.7 3.9-3.3 10.8 2 13a20 20 0 0 0 16.5-1.5c1.3-.8 2.3-1.7 3.5-2.5a26.6 26.6 0 0 1 4-2.2c2.2-1 4.8-1.2 6.7-2.6 2.2-1.8 2.4-4.6 2.4-7.2v-6.6c0-2.6-4-2.6-4 0Z" class="b"/><path d="M288 225.8v5.8c0 2.2 0 4.5 1.1 6.4 1.3 2.2 3.9 2.8 6.1 3.5a24.2 24.2 0 0 1 7.4 3.9 20.6 20.6 0 0 0 16.6 3.6c2.7-.6 5-2 6-4.7a8.7 8.7 0 0 0-.7-7.3c-1.4-2.3-3.8-4.2-5.8-6a91.3 91.3 0 0 0-7.8-6c-2-1.5-4 2-2 3.5a86 86 0 0 1 10.4 8.7c1.4 1.3 2.6 2.5 2.4 4.6a4 4 0 0 1-.8 2.1 5.8 5.8 0 0 1-3.2 1.3 16.8 16.8 0 0 1-13-3.3 29.2 29.2 0 0 0-6.6-3.6l-2.8-1a6.2 6.2 0 0 1-2.4-1c-1.2-1-.8-3.5-.8-5v-5.6c0-2.5-4-2.5-4 0Z" class="b"/><path d="M265.1 19.9a22.5 22.5 0 0 1 4.8-9.8c4.3-4.8 9.5-7.4 17.3-8 6-.4 13 1.5 15.9 5.3a21.4 21.4 0 0 1 4 2.9c5.3 5.4 7.3 14.1 4.8 22.6a4.7 4.7 0 0 0-3.4-.4H307a23.8 23.8 0 0 0-5.7-8.3 12.6 12.6 0 0 0-3.6-2.6l-7.7-.7c-2.7 1.2-6.4 3.7-8.5 5-.5.3-1-.2-1-.9a4.3 4.3 0 0 0 0-1.4c-.2-.6-.7-1-1-.7-3 1.6-7.4 6.2-10 9.7a4.8 4.8 0 0 0-4.3.8 28.2 28.2 0 0 1 0-13.5Z" class="e"/><path d="M314 32.8a26 26 0 0 0-2-19.3 18.2 18.2 0 0 0-6.5-6.9c-1.2-.7-2-1.8-3.2-2.6a17 17 0 0 0-3.7-2 27 27 0 0 0-32 9.3c-4 6.1-5 14-3.7 21 .5 2.5 4.4 1.5 3.9-1-1.9-10.1 2.4-21.5 12.4-25.4a25.4 25.4 0 0 1 15.8-1 12.8 12.8 0 0 1 6.3 3.5 16.6 16.6 0 0 0 3.3 2.3 11.6 11.6 0 0 1 2.7 2.9c3.8 5.2 4.5 12 2.8 18.1-.7 2.5 3.2 3.6 3.9 1Z" class="b"/><path d="m309 34.5.5-.1c-.5 0 0 0 0 0h.6c-.3 0-.2 0 0 0l.5.1c.2 0 .4.2.1 0l.5.3s.4.3.1 0a4.7 4.7 0 0 1 .4.4s.3.5.1.1a4.5 4.5 0 0 1 .4.6q-.1-.2 0 0a5.4 5.4 0 0 1 .2 1v1a5.2 5.2 0 0 1-.2 1c0 .2-.2.5 0 .2a6 6 0 0 1-.6 1s-.4.6-.2.3l-.4.4a10.2 10.2 0 0 1-.8.8l-.3.3-.3.2a10.6 10.6 0 0 1-1 .6l-.5.3-.3.1a2 2 0 0 0-1.4 2.5A2 2 0 0 0 309 47c4-1.6 7.6-5.2 7.5-9.7a7 7 0 0 0-2.8-5.7 6.8 6.8 0 0 0-5.7-1 2 2 0 0 0 1 3.9ZM270 30.7a6.8 6.8 0 0 0-5.7.9 7 7 0 0 0-3 5.6c0 4.5 3.4 8.2 7.4 9.8a2 2 0 0 0 2.4-1.4 2 2 0 0 0-1.4-2.4l-.2-.1-.5-.3a10.5 10.5 0 0 1-1-.6c0-.1 0-.1 0 0a7 7 0 0 1-.5-.5 11.8 11.8 0 0 1-.9-1c-.4-.4.2.4-.1-.1l-.4-.5-.2-.4-.1-.3c0 .1 0 .2 0 0a6.8 6.8 0 0 1-.3-1s-.1-.6 0-.2l-.1-.6v-.7a5.5 5.5 0 0 1 .3-1l.1-.2c.1 0 .4-.5.1-.2a4.9 4.9 0 0 1 .3-.4l.2-.1.3-.2.3-.2c-.2.1.2 0 .2 0l.5-.2c.5-.1-.3 0 .2 0h.5c.4 0-.3-.1.1 0l.5.1a2 2 0 0 0 2.5-1.4 2 2 0 0 0-1.4-2.4Z" class="b"/><path d="M306.2 44.6a19.9 19.9 0 0 1-6.5 9.3 17.2 17.2 0 0 1-10.4 3.3 18 18 0 0 1-11-3.2 19.4 19.4 0 0 1-6.6-9.3c-.9-2.4-4.7-1.3-3.9 1a22.1 22.1 0 0 0 14.8 14.7c7.2 1.8 15.3.6 20.9-4.4a24.4 24.4 0 0 0 6.6-10.4c.8-2.4-3-3.4-3.9-1ZM293.8 37.2a4 4 0 0 1 1-3.1 3 3 0 0 1 2-.9 3.2 3.2 0 0 1 2.7 1.3 4 4 0 0 1-.1 4.6 3 3 0 0 1-4.1.6 3.4 3.4 0 0 1-1.5-2.5ZM278.2 37.2a4 4 0 0 1 1-3.1 3 3 0 0 1 2-.9 3.2 3.2 0 0 1 2.7 1.3 4 4 0 0 1-.1 4.6 3 3 0 0 1-4.1.6 3.4 3.4 0 0 1-1.5-2.5ZM296.7 23.3a15.7 15.7 0 0 1 2 1.2h-.1l.4.3a23 23 0 0 1 2.6 2.6l.5.7c.4.5 0-.2.1.1l.3.4 1 1.6 1 1.6.3.7c.1.2 0-.3 0 0l.2.5a2 2 0 0 0 2 1.5h1.6a2 2 0 0 0 0-4H307l1.9 1.5a24 24 0 0 0-4.4-7.3 18.5 18.5 0 0 0-5.8-4.8 2 2 0 1 0-2 3.4ZM271.3 33.6a43.9 43.9 0 0 1 4.5-5.1 39.9 39.9 0 0 1 3.5-3.1l.6-.4.2-.2q.5-.2-.2 0l-1-.2q-.5-.8-.4-.4a3.2 3.2 0 0 1 0 .4 4.6 4.6 0 0 0 0 1.2 2.9 2.9 0 0 0 1.4 1.8c1.5.9 2.8-.1 4-.9a64.8 64.8 0 0 1 7-4 2 2 0 0 0 .8-2.8 2 2 0 0 0-2.7-.7 43.4 43.4 0 0 0-4.5 2.4l-2 1.4-1 .6a5 5 0 0 0-.5.2c-.5.4-.3-.1.4.1l1 .5c0 .2 0 1 .1.4a3.1 3.1 0 0 0 0-.7 5 5 0 0 0-.3-1.6 2.6 2.6 0 0 0-2.8-1.6c-1.5.2-3 1.7-4.2 2.7a47.4 47.4 0 0 0-7.4 8 2 2 0 0 0 .7 2.7 2 2 0 0 0 2.8-.7ZM261.3 92.7c0 14.2-.1 28.4-.4 42.6l-.2 11.3a3.8 3.8 0 0 0 1.9 3.6c1.2.6 2.8.5 4 .5 5.8.2 12 .4 17.2-2.2 5.8-2.8 7-9.9 7.3-15.8.2-2.5-3.8-2.5-4 0a39.9 39.9 0 0 1-1 6.7 8 8 0 0 1-3.5 5.2c-4.3 2.7-10.1 2.2-15 2.1a11.7 11.7 0 0 0-3 0c-.8.2.4-.4 0 .2l.1.1V143.3q.2-4.8.2-9.7l.3-18.4.1-22.5c0-2.6-4-2.6-4 0Z" class="b"/><path d="m242 83 .5 10.3.6 6.8a24.8 24.8 0 0 0 1.3 6.8 14 14 0 0 0 8 8.1c3.8 1.4 8.2.8 11.7-.9a2 2 0 0 0 .7-2.7 2 2 0 0 0-2.7-.7 11.3 11.3 0 0 1-9 .3 10.4 10.4 0 0 1-5.6-7.5 78.2 78.2 0 0 1-1-11.5l-.6-9c-.2-2.5-4.2-2.5-4 0Z" class="b"/><path d="M242 77.4a19.6 19.6 0 0 0-1.4-2.4 6.1 6.1 0 0 1-1.2-3.9 7 7 0 0 1 .6-2.4l4-5.9a15.7 15.7 0 0 1 1.2-1.2 3.5 3.5 0 0 1 2.4-1 13.5 13.5 0 0 1 3.1 1.7l1-.7 1.2-1.2a3.1 3.1 0 0 1 3.3 0 13.1 13.1 0 0 1 2.6 2 3.7 3.7 0 0 1 1 2.2 1.6 1.6 0 0 1-.3 1.5 2.8 2.8 0 0 1-2.2.8 4.8 4.8 0 0 1 1.4 3.7 2.5 2.5 0 0 1 0 .5 2.4 2.4 0 0 1-.3.6c-.9 1.6-2.4 3.6-1.7 5.6 1.8 5.2 1.5 7.8-.2 9.3a12.4 12.4 0 0 1-4.6 2.5 11 11 0 0 1-3.1.2 5.7 5.7 0 0 1-2.4-1.3 6 6 0 0 1-1-2.3l-1.7-4.8a36.3 36.3 0 0 0-1.6-3.5Z" class="a"/><path d="M258.3 65.2A99.3 99.3 0 0 0 251 60a11 11 0 0 0-2.5-1.3 5 5 0 0 0-4.4 1.2 18.8 18.8 0 0 0-3 3.6 24.7 24.7 0 0 0-3 4.9 8 8 0 0 0-.6 3.5 10.3 10.3 0 0 0 2 4.8 36 36 0 0 1 3.4 7.7 22.4 22.4 0 0 0 1.4 3.9 6.6 6.6 0 0 0 4.2 3 9 9 0 0 0 3.5-.2 11.4 11.4 0 0 0 3.4-1.3c2.4-1.2 4.2-3 4.6-5.7a13 13 0 0 0-.4-4.4l-.9-3a2.7 2.7 0 0 1 .4-2c.8-1.5 1.7-2.8 1.7-4.6a7.4 7.4 0 0 0-2-4.6c-1.6-2-4.4.9-2.8 2.9a3 3 0 0 1 .8 2.2c0 .7.1-.2-.1.2l-.5.8a18.2 18.2 0 0 0-1 2 6.1 6.1 0 0 0-.5 3.8c.4 1.5 1 2.9 1.2 4.4a7.5 7.5 0 0 1 0 2.1 1.8 1.8 0 0 1-.7 1.3 9.1 9.1 0 0 1-5 2.2 4.5 4.5 0 0 0-.8 0c-.3 0-.4-.2.1 0a4.2 4.2 0 0 1-1.5-.8c-.7-.7-.8-2.1-1.2-3.1a49.8 49.8 0 0 0-2.7-6.7c-1-1.9-3-3.9-2.6-6a7.4 7.4 0 0 1 1.6-3c.8-1.2 1.5-2.5 2.5-3.6a6.7 6.7 0 0 1 1.3-1.4l.6-.2h-.2c.2 0 .2 0 0-.1l.2.1.5.3 1.5.9c2.3 1.5 4.7 3.2 6.9 4.9a2 2 0 0 0 2.7-.7 2 2 0 0 0-.7-2.8Z" class="b"/><path d="M252.7 63.3a7.4 7.4 0 0 0 1-.9l.3-.3.2-.2-.2.2a2 2 0 0 1 .2-.1c.2-.1.1 0-.2 0a1.4 1.4 0 0 0 .4 0h-.3.2a1.4 1.4 0 0 0 .4 0h-.2.2l.4.2c.4 0-.4-.3 0 0l.3.1a4.6 4.6 0 0 1 .8.6c-.3-.3 0 0 0 0l.5.4.7.7.3.3-.1-.2v.2l.2.1q.1.3 0-.1a1.5 1.5 0 0 0 0 .3l.1.4c.1.4 0-.4 0 0v-.2a1.6 1.6 0 0 1 0 .3l.1-.3.2-.2a1.4 1.4 0 0 0-.2.2c-.2.3.4-.2 0 0a1.4 1.4 0 0 0-.3.1h.3-.2c-.5.1 0 0 0 0h-.5a2 2 0 0 0-2 2 2 2 0 0 0 2 2 4.7 4.7 0 0 0 3.7-1.4 4.3 4.3 0 0 0 .3-4.9 8.6 8.6 0 0 0-2.7-3 7.4 7.4 0 0 0-4-1.6 4.5 4.5 0 0 0-2.4.5 4.4 4.4 0 0 0-1 .8l-.4.4-.1.1a2.2 2.2 0 0 0-1 1.2 2 2 0 0 0 3 2.3Z" class="b"/><path d="M218.7 141c-9.5 5.2-19.7 11.1-30.5 13.8a1 1 0 0 0 0 2l9.3 2.2a1 1 0 0 1 .6 1.6c-15 18.1-42.6 35-66.9 45a1.2 1.2 0 0 0 .8 2.3c15.6-2.9 34.4-9 43.4-14a96.4 96.4 0 0 0 30.6-23.1 1 1 0 0 1 1.6.1l5.4 9a1 1 0 0 0 1.8-.3 364.6 364.6 0 0 0 5.3-37.5 1 1 0 0 0-1.4-1Z" style="fill:#64a4d6"/><path d="M350 245.4H228.4a2 2 0 0 0-2 2v97a2 2 0 0 0 2 2H350a2 2 0 0 0 2-2v-97c0-2.5-4-2.6-4 0v97l2-2H228.4l2 2v-97l-2 2H350c2.6 0 2.6-4 0-4ZM2 346.3h121.5c2.6 0 2.6-4 0-4H2c-2.5 0-2.5 4 0 4Z" class="b"/><path d="M216.2 109.6a21.1 21.1 0 0 1 4.7-8.5 15 15 0 0 1 8.5-4.6 16.1 16.1 0 0 1-9-4.7c-2.4-2.7-4-8.5-4.2-9-.2.5-2 6.4-4.5 9a15.4 15.4 0 0 1-8.7 4.7 14.1 14.1 0 0 1 8.6 4.6 23.7 23.7 0 0 1 4.6 8.5Z" class="g"/><path d="M216.2 111.6a2 2 0 0 0 2-1.5 15.4 15.4 0 0 1 11.7-11.7 2 2 0 0 0 1.5-2 2 2 0 0 0-1.5-1.8c-3.4-.6-7-2.4-9-5.5-1.3-2.3-1.9-5-3-7.3-.7-1.8-3-1-3.6.4a41.5 41.5 0 0 1-3 7 12.6 12.6 0 0 1-8.8 5.4 2 2 0 0 0-1.5 1.9 2 2 0 0 0 1.5 2 12.8 12.8 0 0 1 7.5 3.9 19 19 0 0 1 4.3 7.7c.6 2.5 4.4 1.4 3.8-1a23.3 23.3 0 0 0-5.2-9.6 16.3 16.3 0 0 0-9.4-5l1.5 2-1.5 1.9a16.5 16.5 0 0 0 10.9-6.7c1.7-2.6 2.6-5.5 3.7-8.4l-3.6.5c-.2-.5-.1-.3 0 0l.2.7.8 2.2A23.1 23.1 0 0 0 218 92a16.8 16.8 0 0 0 10.9 6.5l-1.5-2 1.5-1.9c-7.1 1.4-13 7.5-14.6 14.5l1.9-1.4c-2.6 0-2.6 4 0 4Z" class="b"/><path d="M344 47.3a21.1 21.1 0 0 1 4.7-8.5 15 15 0 0 1 8.5-4.6 16.1 16.1 0 0 1-9-4.7c-2.4-2.6-4-8.5-4.2-9-.2.5-2 6.4-4.5 9a15.4 15.4 0 0 1-8.7 4.7 14.1 14.1 0 0 1 8.6 4.6 23.7 23.7 0 0 1 4.6 8.5Z" class="g"/><path d="M344 49.3a2 2 0 0 0 2-1.5 15.4 15.4 0 0 1 11.7-11.7 2 2 0 0 0 1.5-1.9 2 2 0 0 0-1.5-2c-3.4-.5-7-2.3-9-5.4-1.3-2.3-1.9-4.9-3-7.3-.7-1.8-3-1-3.6.5a41.5 41.5 0 0 1-3 6.9 12.6 12.6 0 0 1-8.8 5.4 2 2 0 0 0-1.5 2 2 2 0 0 0 1.5 1.8 12.8 12.8 0 0 1 7.5 4 19 19 0 0 1 4.3 7.7c.6 2.5 4.5 1.5 3.8-1a23.3 23.3 0 0 0-5.2-9.5 16.3 16.3 0 0 0-9.4-5l1.5 1.9-1.5 2a16.5 16.5 0 0 0 10.9-6.8c1.7-2.5 2.6-5.5 3.8-8.4l-3.7.5c-.2-.5-.1-.3 0 0l.2.7.8 2.3a23.1 23.1 0 0 0 2.5 5.1 16.8 16.8 0 0 0 10.9 6.5l-1.5-1.9 1.5-2c-7.1 1.4-13 7.6-14.6 14.6l2-1.5c-2.7 0-2.7 4 0 4Z" class="b"/><path d="M50 245.4a107.2 107.2 0 0 1-11.8.2c.8 21 1.5 49.6 2 76.7v.6c4.9 0 39.2-.4 45.3-.6.5-27.4 1-55.7 2-76.8-3.2.2-9.8.3-13-.2a16.9 16.9 0 0 1-6.7-2.3 9.4 9.4 0 0 1-3.7-5 49.3 49.3 0 0 1-1.4-8.4 49.3 49.3 0 0 1-1.5 8.4 9.4 9.4 0 0 1-3.6 5 16.9 16.9 0 0 1-6.7 2.3l-.8.1Z" class="c"/><path d="M99.1 180.7a30.4 30.4 0 0 0-3.5-7.3 39.6 39.6 0 0 0-18.1-13.2c-2.4 7.4-5.4 15.3-8.6 22.4-2.4 5.3-3.1 7.2-6 12.6-3-5.4-3.7-7.3-6.1-12.6-3.2-7.2-6.2-15.1-8.6-22.6-7.2 3-14.1 7-18.4 13.4s-5.5 14.3-6.3 22c-1.3 12.7-1.8 27.7-2.4 41a1.3 1.3 0 0 0 1.3 1.4h13.8l-.1 6.4a1.3 1.3 0 0 0 1.3 1.3c3 .1 10 .3 13.5-.2a16.9 16.9 0 0 0 6.7-2.3 9.4 9.4 0 0 0 3.6-5 49.3 49.3 0 0 0 1.5-8.4A49.3 49.3 0 0 0 64 238a9.4 9.4 0 0 0 3.7 5 16.9 16.9 0 0 0 6.7 2.3c3.4.5 10.5.3 13.5.2a1.3 1.3 0 0 0 1.3-1.3l-.1-6.4h14a1.3 1.3 0 0 0 1.3-1.4c-.7-13.4-1.4-28.3-2.6-41a67.5 67.5 0 0 0-2.8-14.7Z" class="c"/><path d="M74.7 161.2c5.7 2.2 11.5 5 16 9.4a31 31 0 0 1 8.1 16.5c1.3 6.7 1.4 13.5 1.9 20.3l1.4 21.3.3 5.9a5.5 5.5 0 0 0 .1 1.3q-.1 1 .7-.1h-12c-2.5 0-2.5 4 0 4h8.8a14.2 14.2 0 0 0 4.3-.3c2.1-.7 2.3-2.6 2.2-4.5l-1.5-23.5c-.5-7.4-.7-15-1.8-22.3-1-7-3.3-14-8-19.6-5-5.9-12.3-9.4-19.4-12.3a2 2 0 0 0-2.5 1.4 2 2 0 0 0 1.4 2.5Z" class="b"/><path d="m86.5 189.6.5 39.6.2 9.7v5.2l.6-.6a4 4 0 0 0-.7 0l-1.8.1c-4.9.1-10.2.5-14.8-1.4A7.8 7.8 0 0 1 66 237a36.6 36.6 0 0 1-1.2-7.4c-.2-2.5-4.2-2.5-4 0a46.3 46.3 0 0 0 1.2 7.8 11.9 11.9 0 0 0 4.2 6.8c4.5 3.6 11 3.5 16.5 3.5l4-.1c1.2 0 2.6 0 3.6-1 1.4-1.3 1-3.2 1-4.9V236l-.4-21.4-.3-25c0-2.5-4-2.6-4 0ZM49.6 157.3A53 53 0 0 0 32 167.6c-5.2 5-8 11.6-9.4 18.5-1.5 7.2-1.6 14.8-2 22.2q-.8 11.7-1.4 23.5L19 235a5.5 5.5 0 0 0 .4 3c1 1.8 2.8 1.8 4.6 1.8h10c2.6 0 2.6-4 0-4H22.7q-.9-.1.4.6a10.7 10.7 0 0 0 0-2.3l.2-3 1.3-21.7c.4-6.7.5-13.5 1.6-20.2 1-6.2 3-12.4 7.2-17.2 4.6-5.1 11-8.3 17.3-10.8a2 2 0 0 0 1.4-2.5 2 2 0 0 0-2.5-1.4Z" class="b"/><path d="m34.9 189.6-.7 43.7v5.6a52.5 52.5 0 0 0 0 5.6c.2 3.4 4 3 6.5 3.1 5.6.1 11.8.4 17-2.3 5.5-3 6.6-10 7-15.7.1-2.5-3.9-2.5-4 0a39.9 39.9 0 0 1-1.1 6.7 8 8 0 0 1-3.4 5.2c-4.1 2.6-9.8 2.2-14.5 2.1h-3.1a4 4 0 0 0-1 0l.5.6v-2.5l.2-10.2.3-19.1.3-22.8c0-2.5-4-2.5-4 0Z" class="b"/><path d="M62.9 195.2c2.6-5 3.5-7 5.5-11.3l-2-11.6a22.4 22.4 0 0 1 .9-4l.3-1.2c-1.3-1.9-2.8-4.1-3.8-5.3h-2.1c-1 1.2-2.5 3.4-3.8 5.3l.3 1.2a23.6 23.6 0 0 1 .8 4c0 .2-1.6 7-2.2 10.3 2.4 5.3 3.1 7.1 6 12.6" class="d"/><path d="M75.6 159.5a216.6 216.6 0 0 1-14.5 34.7c-1.2 2.3 2.3 4.3 3.5 2a222.7 222.7 0 0 0 14.9-35.7c.8-2.4-3-3.5-3.9-1ZM75.2 195.3c3-4.3 5.9-8.6 8.6-13a56.6 56.6 0 0 0 3-4.9c.8-1.5 0-2.8-1-4l-2.8-3.5v2.8c1.5-1.8 3-3.8 4.7-5.5 1.7-2-1.1-4.8-2.9-2.9l-4.6 5.6a2 2 0 0 0 0 2.8l1.7 2.1c.4.5 1.3 1.2 1.4 1.9v-1.1a6.3 6.3 0 0 1-1 1.7l-1.3 2-2.4 3.8q-3.3 5.2-6.8 10.1a2 2 0 0 0 .7 2.8 2 2 0 0 0 2.7-.7Z" class="b"/><path d="M46.2 160.5a222.7 222.7 0 0 0 15 35.7c1.1 2.3 4.6.3 3.4-2A216.6 216.6 0 0 1 50 159.5c-.8-2.5-4.7-1.4-3.9 1ZM54 195q-3.7-5.2-7.1-10.7l-2.6-4.1-1.3-2a6.8 6.8 0 0 1-1.1-2v1.2c.1-.8 1-1.5 1.5-2l1.8-2.3a2 2 0 0 0 0-2.8c-1.6-2-3.2-4-5-5.9-1.7-1.9-4.5 1-2.8 2.8s3.3 4 5 6v-3l-3 3.8c-1 1.3-2 2.6-1 4.3 1 1.8 2.2 3.5 3.3 5.2 2.8 4.6 5.8 9.1 9 13.5a2 2 0 0 0 2.7.8 2 2 0 0 0 .7-2.8ZM36.2 245.6a3728 3728 0 0 1 1.6 58.6l.4 18.1c0 2.6 4 2.6 4 0q-.5-30.9-1.5-61.7l-.5-15c0-2.6-4-2.6-4 0ZM85.5 245.5c-1 19.6-1.3 39.1-1.6 58.6l-.4 18.2c0 2.6 4 2.6 4 0 .4-20.6.7-41.2 1.4-61.8l.6-15c.1-2.5-3.9-2.5-4 0ZM60.9 255.8v67c0 2.7 4 2.7 4 0v-67c0-2.5-4-2.5-4 0Z" class="b"/><path d="M40.2 324.9c12.5 0 25.1-.2 37.7-.4l7.6-.2c2.6 0 2.6-4 0-4-12.8.4-25.6.4-38.4.5h-7c-2.5 0-2.5 4 0 4ZM65.4 167.8a15.5 15.5 0 0 0-1 4.5 29 29 0 0 0 .5 3l1.5 9a2 2 0 0 0 2.5 1.5 2 2 0 0 0 1.4-2.5c-.6-2.9-1-5.8-1.5-8.8l-.2-1.7-.1-.6v-.2c-.1-.3 0 .3 0 .4v-.5c0 .3 0 .2 0 0l.1-.6.6-2.5c.7-2.5-3.1-3.5-3.8-1Z" class="b"/><path d="M65.8 170.4h-6a2 2 0 0 0 0 4h6a2 2 0 0 0 0-4Z" class="b"/><path d="m56.3 168.8.5 2.2.2 1V172.4l.1-.5a15 15 0 0 0-.5 2.2l-1.7 8a2 2 0 0 0 1.4 2.5 2 2 0 0 0 2.4-1.4l1.8-8.3a13.1 13.1 0 0 0 .5-2.5 17.2 17.2 0 0 0-.8-4.6c-.7-2.4-4.6-1.4-3.9 1.1Z" class="b"/><path d="m73.8 154.6 3 4a3 3 0 0 1 .6 2.8c-.4.7-4.8 7.2-7.7 8.8-.8-1.2-4.2-6.4-5.9-8.4l10-7.2ZM51.7 154.6l-3 4a3 3 0 0 0-.6 2.8c.4.7 4.8 7.2 7.7 8.8.8-1.2 4.2-6.4 5.9-8.4l-10-7.2Z" class="a"/><path d="m72.4 156 1.8 2.5c.4.4.8.9 1 1.4a2.4 2.4 0 0 1 .3.7s0 .3 0 0c.2-.3.1-.1 0 0l-.2.4-1 1.3-.6.9-.3.4a1.8 1.8 0 0 1-.2.2 45.4 45.4 0 0 1-3.2 3.7l-.7.6-.1.1-.5.3 2.7.7c-2-3-3.9-6-6.2-8.8l-.4 3.1c3.4-2.2 6.7-4.7 10-7.1a2 2 0 0 0 .7-2.8 2 2 0 0 0-2.7-.7c-3.3 2.4-6.6 5-10 7.2a2 2 0 0 0-.4 3.1s.5.6.1.2l.4.5.8 1 1.7 2.5 2.6 3.8a2 2 0 0 0 2.7.8 17 17 0 0 0 4-3.7A59 59 0 0 0 78 164c1-1.4 1.7-2.7 1.3-4.5a7.8 7.8 0 0 0-1.7-3l-2.5-3.3a2 2 0 0 0-2.8 0 2 2 0 0 0 0 2.9Z" class="b"/><path d="M50.3 153.2c-.9 1-1.7 2.2-2.5 3.3a7.7 7.7 0 0 0-1.7 3c-.4 1.9.4 3 1.3 4.5 1.1 1.5 2.2 3 3.4 4.3a17 17 0 0 0 4 3.7 2 2 0 0 0 2.7-.8l2.6-3.8 1.7-2.4.8-1 .4-.6.1-.2a2 2 0 0 0-.4-3.1c-3.4-2.3-6.7-4.8-10-7.2a2 2 0 0 0-2.7.7 2 2 0 0 0 .7 2.8c3.3 2.4 6.6 4.9 10 7.1l-.4-3.1c-2.3 2.8-4.2 5.9-6.2 8.8l2.7-.7-.4-.3a15.5 15.5 0 0 1-2.5-2.4l-1.6-2a1.4 1.4 0 0 1-.2-.2l-.3-.4-.6-.9a44 44 0 0 1-1-1.3l-.2-.4-.1-.2c.2 0 0 .8 0 .2l.2-.4.1-.3 1-1.4 2-2.4a2 2 0 0 0 0-2.9 2 2 0 0 0-3 0ZM60 322.7v5.3c0 1.4.3 3.1-.2 4.5-.6 1.6-3 1.8-4.4 2.2a27.3 27.3 0 0 0-6.4 3.1c-2 1.4-3.8 2.9-6.2 3.6a18.3 18.3 0 0 1-7 .9c-1.7-.1-4.3-.4-5-2.3a4.6 4.6 0 0 1 1-4.9 74.9 74.9 0 0 1 11.5-9.7c2-1.5 0-5-2-3.5a81 81 0 0 0-12.4 10.4c-3.6 3.9-3.2 10.8 2 13a20 20 0 0 0 16.5-1.5l3.6-2.5a26.6 26.6 0 0 1 4-2.2c2.2-1 4.7-1.2 6.6-2.6 2.3-1.8 2.4-4.6 2.4-7.2v-6.6c0-2.6-4-2.6-4 0Z" class="b"/><path d="M61.6 322.7v5.8c0 2.2 0 4.5 1 6.4 1.4 2.2 3.9 2.8 6.2 3.5a24.2 24.2 0 0 1 7.3 3.9 20.6 20.6 0 0 0 16.7 3.6c2.7-.6 5-2 5.9-4.7a8.7 8.7 0 0 0-.7-7.3c-1.4-2.3-3.8-4.2-5.8-6a91.3 91.3 0 0 0-7.7-6c-2.1-1.4-4.1 2-2 3.5a86 86 0 0 1 10.4 8.7c1.3 1.3 2.5 2.5 2.3 4.6a4 4 0 0 1-.7 2.1 5.8 5.8 0 0 1-3.2 1.3 16.8 16.8 0 0 1-13.1-3.3 29.2 29.2 0 0 0-6.6-3.6l-2.8-1a6.2 6.2 0 0 1-2.4-1c-1.2-1-.8-3.5-.8-5v-5.6c0-2.5-4-2.5-4 0Z" class="b"/><path d="M38.7 116.8a22.5 22.5 0 0 1 4.8-9.8c4.3-4.8 9.4-7.4 17.2-8 6-.4 13 1.5 16 5.3a21.4 21.4 0 0 1 4 2.9 22.8 22.8 0 0 1 4.7 22.6 4.8 4.8 0 0 0-3.3-.4h-1.6a23.8 23.8 0 0 0-5.7-8.3 12.6 12.6 0 0 0-3.6-2.6l-7.7-.7c-2.6 1.2-6.3 3.7-8.4 5-.5.3-1.1-.2-1-.9a4.3 4.3 0 0 0-.1-1.4c-.2-.6-.6-.9-1-.7-2.9 1.6-7.4 6.2-10 9.7a4.8 4.8 0 0 0-4.2.8 28.2 28.2 0 0 1-.1-13.5Z" class="e"/><path d="M87.5 129.7a26 26 0 0 0-2-19.3 18.2 18.2 0 0 0-6.4-6.9c-1.2-.7-2.1-1.8-3.2-2.6a17 17 0 0 0-3.8-2 27 27 0 0 0-32 9.3c-4 6.1-5 14-3.6 21 .5 2.5 4.3 1.5 3.8-1-1.9-10.2 2.4-21.5 12.4-25.4a25.4 25.4 0 0 1 15.9-1 12.9 12.9 0 0 1 6.2 3.5 16.5 16.5 0 0 0 3.3 2.3 11.7 11.7 0 0 1 2.8 2.9c3.7 5.2 4.4 12 2.8 18.1-.7 2.5 3.1 3.6 3.8 1Z" class="b"/><path d="m82.5 131.4.5-.1h.6c-.2 0-.1 0 0 0l.6.1c.2 0 .3.2 0 0l.5.3s.5.3.1 0a4.9 4.9 0 0 1 .4.4l.1.1a5 5 0 0 1 .4.6q0-.2 0 0a5.4 5.4 0 0 1 .3 1 8.7 8.7 0 0 1 0 .8s-.1.6 0 .2a5.3 5.3 0 0 1-.3 1c0 .2-.2.5 0 .2a6 6 0 0 1-.6 1s-.4.6-.2.3c0 .2-.2.3-.3.4a10.2 10.2 0 0 1-.8.8l-.4.4-.2.1a10.6 10.6 0 0 1-1 .6l-.6.3-.2.1a2 2 0 1 0 1 3.9c4-1.6 7.6-5.2 7.6-9.7a7 7 0 0 0-2.9-5.7 6.8 6.8 0 0 0-5.7-1 2 2 0 0 0 1.1 3.9ZM43.6 127.6a6.8 6.8 0 0 0-5.7.9 7 7 0 0 0-3 5.6c-.2 4.5 3.4 8.2 7.3 9.8a2 2 0 0 0 2.5-1.4 2 2 0 0 0-1.4-2.4l-.2-.1-.6-.3a10.7 10.7 0 0 1-.9-.6c0-.1 0-.1 0 0a8.4 8.4 0 0 1-.6-.5 11.8 11.8 0 0 1-.8-1c-.4-.4.2.4-.2-.1l-.3-.5-.3-.4v-.3c0 .1 0 .2 0 0a6.9 6.9 0 0 1-.4-1v-1.5a5.4 5.4 0 0 1 .2-1c-.1.3.1-.2.2-.2s.3-.5 0-.2a4.9 4.9 0 0 1 .4-.4s.5-.3.1 0c.1-.2.2-.2.4-.3l.3-.2c-.2.1.1 0 .2 0l.5-.2c.5-.1-.4 0 .1 0h.5c.4 0-.3-.1.2 0l.4.1A2 2 0 0 0 45 130a2 2 0 0 0-1.4-2.4Z" class="b"/><path d="M79.8 141.5a19.9 19.9 0 0 1-6.5 9.3 17.2 17.2 0 0 1-10.5 3.3 18 18 0 0 1-11-3.2 19.4 19.4 0 0 1-6.6-9.3c-.8-2.4-4.7-1.3-3.9 1.1a22.1 22.1 0 0 0 14.8 14.6c7.2 1.8 15.3.7 21-4.4a24.4 24.4 0 0 0 6.5-10.4c.9-2.4-3-3.4-3.8-1ZM67.3 134.1a4 4 0 0 1 1-3.1 3 3 0 0 1 2-.9 3.2 3.2 0 0 1 2.7 1.3 4 4 0 0 1 0 4.6 3 3 0 0 1-4.2.6 3.4 3.4 0 0 1-1.5-2.5ZM51.7 134.1a4 4 0 0 1 1-3.1 3 3 0 0 1 2-.9 3.2 3.2 0 0 1 2.7 1.3 4 4 0 0 1 0 4.6 3 3 0 0 1-4.2.6 3.4 3.4 0 0 1-1.5-2.5ZM70.2 120.2a15.4 15.4 0 0 1 2 1.2c.1 0 0 0 0 0l.3.3a23 23 0 0 1 2.6 2.6l.6.7c.4.5-.1-.2 0 .1l.4.4 1 1.6 1 1.6.3.7c0 .2-.1-.3 0 0l.2.6a2 2 0 0 0 2 1.4h1.6a2 2 0 1 0 0-4h-1.7l2 1.5a24 24 0 0 0-4.4-7.3 18.5 18.5 0 0 0-5.9-4.8 2 2 0 1 0-2 3.4ZM44.8 130.5a43.8 43.8 0 0 1 4.5-5.1 39.5 39.5 0 0 1 4.2-3.5l.2-.2q.5-.2-.3 0l-1-.2-.3-.4a3.2 3.2 0 0 1 0 .4 4.6 4.6 0 0 0 0 1.2 2.9 2.9 0 0 0 1.3 1.8c1.5.9 2.8-.1 4-.9a64.8 64.8 0 0 1 7.1-4 2 2 0 0 0 .8-2.8 2 2 0 0 0-2.8-.7 43.4 43.4 0 0 0-4.4 2.4L56 120l-1 .6a4.7 4.7 0 0 0-.4.2c-.5.4-.4-.1.4.1l.9.6c.1 0 0 .9.2.3a3.1 3.1 0 0 0 0-.7 5 5 0 0 0-.4-1.6 2.6 2.6 0 0 0-2.8-1.6c-1.5.2-3 1.7-4.2 2.7a47.4 47.4 0 0 0-7.3 8 2 2 0 0 0 .7 2.7 2 2 0 0 0 2.7-.7Z" class="b"/></svg>