<svg xmlns="http://www.w3.org/2000/svg" width="800" height="800" viewBox="0 -17.2 306.5 306.5"><defs><style>.a{fill:#fff}.c{fill:#211715}</style></defs><path d="M304.4 190.5V145c-54-31-135.1-77.9-172-99.2L2.1 121v49.1c33.2 19.2 120 69.4 173.3 100 38-21.7 99.9-57.5 129-74.4v-5.2Z" class="a"/><path d="M131.7 46.2A61237 61237 0 0 1 2.4 120.8l172.3 99.4c33.5-19.2 106.8-61.6 129.6-74.8v-.4L132.4 45.8Z" style="fill:#f4c058"/><path d="M306.4 190.5v-24.2c0-7-.2-14.2 0-21.3a2 2 0 0 0-1-1.7L234 102.2l-70.7-40.9L133.4 44a2 2 0 0 0-2 0L84 71.5l-55.7 32.2L1 119.3a2 2 0 0 0-1 1.7l.1 34.7v8.5a38.7 38.7 0 0 0 0 6.2c.3 1.3 1.8 1.9 2.9 2.5l2.7 1.6 6 3.5 30.4 17.5 37.3 21.6 39.7 22.9 38.2 22c5.6 3.3 11.2 6.8 17 9.8 1.7.9 3.3-.6 4.8-1.4l4.2-2.4 8.8-5.1 39.4-22.7 39.5-22.8 32.3-18.7c1.1-.7 2.8-1.3 3-2.7a34.2 34.2 0 0 0 .1-5.5c0-2.6-4-2.6-4 0v5.2l1-1.7-45.7 26.4-55.4 32-27.9 16h2l-72.8-42L31.7 185 3.1 168.4l1 1.7v-49l-1 1.6 51.2-29.4 54.6-31.6 24.5-14.2h-2l59.2 34.2q37 21.5 74.2 42.8l38.5 22.3-1-1.8v21.3l.1 24.2c0 2.6 4 2.6 4 0Z" class="c"/><path d="m173 220 .1 41.5v8.4c0 2.6 4 2.6 4 0V220c0-2.5-4-2.5-4 0Z" class="c"/><path d="m3.4 123.7 24.3 14 34 19.7 38.7 22.3 38.1 22 32.3 18.5 3.3 2c2.2 1.2 4.2-2.2 2-3.5l-31.2-18-37.6-21.6-39-22.5-34.9-20.2-25.7-14.9-2.3-1.3c-2.2-1.3-4.2 2.2-2 3.5ZM175 235.2l-26.8-15.5-32.7-18.9-33.8-19.5-30.4-17.6-22.4-12.9-2-1.1c-2.2-1.3-4.2 2.1-2 3.4l21 12.2 29.8 17.2 33.6 19.4 33 19 28 16 2.8 1.7c2.2 1.3 4.2-2.2 2-3.4ZM164.1 245l-26-15c-2.2-1.3-4.2 2.2-2 3.5l26 15c2.2 1.3 4.3-2.2 2-3.5Z" class="c"/><path d="M249.4 233.1 223 248.3l-27-15.5 26.5-15.2c9 5.2 20.7 12 27 15.5Z" style="fill:#ea6d67"/><path d="m196 234.8-1-.2 25.2 14.4a8 8 0 0 0 2.6 1.3c1 .1 1.9-.6 2.7-1l4.7-2.8 10.8-6.2 9.4-5.5a2 2 0 0 0 0-3.4l-26.9-15.5c-2.2-1.3-4.2 2.1-2 3.4l27 15.5v-3.4L222 246.6h2l-13.2-7.6-7.4-4.2-3.6-2.2c-1-.6-2.5-1.8-3.7-1.8-2.6 0-2.6 4 0 4Z" class="c"/><path d="m286.8 178.2-37 21.3-49.6 28.7-25.7 14.7c-2.3 1.3-.3 4.8 2 3.5l47.4-27.3 47-27.1 18-10.4c2.2-1.3.1-4.7-2-3.4ZM175.9 221.8l52-30 56.2-32.4 21.2-12.3c2.3-1.3.3-4.7-2-3.4L259 169.3l-58.3 33.6-26.8 15.4c-2.3 1.3-.2 4.8 2 3.5Z" class="c"/><path d="M262.2 117.2v-34l-128.4-74-97.3 56.1V102L166 176.7l96.3-55.6v-3.9Z" class="a"/><path d="M132.1 10.2 36.5 65.3V102l49.7 28.7v-37c41.8-24.2 77-44.6 97-56A58957 58957 0 0 1 133.7 9Z" style="fill:#8ac46e"/><path d="M264.2 117.2c0-11.3-.3-22.7 0-34a2 2 0 0 0-1-1.7L210 50.8l-52.8-30.5L135 7.4a2 2 0 0 0-2 0L97.2 28 55.8 51.9 35.5 63.6a2 2 0 0 0-1 1.7v32.5c0 1.4-.2 3.3.1 4.7.4 1.5 3.2 2.5 4.5 3.2l4.6 2.7 50.6 29.2 58 33.5 6.6 3.8 3 1.8a24.8 24.8 0 0 0 3.3 1.8c1.3.5 2.5-.6 3.6-1.2l3.4-2 6.7-3.8 29.3-16.9 53.6-31c1-.6 2.3-1 2.4-2.5v-4c0-2.5-4-2.5-4 0v4l1-1.8-34 19.7-41.5 24-20.8 12h2l-54.2-31.4-53.7-31-21.4-12.4 1 1.8V65.3l-1 1.7 38.2-22 40.7-23.5L135 10.9h-2L177 36.4l55.4 32L261.2 85l-1-1.8c-.3 11.3 0 22.7 0 34 0 2.6 4 2.6 4 0Z" class="c"/><path d="M163.7 139.2v25.4c0 2.6 4 2.6 4 0v-25.4c0-2.5-4-2.5-4 0Z" class="c"/><path d="m167 138-45.4-26.2-49-28.3L54 72.8c-2.2-1.3-4.2 2.1-2 3.4l38.7 22.4 51 29.4 23.4 13.5c2.2 1.2 4.2-2.2 2-3.5Z" class="c"/><path d="m166.6 141 32.8-19 35.3-20.3 13.5-7.8c2.3-1.3.3-4.8-2-3.5l-28 16.2-36.6 21.1-17 9.8c-2.3 1.3-.3 4.8 2 3.5ZM87.3 95.4l44-25.4 35.6-20.6 15.2-8.9c2.2-1.2.2-4.7-2-3.4l-29.5 17-39.7 23-25.6 14.8c-2.2 1.3-.2 4.7 2 3.5Z" class="c"/><path d="M84.2 93.7v34c0 2.6 4 2.6 4 0v-34c0-2.6-4-2.6-4 0Z" class="c"/><path d="M147.5 94.4a15.8 15.8 0 0 1-1.6 6.2c-2 3.9-5.9 6.6-9.9 8.3s-4.6 1.2-8.8 2.5c-3.2 1-6.6 2.5-8 5.8a19.3 19.3 0 0 0-1 5.3c-.4 6.7-.3 13.7-.4 20.7a2.3 2.3 0 0 1-1.6 2.2 32.1 32.1 0 0 1-14.6.8 3 3 0 0 1-1.3-1 4 4 0 0 1-1.1-1.8c-.4-3.1-.6-6.1-.7-9.2-3.5.8-7.5 2.1-11.2 1.2-2.6-.6-5-2.6-5.4-5.2l-.3-2.2c-.6-10.6-1.2-9.3-1.7-19.9-.2-3.5-.4-7.3 1.2-10.5a17.8 17.8 0 0 1 5.7-5.9 69 69 0 0 1 14.5-8.1s39.5 9.5 46.2 10.8Z" style="fill:#a0a0a0"/><path d="m139.4 98 8.1-4.5c4.7-2.8 9.3-6.4 10.2-11.2a20.1 20.1 0 0 0 0-6.3c-1-7.4-2.7-16.8-7.3-22.8A39.2 39.2 0 0 0 139 42.4s-7.5-3.6-14.8-4c-11.6-.8-17.6 4.2-17.6 4.2a35.3 35.3 0 0 0-13.2 20.8l-2 11.7-.8 4.2ZM92.6 155.7a7.4 7.4 0 0 1 1.5-6 18.2 18.2 0 0 1 5.4-4.4c2.1 1.6 10.6 2 16.7 0a2.2 2.2 0 0 0 .6-.2l.1 1.1c.7 5.8-2.8 8.2-5 9.5a33.6 33.6 0 0 1-8.6 3.6 14 14 0 0 1-5.5.5 6.4 6.4 0 0 1-4.6-2.8 5 5 0 0 1-.6-1.3ZM74.8 143.1a8 8 0 0 1 1.1-2.1 19.3 19.3 0 0 1 5.9-4.6 9.9 9.9 0 0 1 3.8-1.6 8.2 8.2 0 0 0 1.7.6c3.7 1 7.7-.4 11.2-1.2 0 2.2.2 4.4.4 6.6l-1.6.3c.2 2.5-2 4.4-4.2 5.7a32.5 32.5 0 0 1-8.2 3.5 13.3 13.3 0 0 1-5.4.5 6.2 6.2 0 0 1-4.5-2.7 5.8 5.8 0 0 1-.2-5Z" class="a"/><path d="M107.3 23a23 23 0 0 0 5.4 16 19.9 19.9 0 0 0 28 2.1 11.5 11.5 0 0 0 7.6-2.4 7.3 7.3 0 0 0 2.8-6.5 5.3 5.3 0 0 0-3.1-3.9 19 19 0 0 0-6.6-22.2A21.7 21.7 0 0 0 112.6 9a22.5 22.5 0 0 0-5.3 14Z" class="a"/><path d="M110.1 12.5a22.7 22.7 0 0 0-2.6 7.5 38 38 0 0 0 15.7-1.9 1 1 0 0 1 .8 0c.7.4 0 1.8-.4 2.5 2.2.6 7.7-.4 10.1-1.8 1.4 3.3 2.7 5 5.4 6.2l7 2.9a5 5 0 0 1 1.9.4 19 19 0 0 0-6.6-22.2A21.7 21.7 0 0 0 112.6 9a20.5 20.5 0 0 0-2.5 3.5Z" class="a"/><path d="M115 146.2a7.2 7.2 0 0 1-2.7 6.8 27.8 27.8 0 0 1-9.5 4.4c-2.8.7-8.3 1.2-8.3-3 0-3.9 3.8-6 6.7-7.8 2.2-1.3.2-4.7-2-3.4-3.4 2-6.8 4.2-8.2 8a7.6 7.6 0 0 0 3.4 9.6c3.9 2 8.4 1 12.3-.5a28.6 28.6 0 0 0 8.7-4.6 10.7 10.7 0 0 0 3.5-9.4 2 2 0 0 0-2-2 2 2 0 0 0-2 2Z" class="c"/><path d="M84.8 133a16 16 0 0 0-5 2.2 24 24 0 0 0-4.1 3c-2.5 2.4-4 6-3 9.5 1.1 3.5 5 5.3 8.5 5.2a27 27 0 0 0 11.1-3.4c3.3-1.7 7-4.2 7-8.4 0-2.6-4-2.6-4 0 0 3-4.3 4.7-6.5 5.7a29.4 29.4 0 0 1-4.9 1.7 8.9 8.9 0 0 1-5.2 0c-2.9-1-2.8-4.2-1.2-6.4a13.3 13.3 0 0 1 3.8-3 14.6 14.6 0 0 1 4.6-2.3c2.5-.5 1.4-4.4-1-3.9Z" class="c"/><path d="M100.7 81.7a70.4 70.4 0 0 0-15.9 9 17.5 17.5 0 0 0-5.7 6.7 20.2 20.2 0 0 0-1.3 8.8c.1 4.3.5 8.6 1 12.9.5 3.8.5 7.8 1.2 11.6a8.6 8.6 0 0 0 5.2 6.1c3.4 1.5 7 1 10.5.1 2.5-.5 1.5-4.4-1-3.8-3.8.8-10 1.5-10.9-3.6-.5-3.4-.5-6.9-1-10.3l-1-10.8a26.6 26.6 0 0 1 .3-7.7 11.4 11.4 0 0 1 4.2-6 59.9 59.9 0 0 1 15.5-9.2 2 2 0 0 0 1.4-2.4 2 2 0 0 0-2.5-1.4Z" class="c"/><path d="M100.3 101c-3.4 2.3-4.3 6-4.3 10l.2 12c.2 5.2.2 10.4.5 15.6.2 2.4 0 5.4 1.6 7.4 1.4 1.9 3.2 2.3 5.5 2.5a32.7 32.7 0 0 0 6.6 0 25.4 25.4 0 0 0 6.7-1.3c2.6-1 2.7-3.5 2.7-6V133l.2-8.2a21.1 21.1 0 0 1 1-6.5c1.2-3.7 6-4.8 9.3-5.7 4.3-1 8.5-2.4 12.1-5a17.7 17.7 0 0 0 7.1-14c.1-2.6-3.9-2.6-4 0a13.5 13.5 0 0 1-5.2 10.5 24.3 24.3 0 0 1-9.7 4.4c-3.5.8-7.3 1.8-10.2 4-3.3 2.6-4 6.5-4.3 10.5-.3 5-.2 9.9-.3 14.9v3.6a6.5 6.5 0 0 1 0 1.7c-.1.3 0 .2-.3.3a10.3 10.3 0 0 1-2.8.7 29 29 0 0 1-3.1.4 32 32 0 0 1-5.8 0 4.8 4.8 0 0 1-1.8-.5c-1-.5-1-1.6-1-2.5-.5-4.7-.6-9.5-.7-14.2 0-4.5-.3-9-.3-13.4v-5.5c.1-.4 0 0 .1-.1a9.2 9.2 0 0 1 .4-1.6 5.2 5.2 0 0 1 1.8-2.4c2.1-1.5.1-5-2-3.4ZM105.5 40.8a37.6 37.6 0 0 0-14.1 22c-.6 2.5 3.3 3.6 3.8 1a33.4 33.4 0 0 1 12.3-19.5 2 2 0 0 0 .7-2.7 2 2 0 0 0-2.7-.8Z" class="c"/><path d="M93.2 83.6c-2.2-1.4-3.1-3.7-3.5-6.2-.4-2.8 0-6.4 4.1-7.4a5.8 5.8 0 0 1 4.3.8 8 8 0 0 1 3.9 7.7c-.3 3.3-3.4 6.3-6.7 5.8a5.3 5.3 0 0 1-2-.7Z" class="a"/><path d="M94.2 81.9a4.8 4.8 0 0 1-1.2-1.1c.2.2 0-.2 0-.2l-.3-.5-.2-.3-.2-.3a10.9 10.9 0 0 1-.5-1.8l-.1-.5v-.9a11 11 0 0 1 0-1.4c0-.4 0 0 0 0v-.3c0-.3.2-.6.3-.8l.1-.3.2-.3a7.3 7.3 0 0 1 .5-.6c.2-.2-.4.3 0 0l.6-.3.3-.2c-.3.2 0 0 0 0a8.1 8.1 0 0 1 1-.2h.3a5.7 5.7 0 0 1 .8 0 4 4 0 0 1 1.6.9s.3.2.1 0l.3.3a9 9 0 0 1 .8.8 5.3 5.3 0 0 1 1.3 2.5v.6a9 9 0 0 1 0 1v.5c0-.1.1-.4 0 0a8.1 8.1 0 0 1-.2 1c-.2.6 0-.1 0 .2l-.4.6a2.5 2.5 0 0 1-.5.6 6.6 6.6 0 0 1-.7.7c.2-.2 0 0 0 0l-.6.4a3.4 3.4 0 0 1-1.4.4 3.1 3.1 0 0 1-1.9-.5 2 2 0 0 0-2 3.4c3.7 2.2 8 .7 10.4-2.7a9.5 9.5 0 0 0 0-10.2c-2-3-5.8-5.3-9.5-4.3a7.5 7.5 0 0 0-5.5 7.1c-.2 3.9 1.3 8 4.6 10.1a2 2 0 0 0 2-3.4ZM106 57.2v22.3c0 2.6 4 2.6 4 0V57.2c0-2.6-4-2.6-4 0Z" class="c"/><path d="M107.4 83.3c-6.2 1-12.4 3.4-21.5 5 5.6 2.6 16.1 7.8 26.2 12.8 8.7-3.5 11.2-4.2 16.7-6.2-9.2-4.8-21.4-11.6-21.4-11.6Z" class="a"/><path d="M106.9 81.3c-7.3 1.3-14.3 3.8-21.5 5-1.7.3-2 3-.5 3.7l17.7 8.6 5.3 2.7 2.7 1.3a3.2 3.2 0 0 0 3.1 0q4.1-1.7 8.3-3.2l7.3-2.6c1.5-.6 2.1-2.8.5-3.7-4.8-2.4-9.5-5-14.1-7.5-2.4-1.4-4.8-2.9-7.3-4-2.3-1.2-4.3 2.3-2 3.4 2.5 1.2 4.8 2.7 7.2 4l14.1 7.6.5-3.7c-5.5 2.1-11.2 4-16.7 6.3l1.6.2c-8.7-4.4-17.4-8.7-26.2-12.9l-.5 3.7c7.3-1.3 14.3-3.7 21.5-5a2 2 0 0 0 1.4-2.5 2 2 0 0 0-2.4-1.4Z" class="c"/><path d="M123.5 92.5c.6-4.7 5.6-8.7 12-6 1 3 2.7 7.5 3.7 11.3l-2.6 2.1c-2 2.5-6.7 2-9.1.6a8.2 8.2 0 0 1-4-8Z" class="a"/><path d="M134.8 84.2a10.9 10.9 0 0 0-8 .6A10 10 0 0 0 122 90c-2 5.2 1.1 11 6.2 13 3.1 1 7.4 1 9.7-1.8a2 2 0 0 0 0-2.8 2 2 0 0 0-2.8 0l-.3.3c-.1.1-.4.3 0 .1a5.3 5.3 0 0 1-.8.4s-.4.2 0 0l-.4.2a6.6 6.6 0 0 1-.9.2c.4 0 0 0 0 0h-1.4s-.5 0 0 0h-.5a10 10 0 0 1-1-.3l-.7-.3-.4-.2a6.6 6.6 0 0 1-.6-.4c-.5-.3.1.2-.1 0a11.3 11.3 0 0 1-1.2-1.2l-.2-.2-.1-.2-.2-.2a7.8 7.8 0 0 1-.4-.8l-.2-.3s.2.4 0 0l-.2-.7v-.5l-.1-.2V94a10.5 10.5 0 0 1 0-1.3v-.2a8 8 0 0 1 .2-.8l.2-.5c.1-.4-.2.2 0 0l.1-.3.3-.5c.1-.2.6-.8.2-.4a8.3 8.3 0 0 1 .9-.9l.3-.3c-.2.2.1 0 .2 0 0-.2.2-.2.3-.3l.7-.4s.4-.2.1 0l.3-.1a7.9 7.9 0 0 1 .7-.2l.4-.1a12.7 12.7 0 0 1 1.8 0s.4 0 0 0h.5l1 .3a2 2 0 1 0 1.1-3.8Z" class="c"/><path d="M141 70.1c-.1-.5 0-.2 0 .1v.8a94 94 0 0 1 .2 8.1v.4c0 .5-.2 0 0 0-.2 0-.8.6-1 .8l-6 5a2 2 0 0 0-.6 1.9c1.3 3.8 2.7 7.5 3.8 11.4a2 2 0 0 0 2.9 1.2c8.3-4.7 19.9-9.4 19.6-20.6a65.4 65.4 0 0 0-2.3-14.7A35.4 35.4 0 0 0 152 52a38.7 38.7 0 0 0-12-11.2c-2.3-1.2-4.3 2.3-2 3.5 3.8 2 7 5.3 9.7 8.6a30.5 30.5 0 0 1 5.6 10.9 75 75 0 0 1 2.5 12.5c.3 2.4.5 5-.4 7.3a13.1 13.1 0 0 1-3.5 4.5c-4 3.6-9 5.8-13.5 8.3l3 1.2c-1.1-3.8-2.6-7.6-3.8-11.4l-.5 2 6.4-5.3c1.5-1.2 1.7-2.3 1.8-4.2a53.7 53.7 0 0 0-.4-9.5 2 2 0 0 0-2.4-1.4A2 2 0 0 0 141 70Z" class="c"/><path d="M150.2 28a21.1 21.1 0 0 0-7-23 24.3 24.3 0 0 0-23.6-3.3 23.5 23.5 0 0 0-14.2 19.7 24.6 24.6 0 0 0 10 22.7c8.2 5.7 20 4.7 27.2-2.1 2-1.8-1-4.6-2.8-2.8a18.2 18.2 0 0 1-20 2.8 20 20 0 0 1-10.6-18c0-7 3.4-14 9.6-17.5a20.1 20.1 0 0 1 19.6.1 17.2 17.2 0 0 1 8 20.3c-.8 2.5 3 3.5 3.8 1.1Z" class="c"/><path d="M146.2 29.9c.4 0-.2-.1.2 0l.5.1.2.1c.2 0 .3.2.5.3 0 0 .5.3.2 0a5 5 0 0 1 .4.5 4.6 4.6 0 0 1 .4.4c-.3-.3 0 .1 0 .2a4.5 4.5 0 0 1 .4.5c-.2-.4 0 .1 0 .2a4.2 4.2 0 0 1 .1.5V33.8l-.3 1.1a6.8 6.8 0 0 1-1.1 1.6A5.9 5.9 0 0 1 146 38a8 8 0 0 1-2.2.9 11.6 11.6 0 0 1-1.3.2q-.2 0 0 0a8.6 8.6 0 0 1-1 .1 2 2 0 0 0 0 4c4.7-.1 9.6-2.7 11.2-7.4a7.5 7.5 0 0 0-.7-6.5 7.6 7.6 0 0 0-5.8-3.3 2 2 0 0 0-2 2 2 2 0 0 0 2 2ZM119.9 30.3a3.2 3.2 0 0 1-1.3 2.4 2.5 2.5 0 0 1-1.8.3 2.8 2.8 0 0 1-2-1.5 3.2 3.2 0 0 1 .8-3.7 2.6 2.6 0 0 1 3.4.2 2.8 2.8 0 0 1 .9 2.3ZM132 32.8a3.2 3.2 0 0 1-1.3 2.4 2.5 2.5 0 0 1-1.8.3 2.8 2.8 0 0 1-2-1.5 3.2 3.2 0 0 1 .8-3.7 2.6 2.6 0 0 1 3.5.2 2.8 2.8 0 0 1 .8 2.3ZM131.8 19.4a17.4 17.4 0 0 0 2.7 4.7 10.6 10.6 0 0 0 3.6 2.7 2.2 2.2 0 0 0 1.5.2 2 2 0 0 0 .5-3.7 10.5 10.5 0 0 1-2-1.1l.5.3a8.8 8.8 0 0 1-1.6-1.6l.3.4a15 15 0 0 1-1.7-3.2l.2.5-.2-.3a2.2 2.2 0 0 0-.9-1.2 2 2 0 0 0-2.7.7 2 2 0 0 0-.2 1.5Z" class="c"/><path d="M132.7 17.1a14.5 14.5 0 0 1-8.6 1.5l1.2 3c.8-1.4 1.6-3.3.3-4.7-1.5-1.6-3.6-.4-5.3 0a37.8 37.8 0 0 1-12.1 1.1c-2.6 0-2.6 4 0 4a43.4 43.4 0 0 0 8.1-.2l3.8-.7 2-.5a26.7 26.7 0 0 0 1.4-.5l-.9-.5.2.1-.5-.8c-.2-.5.1-.5 0 0l-.5.6a2 2 0 0 0 1.2 3 14.5 14.5 0 0 0 6-.1 19.3 19.3 0 0 0 5.7-1.8c2.3-1.2.3-4.7-2-3.5Z" class="c"/></svg>