<svg xmlns="http://www.w3.org/2000/svg" width="800" height="800" viewBox="-13.3 0 334.6 334.6"><defs><style>.a{fill:#fff}.b{fill:#211715}</style></defs><path d="M156 133.2a4.4 4.4 0 0 1 1.5-.9 42.4 42.4 0 0 0 17-11.7c2.6 2.4 3.6 4.3 5.1 7.3-3.7 14.8-9.7 30.4-14.4 44.6l-10.7 31.7-10.7-31.7c-4.9-14.3-11-30.1-14.6-45a21.2 21.2 0 0 1 4.8-6.9c2.9 3.8 9.3 8.6 17 11.7a4.4 4.4 0 0 1 1.6.9Z" class="a"/><path d="m149.5 189.5-4.7-14 3.5-27.9c0-.8-1.2-5.9-1.5-7.6v-.1a77 77 0 0 0 1.6-1.8c2.3-2.5 3.6-3.6 3.8-4 .2-.3.6-.6.4-1h3.4c-.2.4.2.7.3 1 .3.4 1.6 1.5 3.8 4a98 98 0 0 0 1.8 1.8l-.3 1c-.2.9-1.7 5.6-1.7 7l4 28-9.5 28.3ZM155.6 260.6c-9.7-6.1-21.2-8-32.7-7.1-11.4.8-26 2.1-35 6.7-3.5 16-10.3 55-13.2 70.5 26.8-6.7 59-6.7 80.9 2 22.2-8.6 52.5-8.6 80.9-2-3-15.5-9.8-54.5-13.2-70.5-9.1-4.6-23.2-6.6-34.6-7.4a57.2 57.2 0 0 0-33.1 7.8Z" class="a"/><path d="M194.6 66a6.5 6.5 0 0 1 4.8-1.8 6 6 0 0 1 5.4 3c1.8 3.2 1.8 9.1.5 12.8-.9 2.6-2.3 6.5-5.8 9.4a7.2 7.2 0 0 1-5.5 1.5h-.6l-1.6 4.7a52.4 52.4 0 0 1-17.3 21.2v3.8a42.4 42.4 0 0 1-17 11.7 4.4 4.4 0 0 0-1.5.9h-3.4a4.4 4.4 0 0 0-1.5-.9 42.4 42.4 0 0 1-17-11.7V117a38.5 38.5 0 0 1-10.5-9.1 44.2 44.2 0 0 1-9.3-17 7.1 7.1 0 0 1-5.8-1.6 19.7 19.7 0 0 1-5.8-9.3c-1.2-3.7-1.3-9.6.6-12.8a6 6 0 0 1 5.4-3 6.5 6.5 0 0 1 4.7 1.7s-7.3-42.2 40.7-42.2 40.5 42.2 40.5 42.2Z" class="a"/><path d="M169.1 147.5a81 81 0 0 0 9.6-14l2-3.8a5.7 5.7 0 0 0 .7-2.2 4.8 4.8 0 0 0-.8-2 23.5 23.5 0 0 0-4.7-6.3 2 2 0 0 0-3.1.4 27.6 27.6 0 0 1-6.8 6 51.5 51.5 0 0 1-5 3c-1.9.9-4 1.5-5.8 2.6-3.4 2.2.8 5.4 2.4 7.1 3 3 6 6 8.7 9.2 1.7 2 4.5-.8 2.8-2.8-2.2-2.6-4.6-5-7-7.4l-3-3.2-1-1-.2-.3-.2-.3.3 1v-.3l-.6 1.4c.6-.6 2-1 2.8-1.3l2.8-1.3a51.1 51.1 0 0 0 5.5-3.3 32.6 32.6 0 0 0 7.8-7l-3.2.3a22.9 22.9 0 0 1 4.6 6.5v-2a80.7 80.7 0 0 1-11.4 18.2c-1.7 2 1.2 4.8 2.8 2.8Z" class="b"/><path d="M142.3 144.7a80.6 80.6 0 0 1-11.4-18.2v2a22.8 22.8 0 0 1 4.6-6.5l-3.2-.4a32.6 32.6 0 0 0 7.7 7 50.8 50.8 0 0 0 5.4 3.3l3 1.4c.8.4 2.2.7 2.8 1.3l-.6-1.4v.3l.3-1-.2.3-.3.3-.8.9-3.2 3.3c-2.3 2.5-4.8 4.8-7 7.4-1.6 2 1.2 4.8 2.9 2.8 2.7-3.1 5.6-6 8.5-9 1.6-1.8 6-5 2.5-7.3-1.6-1-3.7-1.7-5.5-2.6a51.6 51.6 0 0 1-5-3 27.9 27.9 0 0 1-7-6 2 2 0 0 0-3.2-.4 23.1 23.1 0 0 0-4.6 6.1 6.4 6.4 0 0 0-.8 2 4.2 4.2 0 0 0 .7 2.2l2 4a80.8 80.8 0 0 0 9.6 14c1.6 2 4.4-.8 2.8-2.8ZM148.9 149.5h10.7a2 2 0 0 0 0-4h-10.7a2 2 0 1 0 0 4Z" class="b"/><path d="M144.9 140.6c.2 1.4.6 2.7.9 4.1l.4 2 .1.8c.1.5 0-.4 0 0 0 1.6-.3 3.2-.5 4.7l-3 23.4a2 2 0 0 0 2 2 2 2 0 0 0 2-2l3-23.6a30.7 30.7 0 0 0 .5-4.5 20.6 20.6 0 0 0-.7-3.9l-.9-4c-.5-2.6-4.4-1.5-3.8 1ZM165.7 174l-3.3-22.4-.2-1.7-.1-.7v-.3a7.6 7.6 0 0 1-.2-1.3q0-.2 0 0l.1-.4.2-.8.5-2 .9-3c.6-2.5-3.2-3.6-3.9-1.1a52 52 0 0 0-1.7 7 19.5 19.5 0 0 0 .5 4.8c1 7.7 2.2 15.4 3.4 23a2 2 0 0 0 2.4 1.4 2 2 0 0 0 1.4-2.4Z" class="b"/><path d="m88.6 236-23.2 12c-9-3-20-18.5-18.3-28.1 1-5.7 3.2-10.8 5.2-15.8 3.5-8.8 11.3-26.3 14.8-32.9 2-3.7 4-7.7 6.1-11.4a39 39 0 0 1 16.3-15.4c9.8-5 22-9.5 31.5-13.8a43.1 43.1 0 0 1 7.5-6c3.6 15.7 10.1 32.6 15.3 47.9l10.6 31.7 10.7-31.7c5.2-15.3 11.7-32.2 15.3-47.8a43.5 43.5 0 0 1 7.6 6c8.2 4.3 18.5 8 27.6 12a41.1 41.1 0 0 1 19.1 17.9c2.2 4 4.3 8.5 6 12.2 3 7.3 14 34 17 44.4 1.2 4 1.7 9.4 0 13.8a82.3 82.3 0 0 1-9.2 17.8L214 237l4-3c2-2.7 5.5-11 4.8-14.4-2.3-4.3-6-10.8-9.7-15.4-.8 11.4-1.6 23.1-2.2 34.3H98.2c-.8-12.2-1.9-25.3-2.9-37.7l-.6.8a105.8 105.8 0 0 0-7.8 12c-2.5 5.2-1 5.8 2.4 10 1.7 2.2 3.8 5.1 6.2 8.8Z" style="fill:#5394cf"/><path d="M156.6 259c-10-6.4-22-8.4-33.7-7.5-10.6.7-21.8 1.5-32 5.2l-3.2 1.4a3.3 3.3 0 0 0-1.6 1.1 5.1 5.1 0 0 0-.4 1.5l-1 4.7-2.2 11.8a3780 3780 0 0 0-5.1 27.5c-1.5 8.5-3 17-4.7 25.5a2 2 0 0 0 2.5 2.4 160.6 160.6 0 0 1 31.9-4.6 139.2 139.2 0 0 1 31 1.8 94.3 94.3 0 0 1 14 3.6c1 .4 2 .9 3 1.1 1.1.3 2.7-.6 3.9-1q3.4-1.2 6.9-2a125.2 125.2 0 0 1 31.6-3.5 176.4 176.4 0 0 1 38.4 4.6 2 2 0 0 0 2.5-2.4c-3.1-16.4-6-33-9-49.3l-2.4-12.4-1-5.3c-.4-1.6-.4-4-2-4.8a56 56 0 0 0-14.8-4.9 145.7 145.7 0 0 0-16.6-2.4 66 66 0 0 0-19.2.6 65 65 0 0 0-18.9 7.2c-2.2 1.3-.2 4.7 2 3.5a57.6 57.6 0 0 1 26.5-7.7 94.7 94.7 0 0 1 13.3.8 123.6 123.6 0 0 1 13 2.2 56.4 56.4 0 0 1 13 4.3l-1-1.2c4.1 19 7.3 38.2 10.8 57.4l2.4 13 2.5-2.4c-21.5-5-44.3-6.7-66-2.5a94.4 94.4 0 0 0-16 4.4h1.1a105 105 0 0 0-30-6.4 159.8 159.8 0 0 0-33.4 1 164.6 164.6 0 0 0-18.6 3.5l2.5 2.4c3.6-19 6.9-38.1 10.5-57.2l2.7-13.2-1 1.2a70.8 70.8 0 0 1 24.3-5.7c9-1 18-1.8 27 .2a45 45 0 0 1 14.5 5.9c2.1 1.4 4.1-2.1 2-3.5Z" class="b"/><path d="m153.6 269.7-.1 48.8c0 2.5 4 2.5 4 0l.1-48.8c0-2.6-4-2.6-4 0Z" class="b"/><path d="M136.6 5a46.1 46.1 0 0 0-11.7 6.2 48 48 0 0 0-20.2 37.7 52.3 52.3 0 0 0 2 15.6 7.8 7.8 0 0 1 2-.3 6.5 6.5 0 0 1 4.7 1.7l6-4.7c5-5.4 13.7-13.7 19.7-16.9.8-.4 1.7.1 2 1.3a7.8 7.8 0 0 1 .1 2.9 1.5 1.5 0 0 0 2.2 1.6c4.3-2.4 12-7.3 17.5-9.6a16 16 0 0 1 8.8 1.4 26 26 0 0 1 6.9 4.4c5 4.2 9.6 10 11.7 15.3l6.3 4.3a6.5 6.5 0 0 1 4.8-1.7 8 8 0 0 1 1.9.3 50.3 50.3 0 0 0 1.8-15.6 47 47 0 0 0-19.9-37.5A48.6 48.6 0 0 0 154 2a50.9 50.9 0 0 0-17.3 3Z" style="fill:#7a7473"/><path d="m97.2 231.4-6-8.7c-1-1-2-2.1-2.7-3.3a2.8 2.8 0 0 1-.8-2.1c.3-2.5 2.3-5.1 3.6-7.2 1.6-2.6 3.3-5 5.1-7.5a2 2 0 0 0-.7-2.8 2 2 0 0 0-2.8.8c-1.9 2.5-3.7 5.2-5.4 8-1.5 2.5-3.4 5.3-3.8 8.3-.3 3 1.8 5.2 3.6 7.4 2.3 2.9 4.4 6 6.5 9.1 1.4 2.1 4.9.1 3.4-2ZM61.5 219.9a50.2 50.2 0 0 1 17-1.2 2 2 0 0 0 2-2 2 2 0 0 0-2-2 53.5 53.5 0 0 0-18 1.3c-2.5.6-1.5 4.5 1 3.9ZM212.1 206a70.1 70.1 0 0 1 5.4 8l2.3 4.2 1 1.7.2.4v-.2a5.2 5.2 0 0 1 0 .7 20.4 20.4 0 0 1-1.7 6.5 24.3 24.3 0 0 1-2.9 5.7l.7-.7-2.5 1.9a2 2 0 0 0-.7 2.7 2 2 0 0 0 2.7.7 14.5 14.5 0 0 0 3.5-3 22.5 22.5 0 0 0 1.8-3.2 33 33 0 0 0 3-9 6.7 6.7 0 0 0-.4-4l-2.7-5a81.9 81.9 0 0 0-6.8-10.1 2 2 0 0 0-2.9 0 2 2 0 0 0 0 2.8ZM231.5 220.2c-.6.3 0 0 .1 0l.5-.2 1-.2.6-.1q.4 0 0 0h.3l1.2-.2a48.5 48.5 0 0 1 5 0 2 2 0 0 0 2-2 2 2 0 0 0-2-2c-3.5-.1-7.4-.2-10.7 1.2a2 2 0 0 0-.7 2.8 2 2 0 0 0 2.7.7ZM2 240.7H52.6c2.6 0 2.6-4 0-4H1.9c-2.5 0-2.5 4 0 4ZM254.7 240.7H306c2.6 0 2.6-4 0-4H254.7c-2.6 0-2.6 4 0 4ZM113.2 240.6h93.1c2.6 0 2.6-4 0-4H113.2c-2.6 0-2.6 4 0 4Z" class="b"/><path d="m117.8 129.9-17.6 7.4c-5.5 2.3-11.2 4.6-16.1 8A41.5 41.5 0 0 0 72.5 157a159.6 159.6 0 0 0-8 15 452 452 0 0 0-11.6 25.4c-2 4.8-4.1 9.6-5.8 14.6a39 39 0 0 0-2.1 8.8 18.2 18.2 0 0 0 .6 6.1 37.7 37.7 0 0 0 7.6 14 28 28 0 0 0 11.7 9c2.4.9 3.4-3 1-3.8a23.7 23.7 0 0 1-9.2-7.3 35 35 0 0 1-6.7-11.2 17.6 17.6 0 0 1-1-5.7 26 26 0 0 1 1.5-7.4A499.8 499.8 0 0 1 74 162.4 39.5 39.5 0 0 1 84.3 150c5-3.8 11-6.3 16.6-8.7 6.3-2.7 12.6-5.2 18.9-8a2 2 0 0 0 .7-2.7 2 2 0 0 0-2.7-.7Z" class="b"/><path d="M91 172.2c1.2 16.4 2.7 32.8 4 49.3l1.1 14.6c.2 2.6 4.2 2.6 4 0-1.2-17-2.7-34-4-51.1l-1-12.8c-.2-2.6-4.2-2.6-4 0ZM188.9 133.4c5.5 2.7 11.3 5 17 7.4 5.2 2 10.5 4.1 15.2 7.4a38.7 38.7 0 0 1 10.7 11.3 111.3 111.3 0 0 1 7.3 14.8l.3.8.3.5.8 2 2 4.9 4.7 11.7c3 7.4 5.9 14.8 8.2 22.4a28 28 0 0 1 1.4 7.6 20.6 20.6 0 0 1-2 8.8 69.8 69.8 0 0 1-8 14.8 2 2 0 0 0 .6 2.7 2 2 0 0 0 2.8-.7 69.3 69.3 0 0 0 7.5-13.3 31.8 31.8 0 0 0 2.8-8.2 26.8 26.8 0 0 0-.2-8.8 68.4 68.4 0 0 0-3.2-10.6l-4.7-12.3q-4.3-11.2-9-22.2c-4-9.6-8.3-19.5-16.2-26.5a59 59 0 0 0-16.9-9.6c-6.5-2.7-13-5.2-19.4-8.3-2.3-1.1-4.4 2.3-2 3.4Z" class="b"/><path d="M213.2 172.1c-.9 16.5-2.1 33-3.2 49.4l-.8 14.7c-.2 2.5 3.8 2.5 4 0 .9-17.1 2.2-34.2 3.3-51.3l.7-12.8c.2-2.5-3.8-2.5-4 0ZM156.4 204.7l11-32.5c3.3-10 7-19.8 10.2-29.8 1.8-5.7 3.4-11.4 4.8-17.2l-3 1.2a40.1 40.1 0 0 1 7.3 5.9 42.4 42.4 0 0 1 3.3 3.6l1.2 1.7.5.8c0 .2.5.9.5.7l.2-1q.5-.4-.2 0l-.9.6-1.6.9-3.4 1.8a2 2 0 0 0-.4 3.2l4.7 4.4a11.2 11.2 0 0 1 2.1 2.1c.3.5.2-.2 0 .3a10.5 10.5 0 0 1-.7 1.7q-2.6 5.7-5.4 11.2c-3.6 7.2-7.6 14.3-11.7 21.3l-7.6 12.2c-1.4 2.2 2 4.2 3.5 2a350.6 350.6 0 0 0 25.4-46.4 4.5 4.5 0 0 0 .4-3.5 8.3 8.3 0 0 0-2.2-2.8 154 154 0 0 0-5.7-5.4l-.4 3.2 4.4-2.5c1.3-.6 3-1.2 3.4-2.7.6-2.2-2-5-3.3-6.6a45 45 0 0 0-11.3-10.1 2 2 0 0 0-3 1.2 309.7 309.7 0 0 1-9.3 30.5q-5.3 15.2-10.4 30.5l-6.3 18.4c-.8 2.5 3 3.5 3.9 1.1Z" class="b"/><path d="M141.7 197.7a338.5 338.5 0 0 1-24-43 17.1 17.1 0 0 1-1.5-3.3c0-.1-.2-.3-.2-.1l.5-.5 1.1-1.2 5.4-5a2 2 0 0 0-.4-3.2l-3.4-1.8-1.6-1-.9-.4q-.7-.5-.2 0l.2 1 .4-.6a20.3 20.3 0 0 1 1.7-2.5 41 41 0 0 1 3.4-3.8 40.1 40.1 0 0 1 7.3-5.9l-3-1.2a309.4 309.4 0 0 0 9.3 30.5l10.5 30.6 6.2 18.4c.9 2.4 4.7 1.4 3.9-1l-11-32.6c-3.4-10-7-19.8-10.2-29.8-1.8-5.7-3.4-11.4-4.8-17.2a2 2 0 0 0-3-1.2 45 45 0 0 0-11.3 10.2c-1.2 1.5-3.9 4.4-3.3 6.6.4 1.4 2 2 3.2 2.6l4.6 2.6-.4-3.2-5 4.8c-1.5 1.4-3.5 3-3.1 5.3a13 13 0 0 0 1.2 3l1.5 3 3 6.3q5.8 11.7 12.5 23 3.8 6.3 8 12.6c1.4 2.1 4.9.1 3.4-2ZM167.7 215.1a4.2 4.2 0 0 1 .4.4 1.1 1.1 0 0 1 .3.3l-.2-.2.1.2.3.5-.1-.3a.4.4 0 0 1 0 .2l.2.3a1.6 1.6 0 0 1 0 .6v-.2.9-.2a1.7 1.7 0 0 1 0 .6l-.2.3a.5.5 0 0 1 0 .2l.1-.3-.3.6a.9.9 0 0 1-.2.3l.2-.3-.1.2-.2.2-.2.1.2-.1-.6.3-.3.2.2-.1a1.9 1.9 0 0 0-.2 0 5.6 5.6 0 0 1-.7.3h-.3.3-.2a5.6 5.6 0 0 1-.7 0 1.5 1.5 0 0 1-.4 0h.3-.2a4.8 4.8 0 0 1-.7-.2h-.1s.4.1.2 0c0 0-.2 0-.3-.2s-.2 0-.3-.2c-.3-.1.3.3 0 .1 0-.2-.2-.3-.4-.5.4.4.2.2 0 0l-.1-.2-.1-.3c-.1-.1 0-.3 0 .2v-.1a5 5 0 0 1-.2-.6 1 1 0 0 1 0-.4v.3-.2a5.4 5.4 0 0 1 0-.6v-.3.3a.8.8 0 0 1 0-.2 5.4 5.4 0 0 1 .2-.6c0-.1.2-.5 0-.2l.4-.6c.2-.3-.3.3 0 0l.2-.2c.1-.2.5-.3 0 0l.3-.2.3-.2.2-.1c.3-.2-.4.1-.2 0a7 7 0 0 1 .8-.2h.1-.1.3a7.9 7.9 0 0 1 .9 0h-.3a.8.8 0 0 0 .2 0h.4l.4.2s.3.1 0 0c-.4-.2 0 0 0 0l.3.2c.2 0 .6.4 0 0a2.2 2.2 0 0 0 1.5.6 2 2 0 0 0 1.4-3.4 7.2 7.2 0 0 0-8.2-.6 7 7 0 0 0-3 7.3 6.4 6.4 0 0 0 1.9 3.4 6.7 6.7 0 0 0 4 1.7 6.9 6.9 0 0 0 6.8-3.6c1.3-2.7 1-6.2-1.5-8.2a2.2 2.2 0 0 0-1.4-.6 2 2 0 0 0-1.4 3.4ZM114.8 64.5a9 9 0 0 0-9.9-1.4 8.7 8.7 0 0 0-4.5 6c-1.5 6 0 12.8 3.4 17.9 2.2 3.4 5.8 6.5 10.3 6a2 2 0 0 0 2-2c0-1-1-2.2-2-2-3.7.4-6.1-2.5-7.7-5.4a20.2 20.2 0 0 1-2.5-8c-.2-2.5-.2-5.8 1.5-8 1.3-1.6 4.7-2 6.6-.2 1.9 1.7 4.7-1.2 2.8-2.9ZM196 67.3c2-1.6 5.4-1.3 6.7.3 1.6 2.2 1.6 5.5 1.4 8a20.3 20.3 0 0 1-2.4 8c-1.6 2.9-4 5.8-7.7 5.3a2 2 0 0 0-2 2 2 2 0 0 0 2 2c7.3 1 11.7-7.1 13.4-13 1.5-5 1.6-13-3.4-16.3a9 9 0 0 0-10.8 1c-1.9 1.6 1 4.5 2.9 2.7Z" class="b"/><path d="M192 88a24.9 24.9 0 0 1-1.4 4.8l-.6 1.8-.2.6-.1.2-.2.3-.2.6a39.3 39.3 0 0 1-2.3 4 50.6 50.6 0 0 1-10.8 12.8 20.3 20.3 0 0 1-8.1 4.2c-2.5.6-1.5 4.5 1 4a30.4 30.4 0 0 0 15.2-10.6 56 56 0 0 0 8.7-13 32.4 32.4 0 0 0 2.8-8.6 2 2 0 0 0-1.4-2.4 2 2 0 0 0-2.5 1.4ZM111.8 89a47.6 47.6 0 0 0 11 21.1c5.3 6 12 10.8 20 12a2 2 0 0 0 2.5-1.4 2 2 0 0 0-1.4-2.5 30 30 0 0 1-18.2-11 43.5 43.5 0 0 1-10-19.3c-.6-2.5-4.4-1.5-3.9 1ZM182.1 8.2a53.2 53.2 0 0 0-49.3-4 50.9 50.9 0 0 0-27.6 30.3 53.2 53.2 0 0 0-.6 30.1c.6 2.5 4.5 1.5 3.8-1a49.4 49.4 0 0 1 0-25.5 45 45 0 0 1 9.2-17.5A46.4 46.4 0 0 1 155 4a47.7 47.7 0 0 1 25 7.6c2.2 1.4 4.3-2 2-3.4ZM203.3 64.6a55.7 55.7 0 0 0 .7-24.8 48.2 48.2 0 0 0-8.2-18.9 50.2 50.2 0 0 0-7-7.6c-1.9-1.7-4.7 1-2.8 2.8a46.4 46.4 0 0 1 15.2 34.1 51.6 51.6 0 0 1-1.8 13.4c-.6 2.5 3.3 3.5 3.9 1ZM168.1 43.3a32.9 32.9 0 0 1 10.6 7.7 36.2 36.2 0 0 1 7.7 11.1 2 2 0 0 0 2.4 1.4 2 2 0 0 0 1.4-2.4 41 41 0 0 0-8.5-12.6 36 36 0 0 0-11.6-8.6 2 2 0 0 0-2.7.7 2 2 0 0 0 .7 2.7Z" class="b"/><path d="M120.9 62.6a91.2 91.2 0 0 1 16.4-14.9l2-1.2.6-.3-.9-.2.2.7c.2.9 0 1.8.1 2.7a3.5 3.5 0 0 0 1.6 2.3c1.7 1.1 3.3.2 4.9-.7l4.7-2.7a105.3 105.3 0 0 1 11.4-6 2 2 0 0 0 .8-2.8 2 2 0 0 0-2.8-.7 96.7 96.7 0 0 0-10.2 5.3l-5 2.9-1.9 1-.4.4c-.1-.8.9.2.8.2.2-.2.1-.9.1-1 0-2-.5-4.4-2.5-5.2-1.8-.7-3.3.5-4.8 1.4a70.7 70.7 0 0 0-8.8 7 119 119 0 0 0-9.1 9c-1.8 2 1 4.8 2.8 2.8ZM152.5 203.6a49.5 49.5 0 0 0-1.9 17.3 144 144 0 0 0 2.8 17.8c.5 2.5 4.3 1.4 3.8-1.1a135.4 135.4 0 0 1-2.6-16.7 44.3 44.3 0 0 1 0-7.5 50.4 50.4 0 0 1 1.8-8.7c.7-2.5-3.2-3.5-3.9-1Z" class="b"/><path d="M116.1 260.2c9.3-3.6.7-15.8-3-21-4.4-6.2-16-6.5-21.6-6.6-5 0-12.4.6-16.5 3.9-2.8 2.3-7 6-8.8 10.6a12.1 12.1 0 0 0-.5 1.4c-.8 2.6 2.6 9.5 4 13.9 1.2 3.4 2 6.9 3.6 10 2 3.8 9 12 13 6l1.7-2c4.4 3.4 9.6 5 11.5-2.3 2.5 1 5 .7 7.6-1.8Z" class="a"/><path d="M79.9 270.2a27.8 27.8 0 0 0 7 7.8c2.9 2.2 6.7 4.3 10.3 2.7 2-1 3.3-3.1 4-5.2a2 2 0 0 0-3.9-1.1 5.6 5.6 0 0 1-.5 1.3 6.8 6.8 0 0 1-.4.7c.2-.4-.2.1-.3.2l-.2.2-.5.3c-.2.2.3 0-.2 0-.1 0-.7.2-.1.1a6 6 0 0 1-1.2 0h-.3a8 8 0 0 1-1.2-.5l-.3-.1-1.2-.7a22 22 0 0 1-4.5-3.8l-1-1-.5-.6-.2-.3a18.5 18.5 0 0 1-1.4-2c-1.2-2.2-4.7-.2-3.4 2Z" class="b"/><path d="M87.3 264.7c2.5 3.7 5.3 7.5 9 10a10.3 10.3 0 0 0 6 1.9 9.5 9.5 0 0 0 6.2-3c1.9-1.7-1-4.5-2.8-2.8a7 7 0 0 1-2.1 1.5 4 4 0 0 1-1.9.3 8.1 8.1 0 0 1-1.7-.5 11.3 11.3 0 0 1-2.2-1.3c-2.8-2-5-5.2-7-8.2-1.5-2-5 0-3.5 2Z" class="b"/><path d="M84.6 277.4a2.1 2.1 0 0 1-2.8 1 10.3 10.3 0 0 1-3.8-2.9c-2.8-3-4.1-6.6-5.3-10.5-1.3-4.2-3.1-8.3-4.5-12.5a14.6 14.6 0 0 1-.6-2.5 2.7 2.7 0 0 1 .2-1.7 18 18 0 0 1 3.7-5.8c2.8-3.1 5.8-5.7 10-6.8a41.7 41.7 0 0 1 11.6-1c6.5.1 14.8.6 18.9 6.3a40.5 40.5 0 0 1 5.5 9.7 10 10 0 0 1 .8 4.5 4 4 0 0 1-2.7 3 2 2 0 0 0-1.4 2.5 2 2 0 0 0 2.4 1.4 8.7 8.7 0 0 0 4.8-3.9 9.2 9.2 0 0 0 .7-5.7c-.6-3.9-2.7-7.6-4.8-10.8a42.3 42.3 0 0 0-3.3-4.5 14.8 14.8 0 0 0-5.2-3.8 37.2 37.2 0 0 0-13-2.6 56.4 56.4 0 0 0-13 .5 23 23 0 0 0-7.2 2.4 26.2 26.2 0 0 0-5.6 4.6c-3.3 3.3-7.1 8-6.2 13a35.2 35.2 0 0 0 2.1 6.6 98 98 0 0 1 2.6 7.2 42 42 0 0 0 3.4 8.9 23 23 0 0 0 4 5 11.6 11.6 0 0 0 5.8 3.4c2.7.5 4.8-.8 6.4-3a2 2 0 0 0-.8-2.7 2 2 0 0 0-2.7.7Z" class="b"/><path d="M110.8 258c.8 1.5 10 18.6 14.1 25.7a2.9 2.9 0 0 0 4 1 2.9 2.9 0 0 0 1-3.7c-5.8-12-25.8-50.8-31-59.7-1-1.8-2.1-1.8-3.3-1.3a37.6 37.6 0 0 0-3.4 2c-1.2.8-1.6 1.7-1 2.9 2.9 5.2 7.4 12.2 10.9 17.5 2.9 4.6 6.2 10.9 8.7 15.7" class="b"/><path d="M111.9 260c2.2 3.2 3.9 6.4 6.4 9.3 2.2 2.6 4.6 4.8 4.6 6.5 0 4-2.8 4.9-6 2.8a55 55 0 0 1-7-5.3c-4.8-4.5-9.8-10.3-11.1-11.1" class="a"/><path d="M110.1 261c2.4 3.4 4.4 7 7 10a25.2 25.2 0 0 1 3.6 4.3 2.2 2.2 0 0 1-.2 2.2c-.6.5-1.9-.1-2.7-.6l-3.1-2.2a72.4 72.4 0 0 1-8.4-7.8c-2-2.2-4-4.8-6.5-6.5-2.2-1.4-4.2 2-2 3.5l-.2-.1.3.2.5.5 1.6 1.5 4 4.3a73 73 0 0 0 9.8 8.7c2.4 1.7 5.7 3.8 8.7 2a5.5 5.5 0 0 0 2.4-4.5c.1-2-.9-3.5-2-5-1.7-2-3.4-3.7-4.9-5.8l-4.4-6.7c-1.5-2-5 0-3.5 2Z" class="b"/><path d="m206 239-1 .7c-3.6 2.6-6.4 4.9-7.3 7a4.5 4.5 0 0 0 1.4 5.4l1.9 1-4.3 3.4c-2.5 2.1-4 4.6-3.5 6.5 1 3.1 4.2 2.8 5.7 2a24.4 24.4 0 0 0-2.3 2 4.8 4.8 0 0 0 .5 6.3c1.4 1.1 4.5.9 6.8-.6l2.5-1.8c-1.5 1.8-1.6 4.3.4 5.6 1.8 1.2 4.9.5 6.2-.2a93.2 93.2 0 0 0 8.3-5.1l4.6-2.9c1.6-1.7-.5 1.1-1.3 2.7a7.5 7.5 0 0 0-.6 2 3.1 3.1 0 0 0 .9 3c2 2.1 4.7-.5 7.4-2.2a33.6 33.6 0 0 0 6.3-4.7 24.7 24.7 0 0 0 6.8-12.1 16.3 16.3 0 0 0-.9-11.2 20.3 20.3 0 0 0-4.4-5.9c-2.6-2-8.4-3.6-11.2-3.9a54.3 54.3 0 0 0-11.9-.2c-4 .3-7.5.8-11 3.1Z" class="a"/><path d="M217 254.6h.1l-2-3.5c-3.8 2.8-7.8 5.4-11.7 8.1l-3.6 2.7c-1.7 1.2-3.9 2.5-5 4.3a6.9 6.9 0 0 0-.4 6.7 5.4 5.4 0 0 0 5 3c3.5.2 6-1.9 8.8-3.8a2 2 0 0 0 .7-2.7 2 2 0 0 0-2.8-.8c-1.6 1.2-3.3 2.8-5.3 3.2a4.6 4.6 0 0 1-2 .1l-.4-.1c.1 0-.3-.3 0 0a1.8 1.8 0 0 1-.5-.8 2.9 2.9 0 0 1 1-3.4c4.2-3.7 9.1-6.7 13.7-10l4.5-3a2 2 0 0 0 .7-2.8 2 2 0 0 0-2.7-.7 2 2 0 0 0-.7 2.7 2 2 0 0 0 2.7.7Z" class="b"/><path d="M198 263.3c-.5.2 0 0-.3 0l-.5.2h-.1a4.6 4.6 0 0 1-.7 0h-.2a3.7 3.7 0 0 1-.4-.1q.3 0 0 0a1 1 0 0 1-.4-.5 1.2 1.2 0 0 1-.3-1l.1-.3a2.6 2.6 0 0 1 .2-.5 10.5 10.5 0 0 1 2.5-3c4.4-3.9 9.6-6.7 14.2-10.4a2 2 0 0 0 0-2.8 2 2 0 0 0-2.8 0c-2 1.6-4.4 3-6.5 4.5a109 109 0 0 0-6.8 5.1c-2 1.7-4.1 3.7-4.7 6.3a5.6 5.6 0 0 0 2.5 6 6.4 6.4 0 0 0 6.2 0c2.2-1.3.2-4.8-2-3.5ZM220 258.4l-10.5 7.5c-2.8 2-6.6 4.4-6.2 8.4.5 4.6 5.6 5.5 9.3 4.3 3.6-1.1 6.7-3.8 9.9-5.8 3-1.8 6-3.5 8.8-5.5 2-1.5 0-5-2-3.5-2.3 1.6-4.6 3-7 4.4L215 273a13.9 13.9 0 0 1-4 2c-1 .2-2.8.4-3.4-.6-.7-1 .4-2.2 1.2-2.8l3.1-2.5 10.3-7.3c2.1-1.5.1-5-2-3.4Z" class="b"/><path d="M200.1 250.3a2.5 2.5 0 0 1-.5-3 11.4 11.4 0 0 1 2.9-3.2c2.7-2.3 5.6-4.6 9.1-5.5a40.6 40.6 0 0 1 10-1 43.2 43.2 0 0 1 9 .7 22.8 22.8 0 0 1 8 3 14.2 14.2 0 0 1 4.8 7c2 6.3-.9 13.3-5 18-2.7 3.1-6.2 5.2-9.6 7.4-.8.5-2.6 2-2.9.1-.2-1.5 1.3-3.3 2-4.5 1.4-2.2-2-4.2-3.4-2a15 15 0 0 0-2.5 5.3 5.4 5.4 0 0 0 2.4 5.5c1.9 1.2 4 .6 5.8-.5 1.9-1.1 3.7-2.4 5.5-3.7a27 27 0 0 0 12.3-21.3 18.4 18.4 0 0 0-4.1-11.5 17.2 17.2 0 0 0-9.2-5.8 43.5 43.5 0 0 0-11.1-1.7 48.1 48.1 0 0 0-12.3 1c-4.8 1-9.2 4.2-12.7 7.6-1.5 1.5-3 3.3-3.2 5.4a6.5 6.5 0 0 0 2.7 6.2c2.2 1.4 4.2-2 2-3.5Z" class="b"/><path d="M249.8 89.6a3.3 3.3 0 0 0 .4 1 6.9 6.9 0 0 0 2.8 2 62.6 62.6 0 0 0 9 3.5 5.4 5.4 0 0 0 3.2-1 6 6 0 0 0 1.1-1.5c1.7-3.2 5-11 4.5-12v-1.2a87 87 0 0 1-16.2-6.7l-.6 1a72.4 72.4 0 0 0-4.2 13.3 3.9 3.9 0 0 0 0 1.6Z" class="a"/><path d="m285.2 45 1.3 1.5a19.1 19.1 0 0 1 2 19.8A23.9 23.9 0 0 1 283 74a27 27 0 0 1-5.7 4.4 25.8 25.8 0 0 1-5.5 2.3 83.4 83.4 0 0 1-18.3-7.6c-3-2.9-4.4-9.6-4.2-13.3a26.9 26.9 0 0 1 1.5-7.8 22.8 22.8 0 0 1 4.6-7.5 19.6 19.6 0 0 1 10-6.1 22.5 22.5 0 0 1 12.5 1.2 20.6 20.6 0 0 1 7.3 5.3Z" style="fill:#ffda71"/><path d="M283.8 46.4a19 19 0 0 1 4.2 8.2 18.2 18.2 0 0 1-1.1 10.5 24.8 24.8 0 0 1-15.6 13.7h1a76 76 0 0 1-14.8-5.8 9.3 9.3 0 0 1-3.1-2 11.1 11.1 0 0 1-1.7-3 21.5 21.5 0 0 1 4.1-22c3.5-3.9 8-6.2 13.2-6a18.8 18.8 0 0 1 13.8 6.4c1.7 1.9 4.5-1 2.8-2.9-6.3-7-17-9.7-25.7-5.7a23.4 23.4 0 0 0-8.4 7 26 26 0 0 0-5.2 15.3 22 22 0 0 0 3.4 12.7c1.4 2 3.5 3 5.8 4.1a92.1 92.1 0 0 0 13.6 5.4 4.4 4.4 0 0 0 2.9.2 29.1 29.1 0 0 0 4-1.7 29.7 29.7 0 0 0 10-8.2 23.6 23.6 0 0 0 5.4-15 22.5 22.5 0 0 0-5.8-14c-1.7-2-4.5.8-2.8 2.8ZM252.2 84.7a146 146 0 0 0 14.6 5.5 2 2 0 1 0 1.1-3.8 139 139 0 0 1-13.7-5.2 2 2 0 0 0-2.7.7 2 2 0 0 0 .7 2.8Z" class="b"/><path d="M252.3 73.7a23.6 23.6 0 0 0-1.6 3.8l-1.7 5.2a38.1 38.1 0 0 0-1.2 5.2c-.4 2.8 1 4.8 3.5 6.1a53.5 53.5 0 0 0 5.4 2.4 22.5 22.5 0 0 0 5 1.7 6.3 6.3 0 0 0 5.6-2.4 22.3 22.3 0 0 0 2.4-4.5l2.3-5.9c.4-1.2 1.1-2.9.7-4.2-.7-2.5-4.6-1.4-3.8 1v-.3c0 .3-.1.1 0 0l-.1.4-.5 1.7a62 62 0 0 1-3.4 8 7.5 7.5 0 0 1-1 1.7c-.2.2.3-.2 0 0a4.6 4.6 0 0 1-1.4.5h-.1a2.2 2.2 0 0 1-.4 0l-.8-.3a40.1 40.1 0 0 1-6.8-2.7c-1.3-.6-2.9-1.2-2.6-2.8a37.3 37.3 0 0 1 1-4.2l1.7-5.3a18.3 18.3 0 0 1 1.2-3c1.3-2.3-2.1-4.3-3.4-2ZM279 66.3a10 10 0 0 0-2.7-6c-1.5-1.8-3.4-3.7-5.7-4-4.7-.9-9.1 3.3-7.6 8.1a6.3 6.3 0 0 0 4.4 4.2 5.6 5.6 0 0 0 3.2 0 7.2 7.2 0 0 0 3-2c3.3-3.8 1.5-8.8-2-11.6a9.6 9.6 0 0 0-14.5 1.5 2 2 0 0 0 0 2.8 2 2 0 0 0 2.8 0c1.8-2.3 4.4-3.7 7.3-2.4 2 1 4.6 3.3 4.2 5.6a3.5 3.5 0 0 1-2 2.4c.2-.1-.4 0-.4 0a4.5 4.5 0 0 1-.9-.3 3.1 3.1 0 0 1-1-.7 2.3 2.3 0 0 1 0-2.7 3 3 0 0 1 2.5-1.1c1.4 0 2.7 1.6 3.6 2.6a6 6 0 0 1 1.7 3.6c.1 2.6 4.1 2.6 4 0ZM154.2 84.9a37.3 37.3 0 0 1 1 4l-.2-.5a2.5 2.5 0 0 1 0 .6l.1-.6a1.3 1.3 0 0 1 0 .3l.2-.5a1 1 0 0 1-.1.2l.3-.4a.8.8 0 0 1-.1 0l.4-.2a2.6 2.6 0 0 1-.4.1l.5-.2a2.4 2.4 0 0 1-.5.2h.5a2.1 2.1 0 0 1-.5 0h.6l-.6-.1a2.2 2.2 0 0 0-1.6.2 2 2 0 0 0-.7 2.7 2 2 0 0 0 1.2 1l1.3.1a4 4 0 0 0 1.9-.4 2.7 2.7 0 0 0 1.5-1.8 4.5 4.5 0 0 0 0-2l-.9-3.8a2 2 0 0 0-3.9 1.1ZM167 76.3c0-2 .8-4.3 2.7-5.2a4.5 4.5 0 0 1 6.2 3.2c1 3-.6 7-4 7.3-2.8.1-4.9-2.7-4.8-5.3ZM132.7 76.3c0-2 .8-4.3 2.6-5.2a4.5 4.5 0 0 1 6.2 3.2c1 3-.5 7-4 7.3-2.7.1-4.8-2.7-4.8-5.3ZM155.2 97.5a5.8 5.8 0 0 0-5.5 3.2 6.7 6.7 0 0 0-.8 3.2 6 6 0 0 0 4.8 5.6 6 6 0 0 0 3.8-.6 5.4 5.4 0 0 0 2.4-2.4 7.4 7.4 0 0 0 .5-4.1 5.8 5.8 0 0 0-1.6-3.3 6 6 0 0 0-3.6-1.6 2 2 0 0 0-1.4.6 2 2 0 0 0 0 2.8 2.3 2.3 0 0 0 1.4.6c-.7 0-.1 0 0 0l.5.2c-.6-.2-.2 0 0 0l.2.2c-.4-.2-.2-.2 0 0l.3.2c.2.3-.3-.4-.1 0v.1c.2.1.2.3.3.4-.3-.4-.1-.3 0 0v.2l.1.5c-.1-.6 0 0 0 .1a5.6 5.6 0 0 1 0 .6v.1-.1a1.4 1.4 0 0 0 0 .3l-.1.4c0 .1-.2.2 0-.2l-.2.5c-.2.3.3-.4 0-.1l-.1.1-.2.3c-.3.2.4-.3 0 0l-.4.2s-.4.2 0 0 0 0-.1 0l-.5.2h.1-.6.2a2.7 2.7 0 0 0-.6-.2c.3 0 .4.2.1 0l-.2-.1-.3-.2.2.1-.2-.1-.4-.5c.1 0 .2.4 0 .1l-.1-.3a1.2 1.2 0 0 0-.1-.2v.3-.5c-.1-.2 0-.5 0 .1v-1c-.1.8 0 .2 0 0l.1-.5s-.2.5 0 .2l.1-.3.3-.5c.2-.3-.3.4 0 .1l.1-.2.2-.2c.2-.1.4-.2 0 .1l.4-.3s.4-.2 0 0 .1 0 .2 0l.2-.1c.5-.1-.4 0 0 0a5.9 5.9 0 0 1 .6 0 2 2 0 0 0 2-2 2 2 0 0 0-2-2ZM276.4 20.3l.1 6.4a2 2 0 0 0 4 0v-6.4a2 2 0 0 0-4 0ZM290.8 30.2q1.7-2.3 3.1-4.6a2 2 0 1 0-3.4-2l-3.1 4.5a2 2 0 0 0-.2 1.6 2 2 0 0 0 1 1.2 2 2 0 0 0 1.4.2l.5-.2a2 2 0 0 0 .7-.7ZM297.4 38.6c1.9-1.1 3.7-2.1 5.7-3a2 2 0 0 0 1-1.3 2 2 0 0 0-.3-1.5 2 2 0 0 0-1.2-1 2.3 2.3 0 0 0-1.5.3c-2 .9-3.9 2-5.7 3a2 2 0 1 0 2 3.5Z" class="b"/></svg>