<svg xmlns="http://www.w3.org/2000/svg" width="800" height="800" viewBox="0 -15.7 343 343"><defs><style>.a{fill:#fff}.b{fill:#6e6867}.c{fill:#211715}.d{fill:#febe69}.e{fill:#f8b8b4}</style></defs><path d="M325.2 289.7c0-2.3-2.6-5.5-6.1-6.9-4.9-1.8-9.7-3-14.4-4.8a27.4 27.4 0 0 1-5.4-2.5 25 25 0 0 1-7.5-9.3 25.8 25.8 0 0 0 6.5-1.6c4.8-2 8.5-5.7 11.6-9.7a74.5 74.5 0 0 0 15.2-34.4c.7-4-3.4-7.1-7.5-5.9l-29.8 9.2a34.4 34.4 0 0 0-6.4 2.4l1.7-9.3a137 137 0 0 0 1.8-15.9c.4-6.3-5.2-6.2-8.7-4.1-4.5 2.6-8.3 5.6-13.2 8.6-3.3 2-7.3 4.4-9.6 7.6a24 24 0 0 0-3.3 8.3c-1 4.2-1.9 7.4-3.5 12.2a62.2 62.2 0 0 0-7.4-4.4c-6.4-3.3-17-1.8-21.3 4.6a14.2 14.2 0 0 0-.4 12.4 21 21 0 0 0 7 8c4 2.7 7.2 7.7 8.9 11 2.5 5 14 33.2 49 23.1 1.2 9.1 15.4 19.5 21 12.2 5.5 4.7 14 1.6 17.4-.6a19 19 0 0 0 3.3-4.5 17.7 17.7 0 0 0 1.1-5.7Z" class="a"/><path d="M271 45c-26.5 0-43 5-43.5 12.2L225 84.5c.3 8 23.8 16.5 46 16.5 23.8 0 45.6-8.5 45.9-16.5-.6-8.6-1.8-19-2.5-27.3C314 50 297.4 45 271 45Z" class="b"/><path d="M271 42.5c-10.1 0-20.5.6-30.3 3-5.1 1.4-12 3.5-14.7 8.5a9 9 0 0 0-1 3.6l-.7 8-1.5 17a9 9 0 0 0 .7 5 11.8 11.8 0 0 0 2.7 3.5 34.7 34.7 0 0 0 10.1 5.9 91.2 91.2 0 0 0 30.7 6.3 97.8 97.8 0 0 0 33.1-4.1 51.4 51.4 0 0 0 12-5.2c2.4-1.6 5.1-3.6 6.4-6.4a9.8 9.8 0 0 0 .6-5.2 573 573 0 0 0-.7-8.3l-1.6-16.7c-.5-5.7-5.9-8.6-10.8-10.4-8.3-3-17.5-3.8-26.3-4.3l-8.7-.2c-3.1 0-3.1 4.8 0 4.8 9.3 0 19 .5 28 2.7a38 38 0 0 1 8.6 3l1.5.8.7.5c.5.3 0-.2.4.3l1 .9c.2.3.2.3 0 .1l.5.6c0 .2.3.8 0 .1l.2.5.1.4c0-.5 0 0 0 0v1l.8 7.7 1.4 15.7a29.8 29.8 0 0 1 .2 3.2v.1c0 .2-.4 1-.1.4l-.4.7c0 .2-.6.8-.3.4a12 12 0 0 1-1.3 1.4 18.3 18.3 0 0 1-3.4 2.5 38.8 38.8 0 0 1-4.8 2.4c-9.1 3.7-19.2 5.4-29 5.8a94.4 94.4 0 0 1-30.4-3.7 54.5 54.5 0 0 1-11.2-4.5l-2.2-1.3a12 12 0 0 1-1.5-1.2 14.8 14.8 0 0 1-1.4-1.4s-.3-.3 0 0l-.3-.3-.4-.8c-.2-.3 0 0 0 .1a4 4 0 0 1-.1-.4c0-.2-.2-1-.1-.2a30.6 30.6 0 0 1 .2-3.2l.7-8 1.4-15.6.1-1v-.1l.3-.6c-.2.6 0 .1 0-.1l.4-.5c.2-.4 0 0-.1.1l.2-.3a15.1 15.1 0 0 1 1.2-1c.2-.3-.4.1.2-.2l.6-.5a19.8 19.8 0 0 1 1.8-1 22.6 22.6 0 0 1 3.5-1.4 88.3 88.3 0 0 1 24.6-3.9l8.3-.2c3.1 0 3.1-4.8 0-4.8Z" class="c"/><path d="M339.5 46.3c-21.6-6.5-42.2-12-65-18.2a13.7 13.7 0 0 0-7.3 0 7899 7899 0 0 0-64.8 18.2 1.5 1.5 0 0 0 0 3l64.8 18.3a13.7 13.7 0 0 0 7.4 0c22.7-6.4 43.3-11.8 64.9-18.3a1.5 1.5 0 0 0 0-3Z" class="b"/><path d="M340.1 44c-12.3-3.7-24.6-7.2-37-10.6l-18.4-5c-3.3-1-6.6-2-10-2.8a17.2 17.2 0 0 0-8.6.3L218.8 39l-11.5 3.3-4.7 1.4A5.4 5.4 0 0 0 200 45a4 4 0 0 0-1 3.8c.7 2.3 3 2.7 5 3.3l5 1.5 11.8 3.3 26.5 7.5 11.4 3.2c3 .8 6.2 2 9.3 2.5 3.4.6 6.5-.2 9.9-1l9.6-2.7 18.8-5.2 18-5 9.5-2.8 4-1.2c1.5-.5 3.2-.7 4.2-2 2-2.2.7-5.3-1.9-6.3a2.4 2.4 0 0 0-3 1.7 2.5 2.5 0 0 0 1.8 3 .9.9 0 0 1-.4-1.5c.3-.5.5-.2-.1-.1a11.8 11.8 0 0 0-1.1.3l-4.6 1.4-8.5 2.5-17.4 4.9-17.3 4.7-9.1 2.5-4.5 1.3a19.4 19.4 0 0 1-4.5 1c-3.2 0-6.5-1.3-9.6-2.1l-10.2-3-24.8-6.9q-11-3-21.8-6.2c-.3 0-1.7-.7-2-.5.6-.4.7 1 .6 1.2-.2.3-.8.4-.3.4a3 3 0 0 0 .6-.2l4.3-1.2q5.3-1.6 10.7-3l46-13a35.9 35.9 0 0 1 4.3-1.1c3-.5 5.8.6 8.6 1.3l17.9 5c11.5 3.1 23 6.3 34.5 9.7l8.7 2.6c3 .8 4.2-3.8 1.2-4.7ZM201.6 55.8l-2 21a2.4 2.4 0 0 0 2.5 2.4 2.5 2.5 0 0 0 2.4-2.4l1.9-21a2.4 2.4 0 0 0-2.4-2.4 2.5 2.5 0 0 0-2.4 2.4Z" class="c"/><path d="M203.3 83.2c.6 3 1.8 7.5 1.9 8a5 5 0 0 1 0 2.4c-1.5 4.8-3.2 8.9-5 13.3a1.2 1.2 0 0 1-2 0c-1.2-4.7-2.4-10.7-2.6-12a5.7 5.7 0 0 1 .2-2.7c.8-2.2 2.9-6.8 4-9.2" class="d"/><path d="M201.9 74.4a4.4 4.4 0 0 0-4.5 4.5 4.3 4.3 0 0 0 4.5 4.5 4.3 4.3 0 0 0 4.5-4.5 4.4 4.4 0 0 0-4.5-4.5Z" class="d"/><path d="m201 83.9 1.8 7.8c.4 1.6-.5 3.2-1 4.8l-2.2 5.7-1.2 2.8a2.4 2.4 0 0 0-.2.7v.2l.8-.7a5.2 5.2 0 0 1 1.5 1l-.2-.7a174 174 0 0 1-1.2-5.3l-.9-4.4a6.5 6.5 0 0 1-.2-2.7 25.4 25.4 0 0 1 1.7-4.2l2.2-4.7a2.5 2.5 0 0 0-.9-3.3 2.4 2.4 0 0 0-3.3.9 494 494 0 0 0-2.2 5 36.2 36.2 0 0 0-2.1 5 11.2 11.2 0 0 0 .1 5l1.1 5.5.7 3a9.9 9.9 0 0 0 1 3.1 3.6 3.6 0 0 0 6 0 19.9 19.9 0 0 0 1.3-3.3l1.3-3.5c1-2.3 1.9-4.7 2.6-7.1.6-2 0-3.8-.4-5.7-.6-2-1-4.1-1.5-6.2a2.4 2.4 0 0 0-3-1.7 2.5 2.5 0 0 0-1.6 3Z" class="c"/><path d="M201.9 72a7 7 0 0 0-6.6 4.9 7 7 0 0 0 2.3 7.5 7.3 7.3 0 0 0 7.9.5 7 7 0 0 0 3.1-7.3A6.8 6.8 0 0 0 202 72a2.4 2.4 0 1 0 0 4.8h.4-.2l.6.2h.2c-.5 0-.3-.1-.1 0l.6.4c-.7-.4-.2-.1 0 0l.2.3c-.4-.4-.2-.4 0-.2l.2.6v-.3.4l.2.6c-.2-.6 0-.4 0-.2V79.5v-.2a4.7 4.7 0 0 1-.2.7c-.1.2-.3.4 0-.2l-.2.5-.2.2c-.1.3.5-.5.2-.2l-.5.4c.5-.4.4-.2.2 0h-.2l-.3.2.2-.1-.6.2h-.2c-.4.1.7 0 0 0a5.6 5.6 0 0 1-.6 0 1.2 1.2 0 0 1-.3 0h.3l-.6-.1-.3-.1c.7.2.3.1.1 0l-.5-.3c.7.4.2.1 0 0l-.2-.3c-.2-.2.4.6.2.2a9 9 0 0 1-.4-.6l.1.2v-.2a1.8 1.8 0 0 1-.2-.7v.3-.7c0-.2.1-.6 0 .1l.1-.7a1.1 1.1 0 0 1 .1-.3l-.1.4V78l.4-.6c-.3.6-.2.3 0 .1l.2-.2c.2-.2.4-.3-.1 0l.2-.1.3-.2h.3-.4a1.8 1.8 0 0 1 .7-.1c.3-.1.5 0-.1 0h.5a2.4 2.4 0 1 0 0-4.9Z" class="c"/><path d="M35.4 128c.4 4.6 7.8 8.1 21 8.1 14 0 21-3.1 21-8.5V10.2c0-4.9-7-7.8-21-7.8-13.2 0-21 2.4-21 7.6v118Z" class="b"/><path d="M33 128c.4 3.5 2.8 6 6 7.4 4.5 2.2 9.6 2.9 14.6 3a55.8 55.8 0 0 0 16.5-1.3c3.2-.9 6.7-2.4 8.5-5.4a8.7 8.7 0 0 0 1.2-4.6V12.2c0-2 0-3.7-1-5.5a9.2 9.2 0 0 0-3.2-3.2C72 1.3 67.6.7 63.6.3A77.2 77.2 0 0 0 46 .7c-3.8.5-8 1.4-10.8 4.1A7.3 7.3 0 0 0 33 9.3a86 86 0 0 0 0 9.1V118c0 3.4-.2 6.8 0 10.1.1 3 5 3.1 4.8 0-.2-3.3 0-6.6 0-9.9V9.5c0-.3-.2.6 0 0v-.3c0-.2.1-.2.2-.3-.1.3-.2.4 0 .2l.3-.7c-.3.5.3-.2.4-.3L39 8c-.5.3 0-.1.1-.2l1-.5a9.6 9.6 0 0 1 2-.8 26.6 26.6 0 0 1 2.8-.7 47.9 47.9 0 0 1 6.9-.8 65.6 65.6 0 0 1 15.6.8l2.7.6a11.9 11.9 0 0 1 2.1.8 10.4 10.4 0 0 1 1.6 1l.4.3.2.3c.3.3-.2-.4.1.1l.4.6c-.4-.6 0 .2 0 .3.2.7 0-.3 0 .4V128c0 .6.1-.3 0 .1 0 .2 0 .5-.2.7-.1.5.3-.5 0 0l-.1.3-.3.4a8.5 8.5 0 0 1-.6.7l-.5.4c.1 0 .4-.3 0 0l-.9.5a8.8 8.8 0 0 1-1.9.9 29 29 0 0 1-5.8 1.3 59.9 59.9 0 0 1-16 0 30 30 0 0 1-6.3-1.6 11.7 11.7 0 0 1-1.8-.9 16 16 0 0 1-1-.6c-.6-.4.2.2-.1 0l-.5-.5a8.3 8.3 0 0 1-.6-.6c.4.4-.1-.3-.2-.4-.4-.5 0 .2-.2-.4 0-.2-.2-1-.1-.3a2.5 2.5 0 0 0-2.4-2.4A2.4 2.4 0 0 0 33 128Z" class="c"/><path d="M70.4 10.1a48.2 48.2 0 0 1-13.5 1.4c-4.8 0-9.8 0-14.5-1.3-3-.8-4.3 3.8-1.3 4.6a58 58 0 0 0 15.8 1.5c5 0 10-.2 14.7-1.6 3-.8 1.7-5.5-1.2-4.6Z" class="c"/><path d="M75.1 55.5a14 14 0 0 0 4 .2 4.8 4.8 0 0 0 1.5-.4 3.2 3.2 0 0 0 1.3-1 8.4 8.4 0 0 0 1.1-4.6 52.8 52.8 0 0 0-.7-11.2 6.4 6.4 0 0 0-.6-2 5.6 5.6 0 0 0-4.3-2.5 15.7 15.7 0 0 0-5.2.5 47 47 0 0 0-10 3.3l-.9.5c-1-1-2-1.5-4.9-1.5-2.4 0-3.7.4-5 1.5l-1-.5a47.6 47.6 0 0 0-10-3.3 15.9 15.9 0 0 0-5-.5 5.6 5.6 0 0 0-4.4 2.5 6.3 6.3 0 0 0-.6 2 52.8 52.8 0 0 0-.7 11.2 8.3 8.3 0 0 0 1.1 4.5 3.3 3.3 0 0 0 1.3 1.1 4.7 4.7 0 0 0 1.6.4 15.6 15.6 0 0 0 6-.8 67.1 67.1 0 0 0-9.4 8c-2.1 3.5 6.5 8.8 9.9 10.3a5.5 5.5 0 0 0 5.8-1.5c2.7-3.1 7.4-11.6 10.4-17C59.7 60.4 63.8 68 67 72a5.2 5.2 0 0 0 5.8 1.2c3.4-1.5 12-6.8 9.8-10.3a66 66 0 0 0-9.3-7.9 19.8 19.8 0 0 0 2 .5Z" class="e"/><path d="m56.4 51-.8-.1-.4-.1a21 21 0 0 1-1.3-.3c-.6-.2.4.2-.1-.1l-.3-.2-.5-.2c.6.3 0 0 0-.2l-.3-.3c0 .3.2.5 0 .1a3.5 3.5 0 0 0-.1-.3c-.3-.3.1.3 0 .3l-.1-.7-.1-.5s-.1-.9 0-.2a25 25 0 0 1-.1-4.9s.1-.8 0-.2a18.8 18.8 0 0 1 .4-1.8l.3-1c.1-.5-.3.5 0 0l.3-.5c-.4.5 0 .1.1 0-.4.4 0 0 .1 0l.4-.3c.1 0 .5-.1 0 0a8.7 8.7 0 0 1 1.2-.3h.3a15.4 15.4 0 0 1 2.4 0s.8.1.2 0l.6.1.4.2c-.6-.2-.1 0 0 0a2.2 2.2 0 0 0 .3.2l-.1-.1.2.2a3.5 3.5 0 0 0 .4.3c-.4-.2-.2-.3 0 0 0 .1 0 .3.2.4-.3-.5 0-.1 0 0a13.8 13.8 0 0 1 .5 2.4c.1.7 0-.5 0 .2l.1.6V45a23.5 23.5 0 0 1 0 2.7v.4q0 .4 0 0v.3a8 8 0 0 1-.3 1v.2c-.2.4.2-.5 0-.1l-.2.3-.1.2.1-.2-.2.3c-.5.5.2 0-.1.1l-.4.2c-.2 0-.7.4-.1.1a6.3 6.3 0 0 1-2.9.5 2.4 2.4 0 0 0 0 4.8 9.8 9.8 0 0 0 6.7-2.1 6.9 6.9 0 0 0 2-4 23.5 23.5 0 0 0 .3-6.3c-.2-2-.5-4.3-1.7-6a7.5 7.5 0 0 0-5.7-2.9 11 11 0 0 0-6.9 1.2 7.5 7.5 0 0 0-3.2 5.3 24.5 24.5 0 0 0-.5 6.5 9 9 0 0 0 2 5.6c1.7 2 4.5 2.6 7 2.7a2.4 2.4 0 1 0 0-4.8Z" class="c"/><path d="m38.6 52.9-5.9 4.5a26.8 26.8 0 0 0-3.9 3.6c-2.6 3.2-.3 6.9 2.4 9.2a32.3 32.3 0 0 0 4.8 3.5 14 14 0 0 0 4.6 2.1 8 8 0 0 0 6.9-2.2 26.4 26.4 0 0 0 3.2-4.4C53.5 65 56 60.4 58.5 56c1.5-2.7-2.6-5.1-4.1-2.4A322 322 0 0 1 45 69l-.3.5c.2-.3 0 0 0 0a3.8 3.8 0 0 1-1.8 1.3 3.3 3.3 0 0 1-1.6.2c-.4 0 0 0-.4-.2l-1-.5a34.7 34.7 0 0 1-3.8-2.4 15.8 15.8 0 0 1-3-2.7l-.5-.7-.2-.3c-.1-.5 0 0 0 0V64c0 .1-.1.4 0 0 .2-.2-.3.4 0 .2 0-.2.2-.3.3-.4l.8-.8 2.2-1.9A149 149 0 0 1 41 57a2.5 2.5 0 0 0 .9-3.3 2.4 2.4 0 0 0-3.3-.8Z" class="c"/><path d="M72 57a68.1 68.1 0 0 1 8.2 6.8l.3.3-.1-.1.1.2c.1 0 0-.2 0 0 0 .3-.1-.4 0-.1v-.2.4c-.2.4 0-.1-.1.1a9.3 9.3 0 0 1-2.5 2.8 27.1 27.1 0 0 1-3.6 2.5l-1.7 1q-.3 0-.7.3s-.4.2-.2 0-.4.2-.4.2a2.9 2.9 0 0 1-2.8-1.1 45.3 45.3 0 0 1-3-4.4l-7-12.2c-1.5-2.7-5.7-.3-4.1 2.4 2.4 4.2 4.7 8.6 7.3 12.7a30.8 30.8 0 0 0 3.7 5.3 7.4 7.4 0 0 0 6 2 12.2 12.2 0 0 0 4.8-1.8 35.6 35.6 0 0 0 4.7-3.2c2.6-2 5.7-5.6 3.8-9A15.1 15.1 0 0 0 81 58a172 172 0 0 0-6.5-5 2.4 2.4 0 0 0-3.3.8A2.5 2.5 0 0 0 72 57ZM51.7 35.7a45.6 45.6 0 0 0-12-3.8c-4.4-.8-10 0-11.4 5a40.6 40.6 0 0 0-1 7.4 38.7 38.7 0 0 0 .1 7c.3 2.4 1.2 4.8 3.3 6 2 1.2 4.8 1 7 .6a39 39 0 0 0 7.2-2.2 55 55 0 0 0 7.1-3.1c2.7-1.5.3-5.7-2.4-4.2a59.5 59.5 0 0 1-10 4 15.3 15.3 0 0 1-5 1A3.2 3.2 0 0 1 33 53a3 3 0 0 1-.7-1.7 23.3 23.3 0 0 1-.2-5.2 47.9 47.9 0 0 1 .5-5.8c.2-1.5.2-3 1.6-3.6a7.4 7.4 0 0 1 4.5-.2 41.4 41.4 0 0 1 10.6 3.3 2.5 2.5 0 0 0 3.2-.9 2.4 2.4 0 0 0-.8-3.3Z" class="c"/><path d="M63.5 39.9a40 40 0 0 1 9-3c2.1-.5 6.6-1.6 7.3 1.5a42 42 0 0 1 .8 11.6c0 1 0 2.6-1 3.1a4.5 4.5 0 0 1-2.1.2A12 12 0 0 1 75 53a49.6 49.6 0 0 1-5.7-1.9 49.2 49.2 0 0 1-5.5-2.3 2.5 2.5 0 0 0-3.3.8 2.4 2.4 0 0 0 .9 3.3 57.4 57.4 0 0 0 6.2 2.7 49.5 49.5 0 0 0 6.3 2 14.2 14.2 0 0 0 6.9.2 6.5 6.5 0 0 0 4.3-5 28.1 28.1 0 0 0 .3-6.8 57.6 57.6 0 0 0-.7-7.7 7.3 7.3 0 0 0-3.3-5.4 10.3 10.3 0 0 0-6.6-1.2 42.7 42.7 0 0 0-13.8 4 2.4 2.4 0 1 0 2.5 4.2Z" class="c"/><path d="m101.3 243.5-.9 2 6.8 4.6c1.6 1.1 3.3 2.5 3.1 4.4a5.6 5.6 0 0 1-1.5 2.8 36 36 0 0 1-22.4 11.9c6.3 6.2 10.6 14.9 11 23.5a5.6 5.6 0 0 1-.6 3.2c-1 1.5-3.2 1.6-5.1 1.5l-8.2-.5-2.1 7.8c-.5 1.9-1.3 4-3 4.4a5.6 5.6 0 0 1-3.3-.5c-8-3.1-15-10-18.7-18a36.1 36.1 0 0 1-18.8 18 5.6 5.6 0 0 1-3.2.5c-1.8-.4-2.6-2.5-3-4.4l-2.2-7.8-8.2.5c-1.9 0-4.1 0-5.1-1.5a5.6 5.6 0 0 1-.5-3.2c.4-8.6 4.6-17.3 11-23.5a36 36 0 0 1-22.5-11.9 5.6 5.6 0 0 1-1.5-2.8c-.2-1.9 1.5-3.3 3.1-4.4l6.8-4.5-3.1-7.6c-.7-1.8-1.4-3.9-.3-5.3a5.6 5.6 0 0 1 3-1.6 36.2 36.2 0 0 1 26.3 3.1c-2-9-.4-19.2 4.5-26.8a5.6 5.6 0 0 1 2.3-2.3c1.7-.7 3.6.6 5 1.8l6.4 5.1 6.3-5.1c1.5-1.2 3.3-2.5 5-1.8a5.6 5.6 0 0 1 2.4 2.3 36.2 36.2 0 0 1 4.5 26.8c8-4.3 18-5.5 26.3-3a5.6 5.6 0 0 1 2.9 1.5c1.2 1.4.5 3.5-.3 5.3Z" class="e"/><path d="m99 242.9-.9 2a2.4 2.4 0 0 0 1.1 2.7l4.8 3.3c1.2.8 2.9 1.6 3.7 2.8.6 1-.5 1.9-1.1 2.5a31.2 31.2 0 0 1-3.5 3.4 35 35 0 0 1-17.4 7.2c-1.8.3-2.2 3-1 4a34.8 34.8 0 0 1 9.5 16.9 27 27 0 0 1 .7 4.6c.1 1 .4 2.3-.8 2.6a15 15 0 0 1-4.3 0l-6.3-.4a2.4 2.4 0 0 0-2.3 1.7l-1.6 6c-.4 1.3-.6 3.1-1.4 4.2-.7.9-2 0-3-.3a29.7 29.7 0 0 1-4.2-2.3 35 35 0 0 1-12.6-14.4 2.4 2.4 0 0 0-4.1 0 34.9 34.9 0 0 1-12.5 14.4 30.6 30.6 0 0 1-4.2 2.2c-.8.4-2.4 1.3-3 .4-1-1-1.1-2.9-1.5-4.2l-1.6-6a2.4 2.4 0 0 0-2.3-1.7l-6 .3a16.5 16.5 0 0 1-4.6.1c-1.2-.3-.9-1.6-.8-2.6a27 27 0 0 1 .7-4.6 34.8 34.8 0 0 1 9.6-16.9c1.1-1 .7-3.7-1.1-4a35 35 0 0 1-17.4-7.2 31.3 31.3 0 0 1-3.4-3.2c-.6-.7-1.8-1.7-1.2-2.7.7-1.1 2.4-2 3.5-2.7l5-3.4a2.4 2.4 0 0 0 1-2.7l-2.1-5.3a21.2 21.2 0 0 1-1.7-4.6c-.2-1.3 1-1.4 2.1-1.7a27.5 27.5 0 0 1 4.8-.9 34.9 34.9 0 0 1 19.4 4 2.4 2.4 0 0 0 3.5-2.8 34.9 34.9 0 0 1 1.5-19.5 28.3 28.3 0 0 1 2-4.1c.3-.7 1.2-2.7 2.1-2.7.6 0 1.3.6 1.7.9l2 1.6 4.9 4a2.5 2.5 0 0 0 3.4 0l4.6-3.8 2-1.7c.5-.3 1.3-1 1.9-1 1 0 1.8 2 2.2 2.7a28 28 0 0 1 2 4.1 35 35 0 0 1 1.4 19.5 2.4 2.4 0 0 0 3.6 2.7 35 35 0 0 1 18.3-4 28 28 0 0 1 4.2.6l2.3.6c.4.2 1 .3 1.3.7.5.7-.4 2.5-.7 3.2l-2.2 5.5a2.4 2.4 0 0 0 1.6 3 2.5 2.5 0 0 0 3-1.8l2.5-6.2a7.4 7.4 0 0 0 .1-5.8c-1.7-3.4-6.7-4-10-4.4a39.3 39.3 0 0 0-22.9 4.4l3.6 2.7a39.7 39.7 0 0 0-2.5-24.4c-1.5-3.3-3.8-8.2-8.1-7.9-2.4.3-4.3 1.9-6 3.3l-5.6 4.5H58l-5.6-4.5c-1.8-1.4-3.6-3-6-3.3-4.3-.3-6.7 4.6-8.2 8a39.7 39.7 0 0 0-2.4 24.4l3.5-2.7a39.6 39.6 0 0 0-24-4.3c-3.8.5-9 1.5-9.4 6a11.6 11.6 0 0 0 1.2 5.6l2.8 6.7 1-2.7-5.9 4a13.8 13.8 0 0 0-4.3 3.8c-2.4 4 1.2 7.8 4 10.4a38.9 38.9 0 0 0 21 9.8l-1.1-4a39 39 0 0 0-11.3 20.8c-.6 3.8-1.4 9.1 3 11a12.6 12.6 0 0 0 5.6.4l7.2-.4-2.3-1.8 1.9 7a12.8 12.8 0 0 0 2.3 5.3c3.2 3.5 8.1 1 11.4-.9a39 39 0 0 0 16-17.1h-4.2a39 39 0 0 0 15.9 17.1c3.3 1.9 8.2 4.4 11.4 1a12.8 12.8 0 0 0 2.4-5.5l1.9-6.9-2.4 1.8 7.2.4a13.2 13.2 0 0 0 5.3-.4c4.7-1.7 4-7 3.3-11A39 39 0 0 0 88 267.5l-1.1 4a38.9 38.9 0 0 0 21-9.8c2.8-2.6 6.4-6.4 4-10.4a13.8 13.8 0 0 0-4.4-3.8l-6-4 1.2 2.7.8-2a2.4 2.4 0 0 0-1.7-3 2.5 2.5 0 0 0-3 1.7Z" class="c"/><path d="m67 268.3-3.2-5a2.5 2.5 0 0 0-1.4-1 2.5 2.5 0 0 0-1.9.2 2.4 2.4 0 0 0-.9 3.3l3.2 4.9a2.5 2.5 0 0 0 1.5 1 2.5 2.5 0 0 0 1.8-.2 2.4 2.4 0 0 0 .9-3.2ZM70 252.3l-6.2 1.4a2.4 2.4 0 0 0-1.7 3 2.5 2.5 0 0 0 3 1.7l6.2-1.5a2.4 2.4 0 0 0 1.6-3 2.5 2.5 0 0 0-3-1.6ZM54.5 244.6v5.3a2.5 2.5 0 0 0 .7 1.7 2.4 2.4 0 0 0 3.4 0 2.5 2.5 0 0 0 .7-1.7v-5.3a2.5 2.5 0 0 0-.7-1.7 2.4 2.4 0 0 0-3.4 0 2.5 2.5 0 0 0-.7 1.7ZM51 270.7l3.2-4.9a2.4 2.4 0 1 0-4.2-2.4l-3.2 4.9a2.4 2.4 0 0 0 4.2 2.4ZM42.5 257l6.2 1.4a2.5 2.5 0 0 0 1.9-.3 2.4 2.4 0 0 0-.6-4.4l-6.2-1.4a2.5 2.5 0 0 0-1.8.3 2.4 2.4 0 0 0 .5 4.3ZM255.8 237.5a129.5 129.5 0 0 0-11.6-8.3 24.8 24.8 0 0 0-10.2-4 19.5 19.5 0 0 0-18.2 7.4 2.4 2.4 0 0 0 .9 3.3 2.5 2.5 0 0 0 3.3-.9c3-4.2 9-5.6 14-5a21 21 0 0 1 8.1 3.6 121.1 121.1 0 0 1 10.3 7.3 2.5 2.5 0 0 0 3.4 0 2.4 2.4 0 0 0 0-3.4ZM223.3 256.2c6.5 4.5 8.6 12.8 13 19.1a39 39 0 0 0 21.3 16.2c7 2 14.4 1.7 21.4.2 3-.7 1.8-5.3-1.3-4.7a40.2 40.2 0 0 1-17.6.2 29.6 29.6 0 0 1-6.6-2.4 33 33 0 0 1-3-1.8 34.3 34.3 0 0 1-2-1.4s-.3-.2-.1 0l-.3-.3a38.7 38.7 0 0 1-4.5-4.2l-.9-1-.4-.6-.4-.5-.3-.3c0-.2-.2-.4-.4-.6l-.7-1a57.2 57.2 0 0 1-4.2-7.4 33.5 33.5 0 0 0-10.6-13.6c-2.5-1.8-5 2.4-2.4 4.1ZM291 269.7a24.5 24.5 0 0 0 6.8 7.7c2.9 2 6.7 3 10 4.2 3.5 1.2 7.2 2 10.6 3.5a9 9 0 0 1 3.3 2.4 6 6 0 0 1 .8 1.2 5.3 5.3 0 0 1 .2.5 3.5 3.5 0 0 1 .1.4v.1c.1 3 5 3 4.8 0-.1-3.1-2.2-5.7-4.6-7.5-3-2.1-6.9-3-10.3-4a74.4 74.4 0 0 1-10.6-3.9 17.4 17.4 0 0 1-7-7c-1.5-2.7-5.7-.3-4 2.4Z" class="c"/><path d="M229.8 239.8c3.6 0 3.6-5.6 0-5.6s-3.6 5.6 0 5.6Z" class="c"/><path d="M220.3 246.4c-3.3.2-6.2.3-9.4.3a26.9 26.9 0 0 1 8-7Z" class="a"/><path d="M217.7 237.7a28.8 28.8 0 0 0-8.5 7.3 2.5 2.5 0 0 0-.5 2.6 2.4 2.4 0 0 0 2.2 1.5c3.1 0 6.3-.1 9.4-.3a2.4 2.4 0 0 0 0-4.8c-3.1.2-6.3.3-9.4.3l1.7 4.1a31.6 31.6 0 0 1 3.6-3.8l1-.9.3-.2-.1.1.5-.4a22.3 22.3 0 0 1 2.3-1.4 2.4 2.4 0 0 0 .8-3.3 2.5 2.5 0 0 0-3.3-.8ZM264.4 242.3a22.6 22.6 0 0 0 10.3-5.9c1.4-1.5 2.7-3.2 4-4.8a13.5 13.5 0 0 1 5.1-4 56.7 56.7 0 0 1 6.5-2.1l7.8-2.4 15.4-4.7 3.8-1.2a6 6 0 0 1 2.7-.4 3.2 3.2 0 0 1 2.7 2.4 6.9 6.9 0 0 1-.2 2.4l-.7 3.3q-.7 3.4-1.9 6.7a70.5 70.5 0 0 1-13.5 23.8 23 23 0 0 1-12.2 8 47.1 47.1 0 0 1-8 .8l-9.1.5c-3.1.1-3.1 5 0 4.8 5.6-.3 11.3-.3 16.8-1.2a25.5 25.5 0 0 0 13.4-7 61 61 0 0 0 9.2-11.5 78.5 78.5 0 0 0 6.8-13.5 72.5 72.5 0 0 0 4-14.5 8 8 0 0 0-1.1-6.4 8.3 8.3 0 0 0-5.9-3.4c-2.5-.3-5 .8-7.4 1.5l-8.3 2.6-16.7 5.1a40.5 40.5 0 0 0-7.8 3 20.2 20.2 0 0 0-6 5.6 27 27 0 0 1-4.9 5 18 18 0 0 1-6 2.8c-3 .9-1.8 5.5 1.2 4.7ZM249.3 233.2l2.3-8a65.2 65.2 0 0 1 2.2-7.7c1.9-4.8 6.2-7.3 10.4-10 4.6-2.8 9-6.3 13.7-8.8a2 2 0 0 1 .7-.3c.3-.2.7-.2 1-.3l.7-.1h.5c.6 0-.2-.1.2 0l.6.2c.3 0-.5-.3 0 0 .5.2.2 0 .1 0a2.8 2.8 0 0 1 .4.4l.2.3a3.4 3.4 0 0 1 .2 1 40.8 40.8 0 0 1-.5 7.7q-.5 4.4-1.2 8.6a2.5 2.5 0 0 0 1.6 3 2.4 2.4 0 0 0 3-1.7 106.1 106.1 0 0 0 2-16.9 6.7 6.7 0 0 0-8.4-7.3 15.5 15.5 0 0 0-6 2.6l-8 5.5c-4.8 3.2-10.6 5.9-13.9 10.8-2 3-2.8 6.4-3.6 9.8-.9 3.3-1.8 6.6-2.9 9.9-1 3 3.7 4.2 4.7 1.3ZM258.8 288a30.9 30.9 0 0 0 7.9 10.3 2.4 2.4 0 0 0 3.4-3.4 29.5 29.5 0 0 1-2.3-2l-1-1.2-.4-.6-.3-.3c-.2-.2.3.5 0 0a30.3 30.3 0 0 1-3.1-5.2 2.4 2.4 0 0 0-3.3-.9 2.5 2.5 0 0 0-.9 3.3ZM282.7 295.4a23.7 23.7 0 0 0 11 9c4 1.6 8.6 1.3 11.5-2.2h-3.4c5.8 4.8 14.2 3.5 20.3-.2 2.6-1.7.2-5.8-2.5-4.2-3.9 2.5-10.3 4.4-14.4 1a2.4 2.4 0 0 0-3.4 0 4.2 4.2 0 0 1-2.7 1.7 8.1 8.1 0 0 1-4.3-.8 18.8 18.8 0 0 1-8-6.7c-1.6-2.6-5.8-.2-4 2.4Z" class="c"/></svg>