<svg xmlns="http://www.w3.org/2000/svg" width="800" height="800" viewBox="-5.8 0 356.4 356.4"><defs><style>.a{fill:#211715}.b{fill:#74c66d}.c{fill:#fff}.d{fill:#f8b8b4}.e{fill:#85807f}</style></defs><path d="m328.6 270.2 14.9-10a2.4 2.4 0 0 0-2.5-4.1l-14.8 10a2.4 2.4 0 1 0 2.4 4Z" class="a"/><path d="M303.1 262a22.5 22.5 0 0 0-23.4 22.3 22.2 22.2 0 0 0 22.6 23.7c13.9.2 23.2-9.1 23.4-22.8a22.5 22.5 0 0 0-22.6-23.3Z" class="b"/><path d="M303.1 259.5a25.3 25.3 0 0 0-24.5 17.2 26.2 26.2 0 0 0 7.8 28.2 27.6 27.6 0 0 0 29.5 2.3c9.2-5.1 13.4-16 12-26.3a24.9 24.9 0 0 0-7.8-14.8 26 26 0 0 0-17-6.6c-3 0-3 4.8 0 4.8 9 .3 17 5.9 19.4 14.6 2.3 8 0 17.5-6.6 22.6-6.6 5.1-16.9 5.5-24.1 1.3a20.7 20.7 0 0 1-9.5-21.4 20.1 20.1 0 0 1 20.8-17c3.1 0 3.1-4.8 0-4.9Z" class="a"/><path d="M277.8 279.5a22.5 22.5 0 0 0-23.7 22 22.2 22.2 0 0 0 22.2 24c14 .4 23.3-8.9 23.8-22.5a22.5 22.5 0 0 0-22.3-23.5Z" class="c"/><path d="M277.8 277A25.3 25.3 0 0 0 253 294a26.2 26.2 0 0 0 7.5 28.3A27.6 27.6 0 0 0 290 325a25.6 25.6 0 0 0 12.3-25.9 25.1 25.1 0 0 0-7.7-15.2 26 26 0 0 0-16.8-6.7c-3.1-.2-3.1 4.6 0 4.8a20.4 20.4 0 0 1 19.2 14.8c2.1 7.9-.4 17.5-7 22.4-6.7 5-17 5.3-24.1 1a20.7 20.7 0 0 1-9.1-21.5 20 20 0 0 1 21-16.7c3 0 3-4.8 0-4.8Z" class="a"/><path d="M249 298.1a22.5 22.5 0 0 0-23.7 22 22.2 22.2 0 0 0 22.2 24c14 .5 23.4-8.8 23.8-22.5a22.5 22.5 0 0 0-22.3-23.5Z" class="d"/><path d="M249 295.7a25.3 25.3 0 0 0-24.8 16.8 26.2 26.2 0 0 0 7.5 28.4 27.6 27.6 0 0 0 29.5 2.6 25.6 25.6 0 0 0 12.3-25.8 25.1 25.1 0 0 0-7.6-15.2 26 26 0 0 0-17-6.8c-3-.1-3 4.7 0 4.8a20.4 20.4 0 0 1 19.3 14.8c2.1 8-.4 17.6-7 22.5-6.7 5-16.9 5.3-24.1 1a20.7 20.7 0 0 1-9.1-21.6 20 20 0 0 1 21-16.7c3 0 3-4.7 0-4.8Z" class="a"/><path d="M13.6 313.4c-7 3.5-11.2 8.2-11.2 14.4 0 17.8 37.7 26.1 70.5 26.1 33 0 70.5-8.1 70.5-26 0-7.5-6-12.7-15.4-16.4" class="c"/><path d="M118.8 300.4a2.6 2.6 0 0 1 .7.5l-1 1-47.2 12.3L24.1 302h-1.6a2.6 2.6 0 0 1 1.4-1.5c8-1.8 35.7-9 45.7-11.8a6.6 6.6 0 0 1 3.5 0c10 2.7 37.7 10 45.7 11.8Z" class="d"/><path d="M119.5 300.9a3 3 0 0 1 1 2.3l-.1 6.3C104.5 314 88.8 318.2 73 323a5.6 5.6 0 0 1-3.2 0c-15.6-4.6-31.5-9-47.5-13.5v-6.2a3 3 0 0 1 .2-1.3H24l47.2 12.3 47.3-12.3Z" class="d"/><path d="m120.4 309.5-.2 8.4-46.3 12.7a9.4 9.4 0 0 1-5 0l-46.4-12.8-.2-8.4c16 4.5 32 8.9 47.5 13.5a5.6 5.6 0 0 0 3.2 0c15.8-4.7 31.5-9 47.4-13.4Z" class="c"/><path d="m120.2 317.9-.1 6.2a2.8 2.8 0 0 1-1.8 2.6l-44.9 13.5a7.3 7.3 0 0 1-4.1 0c-11-3.3-36.4-11-44.8-13.4a2.8 2.8 0 0 1-1.9-2.7l-.1-6.3L69 330.6a9.4 9.4 0 0 0 4.9 0l46.3-12.7Z" class="b"/><path d="M12.3 311.3C5.7 314.7-.5 320.5 0 328.5a18 18 0 0 0 7.3 12.8c5.1 4 11.3 6.6 17.4 8.6a133.4 133.4 0 0 0 23.2 4.8 195 195 0 0 0 50.3 0 131.3 131.3 0 0 0 23.3-4.9c6.1-2 12.2-4.5 17.2-8.6 4-3.2 7-7.7 7.1-13 .2-7.3-5-12.9-11.1-16.3a50.2 50.2 0 0 0-6-2.7 2.4 2.4 0 0 0-3 1.7 2.5 2.5 0 0 0 1.7 3c5.6 2.1 12.2 5.7 13.4 12a11.5 11.5 0 0 1 .1 3.4v.4l-.2.7a12.5 12.5 0 0 1-.5 1.5c.1-.4-.1.1-.2.3l-.3.6a17.3 17.3 0 0 1-1 1.5s0 .2-.2.3c-.2.3.3-.3 0 0a19.8 19.8 0 0 1-1.8 2c-3.7 3.5-9 6-14 7.7a114.6 114.6 0 0 1-20.9 5.1 191.5 191.5 0 0 1-46.8 1.3 151.1 151.1 0 0 1-22.3-3.6 71.3 71.3 0 0 1-17.7-6.4 28.2 28.2 0 0 1-6-4.2L8 335.2l-.6-.6s-.2-.3 0 0a17.2 17.2 0 0 1-1-1.6l-.5-.8-.2-.4a12.4 12.4 0 0 1-.4-1.3l-.2-.7-.1-.5a10.8 10.8 0 0 1 .1-3.6 13 13 0 0 1 5-7.3 29 29 0 0 1 4.8-3c2.7-1.4.3-5.5-2.5-4.1Z" class="a"/><path d="M66.4 319.4C55.3 316 44.1 313 33 309.9c-3-.8-4.2 3.8-1.2 4.6l33.5 9.5c3 .9 4.2-3.8 1.2-4.6ZM109.8 310c-11.2 3-22.3 6.2-33.4 9.4-3 .8-1.7 5.5 1.2 4.6l33.5-9.4c3-.8 1.7-5.5-1.3-4.6ZM60.6 325.8l-17.8-4.9a2.4 2.4 0 0 0-1.3 4.6l17.8 5a2.4 2.4 0 0 0 1.3-4.7ZM99.7 321l-25.3 7c-3 .8-1.8 5.4 1.2 4.6l25.3-6.9c3-.8 1.8-5.5-1.2-4.6ZM23.5 304.2l39.4 10.3 7.3 1.9a7.1 7.1 0 0 0 3.8-.4l3.7-1 21-5.5 20.5-5.3c3-.7 1.7-5.3-1.3-4.6l-39 10.1-8.2 2.2H72l-38.6-10-8.6-2.3c-3-.8-4.3 3.9-1.3 4.6Z" class="a"/><path d="M118.9 329a5.2 5.2 0 0 0 3.2-3 12.9 12.9 0 0 0 .4-4.5l.2-9.7V307a35 35 0 0 0 .1-4.5c-.3-2.7-2.2-4-4.6-4.7-7.6-1.8-15.1-3.8-22.6-5.7l-12.8-3.4-5.4-1.4a34.5 34.5 0 0 0-5.2-1.3c-2-.2-4 .5-6 1l-5.2 1.4-12.8 3.4-23.2 5.9c-2 .5-4 1.2-4.8 3.5a10.7 10.7 0 0 0-.3 4v5l.2 9.5c0 2.8-.5 6.3 1.9 8.3 1.3 1.2 3.3 1.5 4.9 2l5.1 1.5 13 4 13.6 4 6 1.8a29.5 29.5 0 0 0 6 1.6c2.2.2 4.3-.6 6.3-1.2L82 340l12.4-3.7 21.8-6.6 2.6-.8c3-.8 1.7-5.5-1.3-4.6l-40 12-4.3 1.4c-2 .6-3.7 0-5.6-.6l-11.3-3.4-25-7.4L27 325a7.8 7.8 0 0 1-1.6-.5c-.6-.3-.3-1.2-.3-1.9l-.3-17.8a7.4 7.4 0 0 1-.1-1.7c0-.3.3-.5.1-.4a6 6 0 0 1 1.6-.4l4.2-1 11.2-2.9q12-3 23.8-6.2l4.3-1.2c1.7-.4 3.1 0 4.7.5l10.5 2.7 24.4 6.4 8.4 2c.3.1 0 0 .1.1.3.3.2 1 .2 1.3l-.1 4.6-.2 8.9v4.5c0 .3.1 2.3-.2 2.4a2.5 2.5 0 0 0-1.6 3 2.4 2.4 0 0 0 2.9 1.7Z" class="a"/><path d="M283.7 65.4c-7.7.2-15.5 0-23.2 2-9.3 2.6-17 6.3-23.3 13.6-4.6 5.5-7 13.8-8 20.7a54.8 54.8 0 0 0 1.9 23.4c6.9 22.2 30.8 32.2 52.6 32.2 23.7 0 45.8-10 52.7-32.2a54.8 54.8 0 0 0 1.8-23.4c-.9-7-3.3-14.7-7.9-20.1a39.9 39.9 0 0 0-22-13.2c-7.7-2.1-16.8-2.8-24.6-3Z" class="e"/><path d="M283.7 63c-6.8.2-13.7.1-20.5 1.4a56.9 56.9 0 0 0-16.3 5.8A38.9 38.9 0 0 0 234.2 81a40.7 40.7 0 0 0-6.5 15.7 54.6 54.6 0 0 0 4 36c4.4 8.7 12 15.4 20.7 19.8a69.5 69.5 0 0 0 28.3 7.1 72.6 72.6 0 0 0 29.8-4.7 49 49 0 0 0 22.5-17.3c6.8-9.8 9-22.3 7.9-34A49.6 49.6 0 0 0 336 86a36.6 36.6 0 0 0-10.7-12.5c-9.2-7-21.3-9.2-32.5-10.1-3-.3-6.1-.4-9.2-.5-3 0-3 4.7 0 4.8a82 82 0 0 1 32.7 6 35.8 35.8 0 0 1 11.4 8.6 32.6 32.6 0 0 1 7 14 50.2 50.2 0 0 1-2.7 33.3 41.2 41.2 0 0 1-18 18.3 62.4 62.4 0 0 1-26.4 6.8A69.3 69.3 0 0 1 261 151a47 47 0 0 1-21.4-14.9 44.6 44.6 0 0 1-8.3-29.8 50.6 50.6 0 0 1 3.5-16.2 30.1 30.1 0 0 1 9-12c8.3-7 19.9-9.6 30.5-10l9.5-.3c3.1 0 3.1-4.9 0-4.8Z" class="a"/><path d="M283.7 77.7c-17.6 0-35.2 2.7-35.2 11.7 0 9.5 18.8 13 35.2 13S319 99 319 89.5c0-9-17.6-11.7-35.3-11.7Z" class="c"/><path d="M283.7 75.3a111 111 0 0 0-21.3 1.7c-4.9 1-10.7 2.5-14 6.4a9.3 9.3 0 0 0 .1 12.3c3.2 3.9 8.7 5.7 13.5 6.9a89 89 0 0 0 19.2 2.3 104 104 0 0 0 19.9-1.4c5.2-1 11-2.3 15.4-5.5 3.5-2.7 6-7 4.4-11.5-1.7-4.8-6.9-7-11.4-8.4a81.3 81.3 0 0 0-25.8-2.8c-3 0-3 4.8 0 4.8a107.9 107.9 0 0 1 19.2 1.4 42.8 42.8 0 0 1 7.7 2 13.4 13.4 0 0 1 4.7 2.9 4.2 4.2 0 0 1 1.3 3.2v.3a6.2 6.2 0 0 1-.1.6l-.2.6a7.8 7.8 0 0 1-.7 1.2c-.4.6.3-.3-.2.2l-.4.5a15.8 15.8 0 0 1-5 3 40.7 40.7 0 0 1-7 2.2 86.3 86.3 0 0 1-17.1 1.9 98.3 98.3 0 0 1-17.5-1.1c-4.8-.8-9.9-1.9-14-4.5a8.1 8.1 0 0 1-3.2-3.3c-.1-.3.2.6 0 0l-.2-.7a6.2 6.2 0 0 1-.1-.6V89a5.8 5.8 0 0 1 .3-1.3l.1-.2.5-.7c-.2.3 0 0 0 0l.7-.7a11.2 11.2 0 0 1 2.5-1.7 29.7 29.7 0 0 1 7.4-2.5 99.4 99.4 0 0 1 21.3-1.8c3.1 0 3.1-4.8 0-4.8Z" class="a"/><path d="M72.9 13.6c-14 0-28.8 3.7-38.1 14.2a47.6 47.6 0 0 0 1 62.8c9.5 10.5 23.3 14.7 37.1 14.7s27.6-4.2 37-14.7a47.5 47.5 0 0 0 1.1-62.8C101.7 17.3 87 13.6 73 13.6Z" class="c"/><path d="M60.2 111.6V104a63.8 63.8 0 0 0 25.4 0v8.2a3.6 3.6 0 0 1-3.5 3.6H63.7a3.6 3.6 0 0 1-3.5-3.6ZM60.2 8v6.7a73.5 73.5 0 0 1 25.4 0V5.9a3.6 3.6 0 0 0-3.5-3.5H63.7A3.6 3.6 0 0 0 60.2 6ZM77.4 115.8h-9V155h9Z" class="e"/><path d="M72.9 11.2c-10 0-20.3 1.8-29.2 6.6a43 43 0 0 0-19.4 23 49.4 49.4 0 0 0 16.5 57.4c8.2 6 18.5 8.9 28.6 9.4s20.4-1.1 29.5-5.6a47.3 47.3 0 0 0 21-22 49.4 49.4 0 0 0 3.8-31.6c-2-10.1-7.3-20-15.4-26.5-8-6.3-18-9.4-28-10.4l-7.4-.3c-3 0-3 4.8 0 4.8 9.1 0 18.5 1.5 26.6 5.9A38 38 0 0 1 117 42.4a45.7 45.7 0 0 1 1.2 29 44.7 44.7 0 0 1-16 23c-7.4 5.3-16.6 8-25.8 8.4-9.2.5-18.7-.8-27-5A43 43 0 0 1 30.1 78a44 44 0 0 1-3.4-28.6 41 41 0 0 1 14.1-24c7-5.5 16.2-8.2 25-9 2.3-.2 4.7-.3 7-.3 3 0 3.1-4.8 0-4.8Z" class="a"/><path d="M57.8 105.9v6.2a6.1 6.1 0 0 0 2.8 5.2c2.1 1.3 4.8.9 7.2.9H79c2 0 4.2.2 6-.9a6.1 6.1 0 0 0 3-5.1v-6.9c0-3-4.9-3-4.9 0v5.6a4.2 4.2 0 0 1-.1 1.9c-.6 1-2.5.6-3.4.6H64c-1 0-1.4-.4-1.4-1.3v-6.2c0-3-4.8-3.1-4.8 0ZM62.6 12.3V6.6c0-.6 0-1.3.6-1.6a5.5 5.5 0 0 1 2.4-.2h15.1a4.3 4.3 0 0 1 2 .2c.6.3.5 1 .5 1.6v6.3c0 3 4.8 3 4.8 0V6.5a6.4 6.4 0 0 0-1.6-4.6C84.8.2 82.8 0 80.5 0H66.1a15 15 0 0 0-4 .2A6 6 0 0 0 57.9 5a46.5 46.5 0 0 0-.1 7.3c0 3 4.8 3 4.8 0Z" class="a"/><path d="M66 116.5v38.7c0 3 4.8 3 4.8 0v-38.7c0-3-4.8-3-4.8 0ZM75 116.7v38.5c0 3 4.8 3 4.8 0v-38.5c0-3-4.8-3-4.8 0ZM62 100.3c-2-2-3-4.8-4.3-7.3l-3-7.2a67.8 67.8 0 0 1-3.6-15.3 88.2 88.2 0 0 1 3-34.9 76.6 76.6 0 0 1 3.3-8.9c1.2-2.8 2.5-5.9 4.6-8.1s-1.3-5.7-3.4-3.4a29.3 29.3 0 0 0-4.8 8 87 87 0 0 0-3.3 8.3 89.4 89.4 0 0 0-4 18.3c-1.5 12-.7 24.4 3.1 35.9a92 92 0 0 0 3.7 9c1.4 3.1 2.9 6.4 5.3 9 2 2.3 5.5-1.1 3.4-3.4ZM87.2 103.7a30.4 30.4 0 0 0 4.8-8c1.3-2.5 2.4-5.2 3.4-7.8a73 73 0 0 0 4-16.6A91.4 91.4 0 0 0 96 33.9a86.5 86.5 0 0 0-3.6-9.6 31.7 31.7 0 0 0-5.3-9.1c-2-2.3-5.5 1.1-3.4 3.4 2 2 3.1 4.8 4.2 7.3a75 75 0 0 1 3 7.7 83.8 83.8 0 0 1 3.7 17 79 79 0 0 1-3 33.4 80.1 80.1 0 0 1-3.3 8.2c-1.3 2.8-2.5 5.9-4.6 8.1-2 2.3 1.3 5.7 3.4 3.4Z" class="a"/><path d="M45.2 177.3h55.4a1.3 1.3 0 0 0 1.2-1.3v-15.1a5.9 5.9 0 0 0-5.9-6H50a5.9 5.9 0 0 0-6 6V176a1.3 1.3 0 0 0 1.3 1.3Z" class="e"/><path d="M45.2 179.7H100.5a3.8 3.8 0 0 0 3.7-3.7c.2-2.4 0-4.8 0-7.2V161a8.4 8.4 0 0 0-8.3-8.3H50.2a8.4 8.4 0 0 0-8.5 6.8 47.7 47.7 0 0 0-.1 7.7v8.6a3.8 3.8 0 0 0 3.6 4 2.4 2.4 0 0 0 2.4-2.4 2.5 2.5 0 0 0-2.4-2.4c1.7.2 1 1.8 1.2.7v-14.2c0-2.2 1.2-4 3.6-4h45c1.9 0 3.6.4 4.3 2.4a7.5 7.5 0 0 1 .1 2.3v13a4 4 0 0 0 0 .8c.2.6 1.7-.8 1.1-1a3.7 3.7 0 0 0-.9 0H45.2c-3 0-3 4.8 0 4.8Z" class="a"/></svg>