<svg xmlns="http://www.w3.org/2000/svg" width="2560" height="250"><path fill="#AF80BE" d="M1200 0v250H0l1-2c1.8-.6 1.8-.6 4.2-1l2.7-.7 3-.6 3.3-.6 10.8-2.3a13203.7 13203.7 0 0 0 59.8-12.3l2.3-.4a33662.3 33662.3 0 0 1 76.9-16c.7 0 1.3-.2 2-.4a170577.2 170577.2 0 0 0 46.2-9.6l2-.4 10.2-2.1 18.3-3.8 10.2-2.1 4-.9 10.2-2a586101607.4 586101607.4 0 0 0 42.6-9c.7 0 1.4-.2 2-.3a8443501.2 8443501.2 0 0 1 47-9.8l2-.4a1945746.2 1945746.2 0 0 0 356.5-74l2.3-.5A534276 534276 0 0 0 893 62.7l2.1-.5a2074975.4 2074975.4 0 0 1 245.7-51l15.2-3.1a8999.2 8999.2 0 0 0 33-7l3-.6c2.9-.5 2.9-.5 7.9-.5Z"/></svg>