<svg viewBox="0 0 600 600" width="600" height="600" xmlns="http://www.w3.org/2000/svg"><path style="color:#000;fill:#000;stroke-linecap:round;stroke-linejoin:round;-inkscape-stroke:none" d="M300 0a40.004 40.004 0 0 0-28.285 11.715l-260 260A40.004 40.004 0 0 0 0 300v260a40.004 40.004 0 0 0 40 40h164.666a40.004 40.004 0 0 0 40-40V426.666h110.668V560a40.004 40.004 0 0 0 40 40H560a40.004 40.004 0 0 0 40-40V300a40.004 40.004 0 0 0-11.715-28.285l-260-260A40.004 40.004 0 0 0 300 0Zm0 96.568 220 220V520h-84.666V386.666a40.004 40.004 0 0 0-40-40H204.666a40.004 40.004 0 0 0-40 40V520H80V316.568Z"/></svg>