<svg width="50" height="46" viewBox="0 0 50 46" fill="none" xmlns="http://www.w3.org/2000/svg">
<path d="M0 18H50V28H0V18Z" fill="#8865A9"/>
<path d="M0 18H50V28H0V18Z" fill="#8865A9"/>
<path d="M0 18H50V28H0V18Z" fill="#8865A9"/>
<path d="M0 18H50V28H0V18Z" fill="#8865A9"/>
<path d="M0 18H50V28H0V18Z" fill="#8865A9"/>
<path d="M0 36H50V46H0V36Z" fill="#8865A9"/>
<path d="M0 36H50V46H0V36Z" fill="#8865A9"/>
<path d="M0 36H50V46H0V36Z" fill="#8865A9"/>
<path d="M0 36H50V46H0V36Z" fill="#8865A9"/>
<path d="M0 36H50V46H0V36Z" fill="#8865A9"/>
<path d="M0 0H50V10H0V0Z" fill="#8865A9"/>
<path d="M0 0H50V10H0V0Z" fill="#8865A9"/>
<path d="M0 0H50V10H0V0Z" fill="#8865A9"/>
<path d="M0 0H50V10H0V0Z" fill="#8865A9"/>
<path d="M0 0H50V10H0V0Z" fill="#8865A9"/>
</svg>
